G75*
G70*
%OFA0B0*%
%FSLAX24Y24*%
%IPPOS*%
%LPD*%
%AMOC8*
5,1,8,0,0,1.08239X$1,22.5*
%
%ADD10C,0.0050*%
%ADD11R,0.0472X0.0122*%
%ADD12R,0.0630X0.0118*%
%ADD13R,0.0470X0.0115*%
%ADD14C,0.0100*%
%ADD15C,0.0250*%
%ADD16C,0.0080*%
D10*
X000613Y001440D02*
X000613Y033527D01*
X000615Y033580D01*
X000621Y033632D01*
X000630Y033684D01*
X000643Y033735D01*
X000660Y033785D01*
X000680Y033834D01*
X000703Y033881D01*
X000730Y033926D01*
X000760Y033969D01*
X000793Y034010D01*
X000829Y034049D01*
X000868Y034085D01*
X000909Y034118D01*
X000952Y034148D01*
X000997Y034175D01*
X001044Y034198D01*
X001093Y034218D01*
X001143Y034235D01*
X001194Y034248D01*
X001246Y034257D01*
X001298Y034263D01*
X001351Y034265D01*
X021181Y034265D01*
X021234Y034263D01*
X021286Y034257D01*
X021338Y034248D01*
X021389Y034235D01*
X021439Y034218D01*
X021488Y034198D01*
X021535Y034175D01*
X021580Y034148D01*
X021623Y034118D01*
X021664Y034085D01*
X021703Y034049D01*
X021739Y034010D01*
X021772Y033969D01*
X021802Y033926D01*
X021829Y033881D01*
X021852Y033834D01*
X021872Y033785D01*
X021889Y033735D01*
X021902Y033684D01*
X021911Y033632D01*
X021917Y033580D01*
X021919Y033527D01*
X021919Y001524D01*
X021920Y001524D02*
X021919Y001467D01*
X021916Y001411D01*
X021908Y001355D01*
X021897Y001300D01*
X021882Y001246D01*
X021864Y001193D01*
X021842Y001141D01*
X021817Y001090D01*
X021788Y001042D01*
X021757Y000995D01*
X021723Y000951D01*
X021685Y000909D01*
X021645Y000869D01*
X021603Y000832D01*
X021558Y000798D01*
X021511Y000767D01*
X021462Y000739D01*
X021412Y000714D01*
X021360Y000693D01*
X021306Y000675D01*
X021252Y000661D01*
X021197Y000650D01*
X021141Y000643D01*
X021085Y000639D01*
X021084Y000640D02*
X001413Y000640D01*
X001358Y000642D01*
X001304Y000647D01*
X001250Y000657D01*
X001197Y000670D01*
X001145Y000686D01*
X001094Y000706D01*
X001045Y000730D01*
X000997Y000756D01*
X000952Y000786D01*
X000908Y000819D01*
X000867Y000855D01*
X000828Y000894D01*
X000792Y000935D01*
X000759Y000979D01*
X000729Y001024D01*
X000703Y001072D01*
X000679Y001121D01*
X000659Y001172D01*
X000643Y001224D01*
X000630Y001277D01*
X000620Y001331D01*
X000615Y001385D01*
X000613Y001440D01*
D11*
X009474Y020851D03*
X009474Y021048D03*
X009474Y021245D03*
X009474Y021442D03*
X009474Y021639D03*
X009474Y021835D03*
X009474Y022032D03*
X009474Y022229D03*
X009474Y022426D03*
X009474Y022623D03*
X009474Y022820D03*
X009474Y023016D03*
X009474Y023213D03*
X009474Y023410D03*
X009474Y023607D03*
X009474Y023804D03*
X015065Y023804D03*
X015065Y023607D03*
X015065Y023410D03*
X015065Y023213D03*
X015065Y023016D03*
X015065Y022820D03*
X015065Y022623D03*
X015065Y022426D03*
X015065Y022229D03*
X015065Y022032D03*
X015065Y021835D03*
X015065Y021639D03*
X015065Y021442D03*
X015065Y021245D03*
X015065Y021048D03*
X015065Y020851D03*
D12*
X013797Y020851D03*
X013797Y021048D03*
X013797Y021245D03*
X013797Y021442D03*
X013797Y021639D03*
X013797Y021835D03*
X013797Y022032D03*
X013797Y022229D03*
X013797Y022426D03*
X013797Y022623D03*
X013797Y022820D03*
X013797Y023017D03*
X013797Y023213D03*
X013797Y023410D03*
X013797Y023607D03*
X013797Y023804D03*
X013797Y024001D03*
X013797Y024198D03*
X013797Y024394D03*
X013797Y024591D03*
X006238Y024591D03*
X006238Y024394D03*
X006238Y024198D03*
X006238Y024001D03*
X006238Y023804D03*
X006238Y023607D03*
X006238Y023410D03*
X006238Y023213D03*
X006238Y023017D03*
X006238Y022820D03*
X006238Y022623D03*
X006238Y022426D03*
X006238Y022229D03*
X006238Y022032D03*
X006238Y021835D03*
X006238Y021639D03*
X006238Y021442D03*
X006238Y021245D03*
X006238Y021048D03*
X006238Y020851D03*
D13*
X008387Y020851D03*
X008387Y021048D03*
X008387Y021245D03*
X008387Y021442D03*
X008387Y021639D03*
X008387Y021835D03*
X008387Y022032D03*
X008387Y022229D03*
X008387Y022426D03*
X008387Y022623D03*
X008387Y022820D03*
X008387Y023016D03*
X008387Y023213D03*
X008387Y023410D03*
X008387Y023607D03*
X008387Y023804D03*
X016143Y023804D03*
X016143Y023607D03*
X016143Y023410D03*
X016143Y023213D03*
X016143Y023016D03*
X016143Y022820D03*
X016143Y022623D03*
X016143Y022426D03*
X016143Y022229D03*
X016143Y022032D03*
X016143Y021835D03*
X016143Y021639D03*
X016143Y021442D03*
X016143Y021245D03*
X016143Y021048D03*
X016143Y020851D03*
D14*
X016140Y020848D01*
X015068Y020848D01*
X015065Y020851D01*
X013797Y020851D01*
X013797Y020851D01*
X013797Y021048D02*
X013797Y021048D01*
X015065Y021048D01*
X016143Y021048D01*
X016420Y021048D01*
X016515Y020953D01*
X016515Y003453D01*
X016328Y003765D02*
X016328Y020640D01*
X016182Y020786D01*
X016140Y020848D01*
X016143Y021245D02*
X016473Y021245D01*
X016703Y021015D01*
X016703Y003765D01*
X017015Y003453D01*
X017515Y003453D02*
X016890Y004078D01*
X016890Y021078D01*
X016526Y021442D01*
X016143Y021442D01*
X015065Y021442D01*
X013797Y021442D01*
X013797Y021442D01*
X013797Y021639D02*
X013266Y021639D01*
X013265Y021640D01*
X013015Y021390D01*
X013015Y021703D02*
X012828Y021703D01*
X013015Y021703D02*
X013148Y021835D01*
X013797Y021835D01*
X013797Y022032D02*
X012935Y022032D01*
X012890Y022078D01*
X013140Y022328D02*
X012515Y022328D01*
X012265Y022390D02*
X012265Y019578D01*
X012765Y019078D01*
X012765Y018328D01*
X013015Y018203D02*
X012703Y017890D01*
X012703Y004390D01*
X013015Y004078D01*
X013015Y003453D01*
X013515Y003453D02*
X013515Y003890D01*
X012890Y004515D01*
X012890Y017828D01*
X013265Y018203D01*
X013265Y019390D01*
X013515Y019640D02*
X013515Y018203D01*
X013078Y017765D01*
X013078Y004640D01*
X014015Y003703D01*
X014015Y003453D01*
X014078Y003890D02*
X013265Y004703D01*
X013265Y017703D01*
X013765Y018203D01*
X013765Y019890D01*
X014015Y020140D02*
X014015Y018203D01*
X013453Y017640D01*
X013453Y004765D01*
X014140Y004078D01*
X014765Y004078D01*
X015015Y003828D01*
X015015Y003453D01*
X015515Y003453D02*
X015515Y003828D01*
X015078Y004265D01*
X014203Y004265D01*
X013640Y004828D01*
X013640Y017578D01*
X014265Y018203D01*
X014265Y020390D01*
X013797Y021245D02*
X013797Y021245D01*
X015065Y021245D01*
X016143Y021245D01*
X016143Y021639D02*
X016579Y021639D01*
X017078Y021140D01*
X017078Y004390D01*
X018015Y003453D01*
X018515Y003453D02*
X017265Y004703D01*
X017265Y021203D01*
X016632Y021835D01*
X016143Y021835D01*
X015065Y021835D01*
X014695Y021835D01*
X014453Y022078D01*
X014453Y023640D01*
X014289Y023804D01*
X013797Y023804D01*
X013797Y024001D02*
X014404Y024001D01*
X014640Y023765D01*
X014640Y022140D01*
X014748Y022032D01*
X015065Y022032D01*
X016143Y022032D01*
X016685Y022032D01*
X017453Y021265D01*
X017453Y005015D01*
X019015Y003453D01*
X019515Y003453D02*
X017640Y005328D01*
X017640Y022015D01*
X018390Y022765D01*
X019015Y022765D01*
X019515Y023265D01*
X019515Y023828D01*
X018578Y024765D01*
X016703Y024765D01*
X016578Y024640D01*
X016529Y024591D01*
X013797Y024591D01*
X013797Y024198D02*
X013332Y024198D01*
X013265Y024140D01*
X013323Y024394D02*
X013140Y024578D01*
X013154Y024591D01*
X013323Y024394D02*
X016644Y024394D01*
X016828Y024578D01*
X018515Y024578D01*
X019328Y023765D01*
X019328Y023328D01*
X018953Y022953D01*
X018328Y022953D01*
X017578Y022203D01*
X016765Y022203D01*
X016738Y022229D01*
X016143Y022229D01*
X015065Y022229D01*
X015065Y022426D02*
X017417Y022426D01*
X017453Y022453D01*
X017515Y022515D01*
X017203Y022703D02*
X017095Y022623D01*
X016143Y022623D01*
X015065Y022623D01*
X015065Y022820D02*
X016835Y022820D01*
X016898Y022882D01*
X017015Y023015D01*
X017265Y023015D01*
X017390Y022890D01*
X017890Y022890D01*
X018140Y023140D01*
X018890Y023140D01*
X019140Y023390D01*
X019140Y023703D01*
X018453Y024390D01*
X016890Y024390D01*
X016578Y024078D01*
X014640Y024078D01*
X014520Y024198D01*
X013797Y024198D01*
X013797Y023607D02*
X013232Y023607D01*
X013078Y023703D01*
X013140Y023328D02*
X013348Y023410D01*
X013797Y023410D01*
X013797Y023213D02*
X014192Y023213D01*
X014265Y023140D01*
X014265Y022015D01*
X014641Y021639D01*
X015065Y021639D01*
X016143Y021639D01*
X016143Y022426D02*
X015065Y022426D01*
X015065Y022820D02*
X016143Y022820D01*
X016143Y023016D02*
X015065Y023016D01*
X016389Y023016D01*
X016640Y023015D01*
X016765Y023015D01*
X016953Y023203D01*
X017328Y023203D01*
X017453Y023078D01*
X017703Y023078D01*
X017953Y023328D01*
X018140Y023703D02*
X016953Y023703D01*
X016660Y023410D01*
X016143Y023410D01*
X015065Y023410D01*
X015065Y023213D02*
X016143Y023213D01*
X016713Y023213D01*
X017015Y023515D01*
X017390Y023515D01*
X017578Y023328D01*
X018140Y023703D02*
X018328Y023515D01*
X018890Y023515D01*
X018640Y023765D02*
X018328Y023765D01*
X018203Y023890D01*
X016890Y023890D01*
X016607Y023607D01*
X016143Y023607D01*
X015065Y023607D01*
X015065Y023804D02*
X016143Y023804D01*
X016554Y023804D01*
X016828Y024078D01*
X018390Y024078D01*
X013797Y023017D02*
X012888Y023017D01*
X012495Y023410D01*
X011660Y023410D01*
X009474Y023410D01*
X008387Y023410D01*
X008387Y023213D02*
X008129Y023213D01*
X007735Y023607D01*
X006238Y023607D01*
X006238Y023410D02*
X007682Y023410D01*
X008076Y023016D01*
X008387Y023016D01*
X009474Y023016D01*
X011389Y023016D01*
X012078Y022328D01*
X012078Y019078D01*
X012265Y018890D01*
X012265Y018640D01*
X012328Y018578D01*
X012328Y018265D01*
X012203Y018140D01*
X011828Y018140D01*
X012078Y018390D02*
X012078Y018828D01*
X011890Y019015D01*
X011890Y022265D01*
X011335Y022820D01*
X009474Y022820D01*
X008387Y022820D01*
X008023Y022820D01*
X007629Y023213D01*
X006238Y023213D01*
X006238Y023017D02*
X007576Y023017D01*
X007970Y022623D01*
X008387Y022623D01*
X009474Y022623D01*
X011282Y022623D01*
X011703Y022203D01*
X011703Y018703D01*
X011828Y018640D01*
X011328Y018390D02*
X011078Y018640D01*
X010890Y018390D02*
X010828Y018390D01*
X010890Y018390D02*
X011140Y018140D01*
X011140Y004078D01*
X010515Y003453D01*
X010578Y003828D02*
X010328Y003828D01*
X010015Y003515D01*
X010015Y003453D01*
X009515Y003453D02*
X009515Y003703D01*
X009828Y004015D01*
X010453Y004015D01*
X010765Y004328D01*
X010765Y017703D01*
X010578Y017890D01*
X010265Y017890D01*
X010578Y018140D02*
X010703Y018140D01*
X010953Y017890D01*
X010953Y004203D01*
X010578Y003828D01*
X011015Y003640D02*
X011015Y003453D01*
X011015Y003640D02*
X011328Y003953D01*
X011328Y018390D01*
X010828Y018890D02*
X011140Y019203D01*
X011140Y021453D01*
X010560Y022032D01*
X009474Y022032D01*
X008390Y022032D01*
X008387Y022032D01*
X006238Y022032D01*
X006238Y022032D01*
X006238Y021835D02*
X006238Y021835D01*
X008387Y021835D01*
X009474Y021835D01*
X010445Y021835D01*
X010953Y021328D01*
X010953Y019515D01*
X010578Y019140D01*
X010328Y019390D02*
X010765Y019828D01*
X010765Y021203D01*
X010329Y021639D01*
X009474Y021639D01*
X008387Y021639D01*
X006238Y021639D01*
X006238Y021639D01*
X006238Y021442D02*
X006238Y021442D01*
X008387Y021442D01*
X009474Y021442D01*
X010213Y021442D01*
X010578Y021078D01*
X010578Y020140D01*
X010078Y019640D01*
X009890Y019890D02*
X010390Y020390D01*
X010390Y020953D01*
X010098Y021245D01*
X009474Y021245D01*
X008387Y021245D01*
X006238Y021245D01*
X006238Y021245D01*
X006238Y021048D02*
X006238Y021048D01*
X008387Y021048D01*
X009474Y021048D01*
X009982Y021048D01*
X010140Y020890D01*
X010140Y020578D01*
X009703Y020140D01*
X009515Y020390D02*
X009515Y020828D01*
X009491Y020851D01*
X009474Y020851D01*
X008387Y020851D01*
X006238Y020851D01*
X006238Y020851D01*
X006328Y020515D02*
X005890Y020515D01*
X005765Y020515D01*
X005765Y022426D01*
X006238Y022426D01*
X006238Y022623D01*
X006238Y022480D01*
X006265Y022453D01*
X006238Y022229D02*
X006729Y022229D01*
X007140Y022640D01*
X007703Y022640D01*
X007917Y022426D01*
X008387Y022426D01*
X009474Y022426D01*
X011229Y022426D01*
X011515Y022140D01*
X011515Y003453D01*
X012015Y003390D02*
X012015Y003578D01*
X012515Y003453D02*
X012515Y018890D01*
X013015Y019140D02*
X013015Y018203D01*
X013229Y022229D02*
X013140Y022328D01*
X013229Y022229D02*
X013797Y022229D01*
X013797Y022426D02*
X013417Y022426D01*
X013328Y022515D01*
X013328Y022765D01*
X013445Y022820D01*
X012523Y022820D01*
X012453Y022890D01*
X012515Y022890D01*
X012265Y022390D02*
X011442Y023213D01*
X009474Y023213D01*
X008387Y023213D01*
X008387Y023607D02*
X009474Y023607D01*
X012295Y023607D01*
X012390Y023703D01*
X011890Y023140D02*
X011660Y023410D01*
X011703Y024078D02*
X010953Y024828D01*
X005145Y024828D01*
X005135Y024818D01*
X003910Y023578D01*
X003890Y023558D01*
X003890Y023063D01*
X004453Y022500D01*
X004453Y004203D01*
X004078Y003828D01*
X002203Y003828D01*
X002015Y003640D01*
X002015Y003578D01*
X004015Y003453D02*
X004640Y004078D01*
X004640Y022625D01*
X004203Y023063D01*
X004203Y023125D01*
X004515Y023063D02*
X004515Y023250D01*
X004515Y023063D02*
X004828Y022750D01*
X004828Y003953D01*
X004515Y003640D01*
X004515Y003453D01*
X005015Y003453D02*
X005015Y022938D01*
X004828Y023125D01*
X005140Y023250D02*
X005203Y023188D01*
X005203Y003953D01*
X005515Y003640D01*
X005515Y003453D01*
X006015Y003453D02*
X005390Y004078D01*
X005390Y023063D01*
X005453Y023125D01*
X005578Y022890D02*
X005703Y023015D01*
X005703Y023890D01*
X005813Y024001D01*
X006238Y024001D01*
X006592Y024001D01*
X006789Y023804D01*
X008387Y023804D01*
X008387Y023825D01*
X008390Y023828D01*
X008390Y023804D01*
X008387Y023804D01*
X008390Y023804D02*
X009474Y023804D01*
X009474Y022229D02*
X008387Y022229D01*
X008390Y022032D02*
X008390Y022015D01*
X007265Y020640D02*
X006953Y020640D01*
X006703Y020390D01*
X007078Y020390D02*
X007140Y020328D01*
X007390Y020328D01*
X007703Y020015D01*
X007703Y019203D01*
X007265Y018765D01*
X007265Y004328D01*
X007640Y003953D01*
X008265Y003953D01*
X008515Y003703D01*
X008515Y003453D01*
X009015Y003453D02*
X009015Y003828D01*
X008703Y004140D01*
X007703Y004140D01*
X007453Y004390D01*
X007453Y018703D01*
X007890Y019140D01*
X007890Y020140D01*
X007265Y020640D01*
X007328Y020140D02*
X005765Y020140D01*
X005578Y020328D01*
X005578Y022890D01*
X006230Y022828D02*
X006238Y022820D01*
X006710Y022820D01*
X006828Y022765D01*
X006823Y024198D02*
X006238Y024198D01*
X006233Y024203D01*
X005018Y024203D01*
X006823Y024198D02*
X006828Y024203D01*
X007328Y020140D02*
X007515Y019953D01*
X007515Y019265D01*
X007078Y018828D01*
X007078Y004265D01*
X007578Y003765D01*
X007828Y003765D01*
X008015Y003578D01*
X008015Y003453D01*
X007515Y003453D02*
X007515Y003515D01*
X006890Y004140D01*
X006890Y018890D01*
X007328Y019328D01*
X007328Y019765D01*
X007265Y019828D01*
X007078Y019515D02*
X007078Y019328D01*
X006703Y018953D01*
X006703Y004015D01*
X007015Y003703D01*
X007015Y003453D01*
X006515Y003453D02*
X006515Y019140D01*
X006640Y019265D01*
X010953Y024828D02*
X012640Y024828D01*
X012703Y024890D01*
X013015Y024890D01*
X013445Y022820D02*
X013797Y022820D01*
X014078Y003890D02*
X014390Y003890D01*
X014515Y003765D01*
X014515Y003453D01*
X016015Y003453D02*
X016328Y003765D01*
X020515Y003640D02*
X020515Y003578D01*
D15*
X020515Y003578D03*
X019515Y003453D03*
X019015Y003453D03*
X018515Y003453D03*
X018015Y003453D03*
X017515Y003453D03*
X017015Y003453D03*
X016515Y003453D03*
X016015Y003453D03*
X015515Y003453D03*
X015015Y003453D03*
X014515Y003453D03*
X014015Y003453D03*
X013515Y003453D03*
X013015Y003453D03*
X012515Y003453D03*
X012015Y003578D03*
X011515Y003453D03*
X011015Y003453D03*
X010515Y003453D03*
X010015Y003453D03*
X009515Y003453D03*
X009015Y003453D03*
X008515Y003453D03*
X008015Y003453D03*
X007515Y003453D03*
X007015Y003453D03*
X006515Y003453D03*
X006015Y003453D03*
X005515Y003453D03*
X005015Y003453D03*
X004515Y003453D03*
X004015Y003453D03*
X002015Y003578D03*
X010265Y017890D03*
X010578Y018140D03*
X010828Y018390D03*
X011078Y018640D03*
X010828Y018890D03*
X010578Y019140D03*
X010328Y019390D03*
X010078Y019640D03*
X009890Y019890D03*
X009703Y020140D03*
X009515Y020390D03*
X008890Y020453D03*
X008890Y019953D03*
X008265Y019953D03*
X008265Y020453D03*
X007265Y019828D03*
X007078Y019515D03*
X006640Y019265D03*
X006703Y020390D03*
X007078Y020390D03*
X006328Y020515D03*
X005890Y020515D03*
X007203Y022328D03*
X007640Y022328D03*
X006828Y022765D03*
X006828Y024203D03*
X005453Y023125D03*
X005140Y023250D03*
X004828Y023125D03*
X004515Y023250D03*
X004203Y023125D03*
X003890Y023558D03*
X005018Y024203D03*
X010890Y022140D03*
X011203Y021890D03*
X011890Y023140D03*
X012390Y023703D03*
X013078Y023703D03*
X013140Y023328D03*
X012515Y022890D03*
X012515Y022328D03*
X012890Y022078D03*
X013140Y022328D03*
X012828Y021703D03*
X013015Y021390D03*
X014015Y020140D03*
X013765Y019890D03*
X013515Y019640D03*
X013265Y019390D03*
X013015Y019140D03*
X012515Y018890D03*
X012765Y018328D03*
X012078Y018390D03*
X011828Y018640D03*
X011828Y018140D03*
X014265Y020390D03*
X014953Y020453D03*
X014953Y019953D03*
X015578Y019953D03*
X015578Y020453D03*
X017203Y022703D03*
X017515Y022515D03*
X017578Y023328D03*
X017953Y023328D03*
X018390Y024078D03*
X018640Y023765D03*
X018890Y023515D03*
X013265Y024140D03*
X013140Y024578D03*
X013015Y024890D03*
X011703Y024078D03*
D16*
X000847Y001152D02*
X000964Y000991D01*
X001124Y000874D01*
X001314Y000813D01*
X001413Y000805D01*
X021080Y000805D01*
X021188Y000817D01*
X021393Y000890D01*
X021565Y001022D01*
X021687Y001202D01*
X021749Y001410D01*
X021754Y001518D01*
X021754Y001521D01*
X021752Y001587D01*
X021754Y001589D01*
X021754Y033527D01*
X021747Y033617D01*
X021691Y033787D01*
X021586Y033932D01*
X021441Y034038D01*
X021271Y034093D01*
X021181Y034100D01*
X001351Y034100D01*
X001261Y034093D01*
X001090Y034038D01*
X000945Y033932D01*
X000840Y033787D01*
X000785Y033617D01*
X000778Y033527D01*
X000778Y001440D01*
X000785Y001341D01*
X000847Y001152D01*
X000835Y001190D02*
X021679Y001190D01*
X021707Y001268D02*
X000809Y001268D01*
X000785Y001347D02*
X021730Y001347D01*
X021749Y001425D02*
X000779Y001425D01*
X000778Y001504D02*
X021753Y001504D01*
X021752Y001582D02*
X000778Y001582D01*
X000778Y001661D02*
X021754Y001661D01*
X021754Y001739D02*
X000778Y001739D01*
X000778Y001818D02*
X021754Y001818D01*
X021754Y001896D02*
X000778Y001896D01*
X000778Y001975D02*
X021754Y001975D01*
X021754Y002053D02*
X000778Y002053D01*
X000778Y002132D02*
X021754Y002132D01*
X021754Y002210D02*
X000778Y002210D01*
X000778Y002289D02*
X021754Y002289D01*
X021754Y002367D02*
X000778Y002367D01*
X000778Y002446D02*
X021754Y002446D01*
X021754Y002524D02*
X000778Y002524D01*
X000778Y002603D02*
X021754Y002603D01*
X021754Y002681D02*
X000778Y002681D01*
X000778Y002760D02*
X021754Y002760D01*
X021754Y002838D02*
X000778Y002838D01*
X000778Y002917D02*
X021754Y002917D01*
X021754Y002995D02*
X000778Y002995D01*
X000778Y003074D02*
X021754Y003074D01*
X021754Y003152D02*
X000778Y003152D01*
X000778Y003231D02*
X003919Y003231D01*
X003922Y003228D02*
X004108Y003228D01*
X004240Y003359D01*
X004240Y003465D01*
X004290Y003515D01*
X004290Y003359D01*
X004422Y003228D01*
X004608Y003228D01*
X004740Y003359D01*
X004740Y003546D01*
X004686Y003599D01*
X004865Y003778D01*
X004865Y003621D01*
X004790Y003546D01*
X004790Y003359D01*
X004922Y003228D01*
X005108Y003228D01*
X005240Y003359D01*
X005240Y003546D01*
X005165Y003621D01*
X005165Y003778D01*
X005344Y003599D01*
X005290Y003546D01*
X005290Y003359D01*
X005422Y003228D01*
X005608Y003228D01*
X005740Y003359D01*
X005740Y003515D01*
X005790Y003465D01*
X005790Y003359D01*
X005922Y003228D01*
X006108Y003228D01*
X006240Y003359D01*
X006240Y003546D01*
X006108Y003677D01*
X006002Y003677D01*
X005540Y004140D01*
X005540Y020153D01*
X005703Y019990D01*
X007109Y019990D01*
X007040Y019921D01*
X007040Y019740D01*
X006984Y019740D01*
X006853Y019608D01*
X006853Y019422D01*
X006906Y019368D01*
X006865Y019327D01*
X006865Y019358D01*
X006733Y019490D01*
X006547Y019490D01*
X006415Y019358D01*
X006415Y019252D01*
X006365Y019202D01*
X006365Y003621D01*
X006290Y003546D01*
X006290Y003359D01*
X006422Y003228D01*
X006608Y003228D01*
X006740Y003359D01*
X006740Y003546D01*
X006665Y003621D01*
X006665Y003840D01*
X006865Y003640D01*
X006865Y003621D01*
X006790Y003546D01*
X006790Y003359D01*
X006922Y003228D01*
X007108Y003228D01*
X007240Y003359D01*
X007240Y003546D01*
X007165Y003621D01*
X007165Y003653D01*
X007290Y003528D01*
X007290Y003359D01*
X007422Y003228D01*
X007608Y003228D01*
X007740Y003359D01*
X007740Y003546D01*
X007671Y003615D01*
X007765Y003615D01*
X007812Y003568D01*
X007790Y003546D01*
X007790Y003359D01*
X007922Y003228D01*
X008108Y003228D01*
X008240Y003359D01*
X008240Y003546D01*
X008165Y003621D01*
X008165Y003640D01*
X008002Y003803D01*
X008203Y003803D01*
X008365Y003640D01*
X008365Y003621D01*
X008290Y003546D01*
X008290Y003359D01*
X008422Y003228D01*
X008608Y003228D01*
X008740Y003359D01*
X008740Y003546D01*
X008665Y003621D01*
X008665Y003765D01*
X008440Y003990D01*
X008640Y003990D01*
X008865Y003765D01*
X008865Y003621D01*
X008790Y003546D01*
X008790Y003359D01*
X008922Y003228D01*
X009108Y003228D01*
X009240Y003359D01*
X009240Y003546D01*
X009165Y003621D01*
X009165Y003890D01*
X008852Y004202D01*
X008765Y004290D01*
X007765Y004290D01*
X007602Y004452D01*
X007602Y018640D01*
X007952Y018990D01*
X008040Y019078D01*
X008040Y020087D01*
X008046Y020095D01*
X008040Y020148D01*
X008040Y020202D01*
X008033Y020209D01*
X008032Y020218D01*
X007990Y020252D01*
X007952Y020290D01*
X007943Y020290D01*
X007429Y020701D01*
X008103Y020701D01*
X008111Y020694D01*
X008663Y020694D01*
X008671Y020701D01*
X009186Y020701D01*
X009197Y020690D01*
X009365Y020690D01*
X009365Y020558D01*
X009290Y020483D01*
X009290Y020297D01*
X009422Y020165D01*
X009478Y020165D01*
X009478Y020047D01*
X009609Y019915D01*
X009665Y019915D01*
X009665Y019797D01*
X009797Y019665D01*
X009853Y019665D01*
X009853Y019547D01*
X009984Y019415D01*
X010103Y019415D01*
X010103Y019297D01*
X010234Y019165D01*
X010353Y019165D01*
X010353Y019047D01*
X010484Y018915D01*
X010603Y018915D01*
X010603Y018797D01*
X010734Y018665D01*
X010853Y018665D01*
X010853Y018615D01*
X010734Y018615D01*
X010603Y018483D01*
X010603Y018365D01*
X010484Y018365D01*
X010353Y018233D01*
X010353Y018115D01*
X010172Y018115D01*
X010040Y017983D01*
X010040Y017797D01*
X010172Y017665D01*
X010358Y017665D01*
X010433Y017740D01*
X010515Y017740D01*
X010615Y017640D01*
X010615Y004390D01*
X010390Y004165D01*
X009765Y004165D01*
X009678Y004077D01*
X009365Y003765D01*
X009365Y003621D01*
X009290Y003546D01*
X009290Y003359D01*
X009422Y003228D01*
X009608Y003228D01*
X009740Y003359D01*
X009740Y003546D01*
X009665Y003621D01*
X009665Y003640D01*
X009890Y003865D01*
X010153Y003865D01*
X009965Y003677D01*
X009922Y003677D01*
X009790Y003546D01*
X009790Y003359D01*
X009922Y003228D01*
X010108Y003228D01*
X010240Y003359D01*
X010240Y003528D01*
X010390Y003678D01*
X010528Y003678D01*
X010528Y003677D01*
X010422Y003677D01*
X010290Y003546D01*
X010290Y003359D01*
X010422Y003228D01*
X010608Y003228D01*
X010740Y003359D01*
X010740Y003465D01*
X010790Y003515D01*
X010790Y003359D01*
X010922Y003228D01*
X011108Y003228D01*
X011240Y003359D01*
X011240Y003546D01*
X011186Y003599D01*
X011365Y003778D01*
X011365Y003621D01*
X011290Y003546D01*
X011290Y003359D01*
X011422Y003228D01*
X011608Y003228D01*
X011740Y003359D01*
X011740Y003546D01*
X011665Y003621D01*
X011665Y017984D01*
X011734Y017915D01*
X011921Y017915D01*
X011996Y017990D01*
X012265Y017990D01*
X012352Y018078D01*
X012365Y018090D01*
X012365Y003621D01*
X012290Y003546D01*
X012290Y003359D01*
X012422Y003228D01*
X012608Y003228D01*
X012740Y003359D01*
X012740Y003546D01*
X012665Y003621D01*
X012665Y004215D01*
X012865Y004015D01*
X012865Y003621D01*
X012790Y003546D01*
X012790Y003359D01*
X012922Y003228D01*
X013108Y003228D01*
X013240Y003359D01*
X013240Y003546D01*
X013165Y003621D01*
X013165Y004028D01*
X013365Y003828D01*
X013365Y003621D01*
X013290Y003546D01*
X013290Y003359D01*
X013422Y003228D01*
X013608Y003228D01*
X013740Y003359D01*
X013740Y003546D01*
X013665Y003621D01*
X013665Y003840D01*
X013865Y003640D01*
X013865Y003621D01*
X013790Y003546D01*
X013790Y003359D01*
X013922Y003228D01*
X014108Y003228D01*
X014240Y003359D01*
X014240Y003546D01*
X014165Y003621D01*
X014165Y003740D01*
X014328Y003740D01*
X014365Y003703D01*
X014365Y003621D01*
X014290Y003546D01*
X014290Y003359D01*
X014422Y003228D01*
X014608Y003228D01*
X014740Y003359D01*
X014740Y003546D01*
X014665Y003621D01*
X014665Y003827D01*
X014565Y003928D01*
X014703Y003928D01*
X014865Y003765D01*
X014865Y003621D01*
X014790Y003546D01*
X014790Y003359D01*
X014922Y003228D01*
X015108Y003228D01*
X015240Y003359D01*
X015240Y003546D01*
X015165Y003621D01*
X015165Y003890D01*
X014940Y004115D01*
X015015Y004115D01*
X015365Y003765D01*
X015365Y003621D01*
X015290Y003546D01*
X015290Y003359D01*
X015422Y003228D01*
X015608Y003228D01*
X015740Y003359D01*
X015740Y003546D01*
X015665Y003621D01*
X015665Y003890D01*
X015227Y004327D01*
X015140Y004415D01*
X014265Y004415D01*
X013790Y004890D01*
X013790Y017515D01*
X014327Y018053D01*
X014415Y018140D01*
X014415Y020222D01*
X014490Y020297D01*
X014490Y020483D01*
X014358Y020615D01*
X014172Y020615D01*
X014040Y020483D01*
X014040Y020365D01*
X013922Y020365D01*
X013790Y020233D01*
X013790Y020115D01*
X013672Y020115D01*
X013540Y019983D01*
X013540Y019865D01*
X013422Y019865D01*
X013290Y019733D01*
X013290Y019615D01*
X013172Y019615D01*
X013040Y019483D01*
X013040Y019365D01*
X012922Y019365D01*
X012806Y019249D01*
X012415Y019640D01*
X012415Y022109D01*
X012422Y022103D01*
X012608Y022103D01*
X012665Y022159D01*
X012665Y021984D01*
X012728Y021921D01*
X012603Y021796D01*
X012603Y021609D01*
X012734Y021478D01*
X012790Y021478D01*
X012790Y021297D01*
X012922Y021165D01*
X013108Y021165D01*
X013240Y021297D01*
X013240Y021403D01*
X013326Y021489D01*
X013382Y021489D01*
X013382Y020751D01*
X013441Y020692D01*
X014153Y020692D01*
X014162Y020701D01*
X014776Y020701D01*
X014787Y020690D01*
X015343Y020690D01*
X015351Y020698D01*
X015862Y020698D01*
X015867Y020694D01*
X016062Y020694D01*
X016065Y020690D01*
X016092Y020651D01*
X016108Y020647D01*
X016178Y020578D01*
X016178Y003827D01*
X016028Y003677D01*
X015922Y003677D01*
X015790Y003546D01*
X015790Y003359D01*
X015922Y003228D01*
X016108Y003228D01*
X016240Y003359D01*
X016240Y003465D01*
X016290Y003515D01*
X016290Y003359D01*
X016422Y003228D01*
X016608Y003228D01*
X016740Y003359D01*
X016740Y003515D01*
X016790Y003465D01*
X016790Y003359D01*
X016922Y003228D01*
X017108Y003228D01*
X017240Y003359D01*
X017240Y003515D01*
X017290Y003465D01*
X017290Y003359D01*
X017422Y003228D01*
X017608Y003228D01*
X017740Y003359D01*
X017740Y003515D01*
X017790Y003465D01*
X017790Y003359D01*
X017922Y003228D01*
X018108Y003228D01*
X018240Y003359D01*
X018240Y003515D01*
X018290Y003465D01*
X018290Y003359D01*
X018422Y003228D01*
X018608Y003228D01*
X018740Y003359D01*
X018740Y003515D01*
X018790Y003465D01*
X018790Y003359D01*
X018922Y003228D01*
X019108Y003228D01*
X019240Y003359D01*
X019240Y003515D01*
X019290Y003465D01*
X019290Y003359D01*
X019422Y003228D01*
X019608Y003228D01*
X019740Y003359D01*
X019740Y003546D01*
X019608Y003677D01*
X019502Y003677D01*
X017790Y005390D01*
X017790Y021953D01*
X018452Y022615D01*
X019077Y022615D01*
X019577Y023115D01*
X019665Y023203D01*
X019665Y023890D01*
X018727Y024827D01*
X018640Y024915D01*
X016640Y024915D01*
X016467Y024741D01*
X014162Y024741D01*
X014153Y024750D01*
X013441Y024750D01*
X013382Y024692D01*
X013382Y024548D01*
X013365Y024565D01*
X013365Y024671D01*
X013239Y024796D01*
X013240Y024797D01*
X013240Y024983D01*
X013108Y025115D01*
X012922Y025115D01*
X012847Y025040D01*
X012640Y025040D01*
X012578Y024977D01*
X005083Y024977D01*
X005072Y024967D01*
X005029Y024923D01*
X004985Y024880D01*
X004985Y024879D01*
X003902Y023782D01*
X003797Y023782D01*
X003665Y023651D01*
X003665Y023464D01*
X003740Y023389D01*
X003740Y023000D01*
X003828Y022913D01*
X004303Y022438D01*
X004303Y004265D01*
X004015Y003977D01*
X002140Y003977D01*
X002053Y003890D01*
X001965Y003802D01*
X001922Y003802D01*
X001790Y003671D01*
X001790Y003484D01*
X001922Y003353D01*
X002108Y003353D01*
X002240Y003484D01*
X002240Y003653D01*
X002265Y003678D01*
X004028Y003678D01*
X004028Y003677D01*
X003922Y003677D01*
X003790Y003546D01*
X003790Y003359D01*
X003922Y003228D01*
X003840Y003309D02*
X000778Y003309D01*
X000778Y003388D02*
X001887Y003388D01*
X001808Y003466D02*
X000778Y003466D01*
X000778Y003545D02*
X001790Y003545D01*
X001790Y003623D02*
X000778Y003623D01*
X000778Y003702D02*
X001821Y003702D01*
X001899Y003780D02*
X000778Y003780D01*
X000778Y003859D02*
X002021Y003859D01*
X002100Y003937D02*
X000778Y003937D01*
X000778Y004016D02*
X004053Y004016D01*
X004132Y004094D02*
X000778Y004094D01*
X000778Y004173D02*
X004210Y004173D01*
X004289Y004251D02*
X000778Y004251D01*
X000778Y004330D02*
X004303Y004330D01*
X004303Y004408D02*
X000778Y004408D01*
X000778Y004487D02*
X004303Y004487D01*
X004303Y004565D02*
X000778Y004565D01*
X000778Y004644D02*
X004303Y004644D01*
X004303Y004722D02*
X000778Y004722D01*
X000778Y004801D02*
X004303Y004801D01*
X004303Y004879D02*
X000778Y004879D01*
X000778Y004958D02*
X004303Y004958D01*
X004303Y005036D02*
X000778Y005036D01*
X000778Y005115D02*
X004303Y005115D01*
X004303Y005193D02*
X000778Y005193D01*
X000778Y005272D02*
X004303Y005272D01*
X004303Y005350D02*
X000778Y005350D01*
X000778Y005429D02*
X004303Y005429D01*
X004303Y005507D02*
X000778Y005507D01*
X000778Y005586D02*
X004303Y005586D01*
X004303Y005664D02*
X000778Y005664D01*
X000778Y005743D02*
X004303Y005743D01*
X004303Y005821D02*
X000778Y005821D01*
X000778Y005900D02*
X004303Y005900D01*
X004303Y005978D02*
X000778Y005978D01*
X000778Y006057D02*
X004303Y006057D01*
X004303Y006135D02*
X000778Y006135D01*
X000778Y006214D02*
X004303Y006214D01*
X004303Y006292D02*
X000778Y006292D01*
X000778Y006371D02*
X004303Y006371D01*
X004303Y006449D02*
X000778Y006449D01*
X000778Y006528D02*
X004303Y006528D01*
X004303Y006606D02*
X000778Y006606D01*
X000778Y006685D02*
X004303Y006685D01*
X004303Y006763D02*
X000778Y006763D01*
X000778Y006842D02*
X004303Y006842D01*
X004303Y006920D02*
X000778Y006920D01*
X000778Y006999D02*
X004303Y006999D01*
X004303Y007077D02*
X000778Y007077D01*
X000778Y007156D02*
X004303Y007156D01*
X004303Y007234D02*
X000778Y007234D01*
X000778Y007313D02*
X004303Y007313D01*
X004303Y007391D02*
X000778Y007391D01*
X000778Y007470D02*
X004303Y007470D01*
X004303Y007548D02*
X000778Y007548D01*
X000778Y007627D02*
X004303Y007627D01*
X004303Y007705D02*
X000778Y007705D01*
X000778Y007784D02*
X004303Y007784D01*
X004303Y007862D02*
X000778Y007862D01*
X000778Y007941D02*
X004303Y007941D01*
X004303Y008019D02*
X000778Y008019D01*
X000778Y008098D02*
X004303Y008098D01*
X004303Y008176D02*
X000778Y008176D01*
X000778Y008255D02*
X004303Y008255D01*
X004303Y008333D02*
X000778Y008333D01*
X000778Y008412D02*
X004303Y008412D01*
X004303Y008490D02*
X000778Y008490D01*
X000778Y008569D02*
X004303Y008569D01*
X004303Y008647D02*
X000778Y008647D01*
X000778Y008726D02*
X004303Y008726D01*
X004303Y008804D02*
X000778Y008804D01*
X000778Y008883D02*
X004303Y008883D01*
X004303Y008961D02*
X000778Y008961D01*
X000778Y009040D02*
X004303Y009040D01*
X004303Y009118D02*
X000778Y009118D01*
X000778Y009197D02*
X004303Y009197D01*
X004303Y009275D02*
X000778Y009275D01*
X000778Y009354D02*
X004303Y009354D01*
X004303Y009432D02*
X000778Y009432D01*
X000778Y009511D02*
X004303Y009511D01*
X004303Y009589D02*
X000778Y009589D01*
X000778Y009668D02*
X004303Y009668D01*
X004303Y009746D02*
X000778Y009746D01*
X000778Y009825D02*
X004303Y009825D01*
X004303Y009903D02*
X000778Y009903D01*
X000778Y009982D02*
X004303Y009982D01*
X004303Y010060D02*
X000778Y010060D01*
X000778Y010139D02*
X004303Y010139D01*
X004303Y010217D02*
X000778Y010217D01*
X000778Y010296D02*
X004303Y010296D01*
X004303Y010374D02*
X000778Y010374D01*
X000778Y010453D02*
X004303Y010453D01*
X004303Y010531D02*
X000778Y010531D01*
X000778Y010610D02*
X004303Y010610D01*
X004303Y010688D02*
X000778Y010688D01*
X000778Y010767D02*
X004303Y010767D01*
X004303Y010845D02*
X000778Y010845D01*
X000778Y010924D02*
X004303Y010924D01*
X004303Y011002D02*
X000778Y011002D01*
X000778Y011081D02*
X004303Y011081D01*
X004303Y011159D02*
X000778Y011159D01*
X000778Y011238D02*
X004303Y011238D01*
X004303Y011316D02*
X000778Y011316D01*
X000778Y011395D02*
X004303Y011395D01*
X004303Y011473D02*
X000778Y011473D01*
X000778Y011552D02*
X004303Y011552D01*
X004303Y011630D02*
X000778Y011630D01*
X000778Y011709D02*
X004303Y011709D01*
X004303Y011787D02*
X000778Y011787D01*
X000778Y011866D02*
X004303Y011866D01*
X004303Y011944D02*
X000778Y011944D01*
X000778Y012023D02*
X004303Y012023D01*
X004303Y012101D02*
X000778Y012101D01*
X000778Y012180D02*
X004303Y012180D01*
X004303Y012258D02*
X000778Y012258D01*
X000778Y012337D02*
X004303Y012337D01*
X004303Y012415D02*
X000778Y012415D01*
X000778Y012494D02*
X004303Y012494D01*
X004303Y012572D02*
X000778Y012572D01*
X000778Y012651D02*
X004303Y012651D01*
X004303Y012729D02*
X000778Y012729D01*
X000778Y012808D02*
X004303Y012808D01*
X004303Y012886D02*
X000778Y012886D01*
X000778Y012965D02*
X004303Y012965D01*
X004303Y013043D02*
X000778Y013043D01*
X000778Y013122D02*
X004303Y013122D01*
X004303Y013200D02*
X000778Y013200D01*
X000778Y013279D02*
X004303Y013279D01*
X004303Y013357D02*
X000778Y013357D01*
X000778Y013436D02*
X004303Y013436D01*
X004303Y013514D02*
X000778Y013514D01*
X000778Y013593D02*
X004303Y013593D01*
X004303Y013671D02*
X000778Y013671D01*
X000778Y013750D02*
X004303Y013750D01*
X004303Y013828D02*
X000778Y013828D01*
X000778Y013907D02*
X004303Y013907D01*
X004303Y013985D02*
X000778Y013985D01*
X000778Y014064D02*
X004303Y014064D01*
X004303Y014142D02*
X000778Y014142D01*
X000778Y014221D02*
X004303Y014221D01*
X004303Y014299D02*
X000778Y014299D01*
X000778Y014378D02*
X004303Y014378D01*
X004303Y014456D02*
X000778Y014456D01*
X000778Y014535D02*
X004303Y014535D01*
X004303Y014613D02*
X000778Y014613D01*
X000778Y014692D02*
X004303Y014692D01*
X004303Y014770D02*
X000778Y014770D01*
X000778Y014849D02*
X004303Y014849D01*
X004303Y014927D02*
X000778Y014927D01*
X000778Y015006D02*
X004303Y015006D01*
X004303Y015084D02*
X000778Y015084D01*
X000778Y015163D02*
X004303Y015163D01*
X004303Y015241D02*
X000778Y015241D01*
X000778Y015320D02*
X004303Y015320D01*
X004303Y015398D02*
X000778Y015398D01*
X000778Y015477D02*
X004303Y015477D01*
X004303Y015555D02*
X000778Y015555D01*
X000778Y015634D02*
X004303Y015634D01*
X004303Y015712D02*
X000778Y015712D01*
X000778Y015791D02*
X004303Y015791D01*
X004303Y015869D02*
X000778Y015869D01*
X000778Y015948D02*
X004303Y015948D01*
X004303Y016026D02*
X000778Y016026D01*
X000778Y016105D02*
X004303Y016105D01*
X004303Y016183D02*
X000778Y016183D01*
X000778Y016262D02*
X004303Y016262D01*
X004303Y016340D02*
X000778Y016340D01*
X000778Y016419D02*
X004303Y016419D01*
X004303Y016497D02*
X000778Y016497D01*
X000778Y016576D02*
X004303Y016576D01*
X004303Y016654D02*
X000778Y016654D01*
X000778Y016733D02*
X004303Y016733D01*
X004303Y016811D02*
X000778Y016811D01*
X000778Y016890D02*
X004303Y016890D01*
X004303Y016968D02*
X000778Y016968D01*
X000778Y017047D02*
X004303Y017047D01*
X004303Y017125D02*
X000778Y017125D01*
X000778Y017204D02*
X004303Y017204D01*
X004303Y017282D02*
X000778Y017282D01*
X000778Y017361D02*
X004303Y017361D01*
X004303Y017439D02*
X000778Y017439D01*
X000778Y017518D02*
X004303Y017518D01*
X004303Y017596D02*
X000778Y017596D01*
X000778Y017675D02*
X004303Y017675D01*
X004303Y017753D02*
X000778Y017753D01*
X000778Y017832D02*
X004303Y017832D01*
X004303Y017910D02*
X000778Y017910D01*
X000778Y017989D02*
X004303Y017989D01*
X004303Y018067D02*
X000778Y018067D01*
X000778Y018146D02*
X004303Y018146D01*
X004303Y018224D02*
X000778Y018224D01*
X000778Y018303D02*
X004303Y018303D01*
X004303Y018381D02*
X000778Y018381D01*
X000778Y018460D02*
X004303Y018460D01*
X004303Y018538D02*
X000778Y018538D01*
X000778Y018617D02*
X004303Y018617D01*
X004303Y018695D02*
X000778Y018695D01*
X000778Y018774D02*
X004303Y018774D01*
X004303Y018852D02*
X000778Y018852D01*
X000778Y018931D02*
X004303Y018931D01*
X004303Y019009D02*
X000778Y019009D01*
X000778Y019088D02*
X004303Y019088D01*
X004303Y019166D02*
X000778Y019166D01*
X000778Y019245D02*
X004303Y019245D01*
X004303Y019323D02*
X000778Y019323D01*
X000778Y019402D02*
X004303Y019402D01*
X004303Y019480D02*
X000778Y019480D01*
X000778Y019559D02*
X004303Y019559D01*
X004303Y019637D02*
X000778Y019637D01*
X000778Y019716D02*
X004303Y019716D01*
X004303Y019794D02*
X000778Y019794D01*
X000778Y019873D02*
X004303Y019873D01*
X004303Y019951D02*
X000778Y019951D01*
X000778Y020030D02*
X004303Y020030D01*
X004303Y020108D02*
X000778Y020108D01*
X000778Y020187D02*
X004303Y020187D01*
X004303Y020265D02*
X000778Y020265D01*
X000778Y020344D02*
X004303Y020344D01*
X004303Y020422D02*
X000778Y020422D01*
X000778Y020501D02*
X004303Y020501D01*
X004303Y020579D02*
X000778Y020579D01*
X000778Y020658D02*
X004303Y020658D01*
X004303Y020736D02*
X000778Y020736D01*
X000778Y020815D02*
X004303Y020815D01*
X004303Y020893D02*
X000778Y020893D01*
X000778Y020972D02*
X004303Y020972D01*
X004303Y021050D02*
X000778Y021050D01*
X000778Y021129D02*
X004303Y021129D01*
X004303Y021207D02*
X000778Y021207D01*
X000778Y021286D02*
X004303Y021286D01*
X004303Y021364D02*
X000778Y021364D01*
X000778Y021443D02*
X004303Y021443D01*
X004303Y021521D02*
X000778Y021521D01*
X000778Y021600D02*
X004303Y021600D01*
X004303Y021678D02*
X000778Y021678D01*
X000778Y021757D02*
X004303Y021757D01*
X004303Y021835D02*
X000778Y021835D01*
X000778Y021914D02*
X004303Y021914D01*
X004303Y021992D02*
X000778Y021992D01*
X000778Y022071D02*
X004303Y022071D01*
X004303Y022149D02*
X000778Y022149D01*
X000778Y022228D02*
X004303Y022228D01*
X004303Y022306D02*
X000778Y022306D01*
X000778Y022385D02*
X004303Y022385D01*
X004277Y022463D02*
X000778Y022463D01*
X000778Y022542D02*
X004199Y022542D01*
X004120Y022620D02*
X000778Y022620D01*
X000778Y022699D02*
X004042Y022699D01*
X003963Y022777D02*
X000778Y022777D01*
X000778Y022856D02*
X003885Y022856D01*
X003828Y022913D02*
X003828Y022913D01*
X003806Y022934D02*
X000778Y022934D01*
X000778Y023013D02*
X003740Y023013D01*
X003740Y023091D02*
X000778Y023091D01*
X000778Y023170D02*
X003740Y023170D01*
X003740Y023248D02*
X000778Y023248D01*
X000778Y023327D02*
X003740Y023327D01*
X003724Y023405D02*
X000778Y023405D01*
X000778Y023484D02*
X003665Y023484D01*
X003665Y023562D02*
X000778Y023562D01*
X000778Y023641D02*
X003665Y023641D01*
X003733Y023719D02*
X000778Y023719D01*
X000778Y023798D02*
X003917Y023798D01*
X003994Y023876D02*
X000778Y023876D01*
X000778Y023955D02*
X004072Y023955D01*
X004149Y024033D02*
X000778Y024033D01*
X000778Y024112D02*
X004227Y024112D01*
X004304Y024190D02*
X000778Y024190D01*
X000778Y024269D02*
X004382Y024269D01*
X004459Y024347D02*
X000778Y024347D01*
X000778Y024426D02*
X004537Y024426D01*
X004615Y024504D02*
X000778Y024504D01*
X000778Y024583D02*
X004692Y024583D01*
X004770Y024661D02*
X000778Y024661D01*
X000778Y024740D02*
X004847Y024740D01*
X004925Y024818D02*
X000778Y024818D01*
X000778Y024897D02*
X005002Y024897D01*
X005072Y024967D02*
X005072Y024967D01*
X005080Y024975D02*
X000778Y024975D01*
X000778Y025054D02*
X012860Y025054D01*
X013170Y025054D02*
X021754Y025054D01*
X021754Y025132D02*
X000778Y025132D01*
X000778Y025211D02*
X021754Y025211D01*
X021754Y025289D02*
X000778Y025289D01*
X000778Y025368D02*
X021754Y025368D01*
X021754Y025446D02*
X000778Y025446D01*
X000778Y025525D02*
X021754Y025525D01*
X021754Y025603D02*
X000778Y025603D01*
X000778Y025682D02*
X021754Y025682D01*
X021754Y025760D02*
X000778Y025760D01*
X000778Y025839D02*
X021754Y025839D01*
X021754Y025917D02*
X000778Y025917D01*
X000778Y025996D02*
X021754Y025996D01*
X021754Y026074D02*
X000778Y026074D01*
X000778Y026153D02*
X021754Y026153D01*
X021754Y026231D02*
X000778Y026231D01*
X000778Y026310D02*
X021754Y026310D01*
X021754Y026388D02*
X000778Y026388D01*
X000778Y026467D02*
X021754Y026467D01*
X021754Y026545D02*
X000778Y026545D01*
X000778Y026624D02*
X021754Y026624D01*
X021754Y026702D02*
X000778Y026702D01*
X000778Y026781D02*
X021754Y026781D01*
X021754Y026859D02*
X000778Y026859D01*
X000778Y026938D02*
X021754Y026938D01*
X021754Y027016D02*
X000778Y027016D01*
X000778Y027095D02*
X021754Y027095D01*
X021754Y027173D02*
X000778Y027173D01*
X000778Y027252D02*
X021754Y027252D01*
X021754Y027330D02*
X000778Y027330D01*
X000778Y027409D02*
X021754Y027409D01*
X021754Y027487D02*
X000778Y027487D01*
X000778Y027566D02*
X021754Y027566D01*
X021754Y027644D02*
X000778Y027644D01*
X000778Y027723D02*
X021754Y027723D01*
X021754Y027801D02*
X000778Y027801D01*
X000778Y027880D02*
X021754Y027880D01*
X021754Y027958D02*
X000778Y027958D01*
X000778Y028037D02*
X021754Y028037D01*
X021754Y028115D02*
X000778Y028115D01*
X000778Y028194D02*
X021754Y028194D01*
X021754Y028272D02*
X000778Y028272D01*
X000778Y028351D02*
X021754Y028351D01*
X021754Y028429D02*
X000778Y028429D01*
X000778Y028508D02*
X021754Y028508D01*
X021754Y028586D02*
X000778Y028586D01*
X000778Y028665D02*
X021754Y028665D01*
X021754Y028743D02*
X000778Y028743D01*
X000778Y028822D02*
X021754Y028822D01*
X021754Y028900D02*
X000778Y028900D01*
X000778Y028979D02*
X021754Y028979D01*
X021754Y029057D02*
X000778Y029057D01*
X000778Y029136D02*
X021754Y029136D01*
X021754Y029214D02*
X000778Y029214D01*
X000778Y029293D02*
X021754Y029293D01*
X021754Y029371D02*
X000778Y029371D01*
X000778Y029450D02*
X021754Y029450D01*
X021754Y029528D02*
X000778Y029528D01*
X000778Y029607D02*
X021754Y029607D01*
X021754Y029685D02*
X000778Y029685D01*
X000778Y029764D02*
X021754Y029764D01*
X021754Y029842D02*
X000778Y029842D01*
X000778Y029921D02*
X021754Y029921D01*
X021754Y029999D02*
X000778Y029999D01*
X000778Y030078D02*
X021754Y030078D01*
X021754Y030156D02*
X000778Y030156D01*
X000778Y030235D02*
X021754Y030235D01*
X021754Y030313D02*
X000778Y030313D01*
X000778Y030392D02*
X021754Y030392D01*
X021754Y030470D02*
X000778Y030470D01*
X000778Y030549D02*
X021754Y030549D01*
X021754Y030627D02*
X000778Y030627D01*
X000778Y030706D02*
X021754Y030706D01*
X021754Y030784D02*
X000778Y030784D01*
X000778Y030863D02*
X021754Y030863D01*
X021754Y030941D02*
X000778Y030941D01*
X000778Y031020D02*
X021754Y031020D01*
X021754Y031098D02*
X000778Y031098D01*
X000778Y031177D02*
X021754Y031177D01*
X021754Y031255D02*
X000778Y031255D01*
X000778Y031334D02*
X021754Y031334D01*
X021754Y031412D02*
X000778Y031412D01*
X000778Y031491D02*
X021754Y031491D01*
X021754Y031569D02*
X000778Y031569D01*
X000778Y031648D02*
X021754Y031648D01*
X021754Y031726D02*
X000778Y031726D01*
X000778Y031805D02*
X021754Y031805D01*
X021754Y031883D02*
X000778Y031883D01*
X000778Y031962D02*
X021754Y031962D01*
X021754Y032040D02*
X000778Y032040D01*
X000778Y032119D02*
X021754Y032119D01*
X021754Y032197D02*
X000778Y032197D01*
X000778Y032276D02*
X011098Y032276D01*
X011237Y032260D02*
X010717Y032318D01*
X010711Y032315D01*
X010689Y032321D01*
X010666Y032324D01*
X010662Y032329D01*
X008318Y033008D01*
X008299Y033008D01*
X008291Y033015D01*
X008280Y033018D01*
X008271Y033035D01*
X008258Y033049D01*
X008258Y033059D01*
X008252Y033069D01*
X008258Y033087D01*
X008258Y033669D01*
X008299Y033710D01*
X014231Y033710D01*
X014272Y033669D01*
X014272Y033087D01*
X014278Y033069D01*
X014272Y033059D01*
X014272Y033049D01*
X014259Y033035D01*
X014250Y033018D01*
X014239Y033015D01*
X014231Y033008D01*
X014212Y033008D01*
X011868Y032329D01*
X011864Y032324D01*
X011841Y032321D01*
X011819Y032315D01*
X011813Y032318D01*
X011293Y032260D01*
X011286Y032255D01*
X011265Y032257D01*
X011244Y032255D01*
X011237Y032260D01*
X011432Y032276D02*
X021754Y032276D01*
X021754Y032354D02*
X011955Y032354D01*
X012226Y032433D02*
X021754Y032433D01*
X021754Y032511D02*
X012498Y032511D01*
X012769Y032590D02*
X021754Y032590D01*
X021754Y032668D02*
X013040Y032668D01*
X013311Y032747D02*
X021754Y032747D01*
X021754Y032825D02*
X013582Y032825D01*
X013854Y032904D02*
X021754Y032904D01*
X021754Y032982D02*
X014125Y032982D01*
X014273Y033061D02*
X021754Y033061D01*
X021754Y033139D02*
X014272Y033139D01*
X014272Y033218D02*
X021754Y033218D01*
X021754Y033296D02*
X014272Y033296D01*
X014272Y033375D02*
X021754Y033375D01*
X021754Y033453D02*
X014272Y033453D01*
X014272Y033532D02*
X021754Y033532D01*
X021747Y033610D02*
X014272Y033610D01*
X014253Y033689D02*
X021723Y033689D01*
X021698Y033767D02*
X000834Y033767D01*
X000808Y033689D02*
X008277Y033689D01*
X008258Y033610D02*
X000784Y033610D01*
X000778Y033532D02*
X008258Y033532D01*
X008258Y033453D02*
X000778Y033453D01*
X000778Y033375D02*
X008258Y033375D01*
X008258Y033296D02*
X000778Y033296D01*
X000778Y033218D02*
X008258Y033218D01*
X008258Y033139D02*
X000778Y033139D01*
X000778Y033061D02*
X008257Y033061D01*
X008405Y032982D02*
X000778Y032982D01*
X000778Y032904D02*
X008676Y032904D01*
X008948Y032825D02*
X000778Y032825D01*
X000778Y032747D02*
X009219Y032747D01*
X009490Y032668D02*
X000778Y032668D01*
X000778Y032590D02*
X009761Y032590D01*
X010032Y032511D02*
X000778Y032511D01*
X000778Y032433D02*
X010304Y032433D01*
X010575Y032354D02*
X000778Y032354D01*
X000883Y033846D02*
X021649Y033846D01*
X021592Y033924D02*
X000940Y033924D01*
X001042Y034003D02*
X021489Y034003D01*
X021307Y034081D02*
X001225Y034081D01*
X005823Y022923D02*
X005765Y022865D01*
X005727Y022828D01*
X005727Y020390D01*
X005827Y020290D01*
X006484Y020290D01*
X006478Y020297D01*
X006478Y020483D01*
X006609Y020615D01*
X006715Y020615D01*
X006801Y020701D01*
X006603Y020701D01*
X006594Y020692D01*
X005882Y020692D01*
X005823Y020751D01*
X005823Y022269D01*
X005811Y022281D01*
X005793Y022313D01*
X005783Y022348D01*
X005783Y022426D01*
X005896Y022426D01*
X005896Y022426D01*
X005783Y022426D01*
X005783Y022503D01*
X005789Y022524D01*
X005783Y022545D01*
X005783Y022623D01*
X005896Y022623D01*
X005783Y022623D01*
X005783Y022700D01*
X005793Y022736D01*
X005811Y022768D01*
X005823Y022780D01*
X005823Y022923D01*
X005823Y022856D02*
X005755Y022856D01*
X005727Y022777D02*
X005820Y022777D01*
X005783Y022699D02*
X005727Y022699D01*
X005727Y022620D02*
X005783Y022620D01*
X005784Y022542D02*
X005727Y022542D01*
X005727Y022463D02*
X005783Y022463D01*
X005783Y022385D02*
X005727Y022385D01*
X005727Y022306D02*
X005796Y022306D01*
X005823Y022228D02*
X005727Y022228D01*
X005727Y022149D02*
X005823Y022149D01*
X005823Y022071D02*
X005727Y022071D01*
X005727Y021992D02*
X005823Y021992D01*
X005823Y021914D02*
X005727Y021914D01*
X005727Y021835D02*
X005823Y021835D01*
X005823Y021757D02*
X005727Y021757D01*
X005727Y021678D02*
X005823Y021678D01*
X005823Y021600D02*
X005727Y021600D01*
X005727Y021521D02*
X005823Y021521D01*
X005823Y021443D02*
X005727Y021443D01*
X005727Y021364D02*
X005823Y021364D01*
X005823Y021286D02*
X005727Y021286D01*
X005727Y021207D02*
X005823Y021207D01*
X005823Y021129D02*
X005727Y021129D01*
X005727Y021050D02*
X005823Y021050D01*
X005823Y020972D02*
X005727Y020972D01*
X005727Y020893D02*
X005823Y020893D01*
X005823Y020815D02*
X005727Y020815D01*
X005727Y020736D02*
X005838Y020736D01*
X005727Y020658D02*
X006758Y020658D01*
X006573Y020579D02*
X005727Y020579D01*
X005727Y020501D02*
X006495Y020501D01*
X006478Y020422D02*
X005727Y020422D01*
X005774Y020344D02*
X006478Y020344D01*
X007070Y019951D02*
X005540Y019951D01*
X005540Y019873D02*
X007040Y019873D01*
X007040Y019794D02*
X005540Y019794D01*
X005540Y019716D02*
X006960Y019716D01*
X006881Y019637D02*
X005540Y019637D01*
X005540Y019559D02*
X006853Y019559D01*
X006853Y019480D02*
X006743Y019480D01*
X006822Y019402D02*
X006873Y019402D01*
X006537Y019480D02*
X005540Y019480D01*
X005540Y019402D02*
X006458Y019402D01*
X006415Y019323D02*
X005540Y019323D01*
X005540Y019245D02*
X006407Y019245D01*
X006365Y019166D02*
X005540Y019166D01*
X005540Y019088D02*
X006365Y019088D01*
X006365Y019009D02*
X005540Y019009D01*
X005540Y018931D02*
X006365Y018931D01*
X006365Y018852D02*
X005540Y018852D01*
X005540Y018774D02*
X006365Y018774D01*
X006365Y018695D02*
X005540Y018695D01*
X005540Y018617D02*
X006365Y018617D01*
X006365Y018538D02*
X005540Y018538D01*
X005540Y018460D02*
X006365Y018460D01*
X006365Y018381D02*
X005540Y018381D01*
X005540Y018303D02*
X006365Y018303D01*
X006365Y018224D02*
X005540Y018224D01*
X005540Y018146D02*
X006365Y018146D01*
X006365Y018067D02*
X005540Y018067D01*
X005540Y017989D02*
X006365Y017989D01*
X006365Y017910D02*
X005540Y017910D01*
X005540Y017832D02*
X006365Y017832D01*
X006365Y017753D02*
X005540Y017753D01*
X005540Y017675D02*
X006365Y017675D01*
X006365Y017596D02*
X005540Y017596D01*
X005540Y017518D02*
X006365Y017518D01*
X006365Y017439D02*
X005540Y017439D01*
X005540Y017361D02*
X006365Y017361D01*
X006365Y017282D02*
X005540Y017282D01*
X005540Y017204D02*
X006365Y017204D01*
X006365Y017125D02*
X005540Y017125D01*
X005540Y017047D02*
X006365Y017047D01*
X006365Y016968D02*
X005540Y016968D01*
X005540Y016890D02*
X006365Y016890D01*
X006365Y016811D02*
X005540Y016811D01*
X005540Y016733D02*
X006365Y016733D01*
X006365Y016654D02*
X005540Y016654D01*
X005540Y016576D02*
X006365Y016576D01*
X006365Y016497D02*
X005540Y016497D01*
X005540Y016419D02*
X006365Y016419D01*
X006365Y016340D02*
X005540Y016340D01*
X005540Y016262D02*
X006365Y016262D01*
X006365Y016183D02*
X005540Y016183D01*
X005540Y016105D02*
X006365Y016105D01*
X006365Y016026D02*
X005540Y016026D01*
X005540Y015948D02*
X006365Y015948D01*
X006365Y015869D02*
X005540Y015869D01*
X005540Y015791D02*
X006365Y015791D01*
X006365Y015712D02*
X005540Y015712D01*
X005540Y015634D02*
X006365Y015634D01*
X006365Y015555D02*
X005540Y015555D01*
X005540Y015477D02*
X006365Y015477D01*
X006365Y015398D02*
X005540Y015398D01*
X005540Y015320D02*
X006365Y015320D01*
X006365Y015241D02*
X005540Y015241D01*
X005540Y015163D02*
X006365Y015163D01*
X006365Y015084D02*
X005540Y015084D01*
X005540Y015006D02*
X006365Y015006D01*
X006365Y014927D02*
X005540Y014927D01*
X005540Y014849D02*
X006365Y014849D01*
X006365Y014770D02*
X005540Y014770D01*
X005540Y014692D02*
X006365Y014692D01*
X006365Y014613D02*
X005540Y014613D01*
X005540Y014535D02*
X006365Y014535D01*
X006365Y014456D02*
X005540Y014456D01*
X005540Y014378D02*
X006365Y014378D01*
X006365Y014299D02*
X005540Y014299D01*
X005540Y014221D02*
X006365Y014221D01*
X006365Y014142D02*
X005540Y014142D01*
X005540Y014064D02*
X006365Y014064D01*
X006365Y013985D02*
X005540Y013985D01*
X005540Y013907D02*
X006365Y013907D01*
X006365Y013828D02*
X005540Y013828D01*
X005540Y013750D02*
X006365Y013750D01*
X006365Y013671D02*
X005540Y013671D01*
X005540Y013593D02*
X006365Y013593D01*
X006365Y013514D02*
X005540Y013514D01*
X005540Y013436D02*
X006365Y013436D01*
X006365Y013357D02*
X005540Y013357D01*
X005540Y013279D02*
X006365Y013279D01*
X006365Y013200D02*
X005540Y013200D01*
X005540Y013122D02*
X006365Y013122D01*
X006365Y013043D02*
X005540Y013043D01*
X005540Y012965D02*
X006365Y012965D01*
X006365Y012886D02*
X005540Y012886D01*
X005540Y012808D02*
X006365Y012808D01*
X006365Y012729D02*
X005540Y012729D01*
X005540Y012651D02*
X006365Y012651D01*
X006365Y012572D02*
X005540Y012572D01*
X005540Y012494D02*
X006365Y012494D01*
X006365Y012415D02*
X005540Y012415D01*
X005540Y012337D02*
X006365Y012337D01*
X006365Y012258D02*
X005540Y012258D01*
X005540Y012180D02*
X006365Y012180D01*
X006365Y012101D02*
X005540Y012101D01*
X005540Y012023D02*
X006365Y012023D01*
X006365Y011944D02*
X005540Y011944D01*
X005540Y011866D02*
X006365Y011866D01*
X006365Y011787D02*
X005540Y011787D01*
X005540Y011709D02*
X006365Y011709D01*
X006365Y011630D02*
X005540Y011630D01*
X005540Y011552D02*
X006365Y011552D01*
X006365Y011473D02*
X005540Y011473D01*
X005540Y011395D02*
X006365Y011395D01*
X006365Y011316D02*
X005540Y011316D01*
X005540Y011238D02*
X006365Y011238D01*
X006365Y011159D02*
X005540Y011159D01*
X005540Y011081D02*
X006365Y011081D01*
X006365Y011002D02*
X005540Y011002D01*
X005540Y010924D02*
X006365Y010924D01*
X006365Y010845D02*
X005540Y010845D01*
X005540Y010767D02*
X006365Y010767D01*
X006365Y010688D02*
X005540Y010688D01*
X005540Y010610D02*
X006365Y010610D01*
X006365Y010531D02*
X005540Y010531D01*
X005540Y010453D02*
X006365Y010453D01*
X006365Y010374D02*
X005540Y010374D01*
X005540Y010296D02*
X006365Y010296D01*
X006365Y010217D02*
X005540Y010217D01*
X005540Y010139D02*
X006365Y010139D01*
X006365Y010060D02*
X005540Y010060D01*
X005540Y009982D02*
X006365Y009982D01*
X006365Y009903D02*
X005540Y009903D01*
X005540Y009825D02*
X006365Y009825D01*
X006365Y009746D02*
X005540Y009746D01*
X005540Y009668D02*
X006365Y009668D01*
X006365Y009589D02*
X005540Y009589D01*
X005540Y009511D02*
X006365Y009511D01*
X006365Y009432D02*
X005540Y009432D01*
X005540Y009354D02*
X006365Y009354D01*
X006365Y009275D02*
X005540Y009275D01*
X005540Y009197D02*
X006365Y009197D01*
X006365Y009118D02*
X005540Y009118D01*
X005540Y009040D02*
X006365Y009040D01*
X006365Y008961D02*
X005540Y008961D01*
X005540Y008883D02*
X006365Y008883D01*
X006365Y008804D02*
X005540Y008804D01*
X005540Y008726D02*
X006365Y008726D01*
X006365Y008647D02*
X005540Y008647D01*
X005540Y008569D02*
X006365Y008569D01*
X006365Y008490D02*
X005540Y008490D01*
X005540Y008412D02*
X006365Y008412D01*
X006365Y008333D02*
X005540Y008333D01*
X005540Y008255D02*
X006365Y008255D01*
X006365Y008176D02*
X005540Y008176D01*
X005540Y008098D02*
X006365Y008098D01*
X006365Y008019D02*
X005540Y008019D01*
X005540Y007941D02*
X006365Y007941D01*
X006365Y007862D02*
X005540Y007862D01*
X005540Y007784D02*
X006365Y007784D01*
X006365Y007705D02*
X005540Y007705D01*
X005540Y007627D02*
X006365Y007627D01*
X006365Y007548D02*
X005540Y007548D01*
X005540Y007470D02*
X006365Y007470D01*
X006365Y007391D02*
X005540Y007391D01*
X005540Y007313D02*
X006365Y007313D01*
X006365Y007234D02*
X005540Y007234D01*
X005540Y007156D02*
X006365Y007156D01*
X006365Y007077D02*
X005540Y007077D01*
X005540Y006999D02*
X006365Y006999D01*
X006365Y006920D02*
X005540Y006920D01*
X005540Y006842D02*
X006365Y006842D01*
X006365Y006763D02*
X005540Y006763D01*
X005540Y006685D02*
X006365Y006685D01*
X006365Y006606D02*
X005540Y006606D01*
X005540Y006528D02*
X006365Y006528D01*
X006365Y006449D02*
X005540Y006449D01*
X005540Y006371D02*
X006365Y006371D01*
X006365Y006292D02*
X005540Y006292D01*
X005540Y006214D02*
X006365Y006214D01*
X006365Y006135D02*
X005540Y006135D01*
X005540Y006057D02*
X006365Y006057D01*
X006365Y005978D02*
X005540Y005978D01*
X005540Y005900D02*
X006365Y005900D01*
X006365Y005821D02*
X005540Y005821D01*
X005540Y005743D02*
X006365Y005743D01*
X006365Y005664D02*
X005540Y005664D01*
X005540Y005586D02*
X006365Y005586D01*
X006365Y005507D02*
X005540Y005507D01*
X005540Y005429D02*
X006365Y005429D01*
X006365Y005350D02*
X005540Y005350D01*
X005540Y005272D02*
X006365Y005272D01*
X006365Y005193D02*
X005540Y005193D01*
X005540Y005115D02*
X006365Y005115D01*
X006365Y005036D02*
X005540Y005036D01*
X005540Y004958D02*
X006365Y004958D01*
X006365Y004879D02*
X005540Y004879D01*
X005540Y004801D02*
X006365Y004801D01*
X006365Y004722D02*
X005540Y004722D01*
X005540Y004644D02*
X006365Y004644D01*
X006365Y004565D02*
X005540Y004565D01*
X005540Y004487D02*
X006365Y004487D01*
X006365Y004408D02*
X005540Y004408D01*
X005540Y004330D02*
X006365Y004330D01*
X006365Y004251D02*
X005540Y004251D01*
X005540Y004173D02*
X006365Y004173D01*
X006365Y004094D02*
X005586Y004094D01*
X005664Y004016D02*
X006365Y004016D01*
X006365Y003937D02*
X005743Y003937D01*
X005821Y003859D02*
X006365Y003859D01*
X006365Y003780D02*
X005900Y003780D01*
X005978Y003702D02*
X006365Y003702D01*
X006365Y003623D02*
X006163Y003623D01*
X006240Y003545D02*
X006290Y003545D01*
X006290Y003466D02*
X006240Y003466D01*
X006240Y003388D02*
X006290Y003388D01*
X006340Y003309D02*
X006190Y003309D01*
X006111Y003231D02*
X006419Y003231D01*
X006611Y003231D02*
X006919Y003231D01*
X006840Y003309D02*
X006690Y003309D01*
X006740Y003388D02*
X006790Y003388D01*
X006790Y003466D02*
X006740Y003466D01*
X006740Y003545D02*
X006790Y003545D01*
X006865Y003623D02*
X006665Y003623D01*
X006665Y003702D02*
X006804Y003702D01*
X006725Y003780D02*
X006665Y003780D01*
X007111Y003231D02*
X007419Y003231D01*
X007340Y003309D02*
X007190Y003309D01*
X007240Y003388D02*
X007290Y003388D01*
X007290Y003466D02*
X007240Y003466D01*
X007240Y003545D02*
X007273Y003545D01*
X007195Y003623D02*
X007165Y003623D01*
X007740Y003545D02*
X007790Y003545D01*
X007790Y003466D02*
X007740Y003466D01*
X007740Y003388D02*
X007790Y003388D01*
X007840Y003309D02*
X007690Y003309D01*
X007611Y003231D02*
X007919Y003231D01*
X008111Y003231D02*
X008419Y003231D01*
X008340Y003309D02*
X008190Y003309D01*
X008240Y003388D02*
X008290Y003388D01*
X008290Y003466D02*
X008240Y003466D01*
X008240Y003545D02*
X008290Y003545D01*
X008365Y003623D02*
X008165Y003623D01*
X008103Y003702D02*
X008304Y003702D01*
X008225Y003780D02*
X008025Y003780D01*
X008493Y003937D02*
X008693Y003937D01*
X008772Y003859D02*
X008571Y003859D01*
X008650Y003780D02*
X008850Y003780D01*
X008865Y003702D02*
X008665Y003702D01*
X008665Y003623D02*
X008865Y003623D01*
X008790Y003545D02*
X008740Y003545D01*
X008740Y003466D02*
X008790Y003466D01*
X008790Y003388D02*
X008740Y003388D01*
X008690Y003309D02*
X008840Y003309D01*
X008919Y003231D02*
X008611Y003231D01*
X009111Y003231D02*
X009419Y003231D01*
X009340Y003309D02*
X009190Y003309D01*
X009240Y003388D02*
X009290Y003388D01*
X009290Y003466D02*
X009240Y003466D01*
X009240Y003545D02*
X009290Y003545D01*
X009365Y003623D02*
X009165Y003623D01*
X009165Y003702D02*
X009365Y003702D01*
X009380Y003780D02*
X009165Y003780D01*
X009165Y003859D02*
X009459Y003859D01*
X009537Y003937D02*
X009118Y003937D01*
X009039Y004016D02*
X009616Y004016D01*
X009694Y004094D02*
X008961Y004094D01*
X008882Y004173D02*
X010398Y004173D01*
X010476Y004251D02*
X008804Y004251D01*
X009665Y003623D02*
X009867Y003623D01*
X009790Y003545D02*
X009740Y003545D01*
X009740Y003466D02*
X009790Y003466D01*
X009790Y003388D02*
X009740Y003388D01*
X009690Y003309D02*
X009840Y003309D01*
X009919Y003231D02*
X009611Y003231D01*
X009726Y003702D02*
X009989Y003702D01*
X010068Y003780D02*
X009805Y003780D01*
X009883Y003859D02*
X010146Y003859D01*
X010335Y003623D02*
X010367Y003623D01*
X010290Y003545D02*
X010257Y003545D01*
X010240Y003466D02*
X010290Y003466D01*
X010290Y003388D02*
X010240Y003388D01*
X010190Y003309D02*
X010340Y003309D01*
X010419Y003231D02*
X010111Y003231D01*
X010611Y003231D02*
X010919Y003231D01*
X010840Y003309D02*
X010690Y003309D01*
X010740Y003388D02*
X010790Y003388D01*
X010790Y003466D02*
X010741Y003466D01*
X011111Y003231D02*
X011419Y003231D01*
X011340Y003309D02*
X011190Y003309D01*
X011240Y003388D02*
X011290Y003388D01*
X011290Y003466D02*
X011240Y003466D01*
X011240Y003545D02*
X011290Y003545D01*
X011365Y003623D02*
X011210Y003623D01*
X011289Y003702D02*
X011365Y003702D01*
X011665Y003702D02*
X012365Y003702D01*
X012365Y003780D02*
X011665Y003780D01*
X011665Y003859D02*
X012365Y003859D01*
X012365Y003937D02*
X011665Y003937D01*
X011665Y004016D02*
X012365Y004016D01*
X012365Y004094D02*
X011665Y004094D01*
X011665Y004173D02*
X012365Y004173D01*
X012365Y004251D02*
X011665Y004251D01*
X011665Y004330D02*
X012365Y004330D01*
X012365Y004408D02*
X011665Y004408D01*
X011665Y004487D02*
X012365Y004487D01*
X012365Y004565D02*
X011665Y004565D01*
X011665Y004644D02*
X012365Y004644D01*
X012365Y004722D02*
X011665Y004722D01*
X011665Y004801D02*
X012365Y004801D01*
X012365Y004879D02*
X011665Y004879D01*
X011665Y004958D02*
X012365Y004958D01*
X012365Y005036D02*
X011665Y005036D01*
X011665Y005115D02*
X012365Y005115D01*
X012365Y005193D02*
X011665Y005193D01*
X011665Y005272D02*
X012365Y005272D01*
X012365Y005350D02*
X011665Y005350D01*
X011665Y005429D02*
X012365Y005429D01*
X012365Y005507D02*
X011665Y005507D01*
X011665Y005586D02*
X012365Y005586D01*
X012365Y005664D02*
X011665Y005664D01*
X011665Y005743D02*
X012365Y005743D01*
X012365Y005821D02*
X011665Y005821D01*
X011665Y005900D02*
X012365Y005900D01*
X012365Y005978D02*
X011665Y005978D01*
X011665Y006057D02*
X012365Y006057D01*
X012365Y006135D02*
X011665Y006135D01*
X011665Y006214D02*
X012365Y006214D01*
X012365Y006292D02*
X011665Y006292D01*
X011665Y006371D02*
X012365Y006371D01*
X012365Y006449D02*
X011665Y006449D01*
X011665Y006528D02*
X012365Y006528D01*
X012365Y006606D02*
X011665Y006606D01*
X011665Y006685D02*
X012365Y006685D01*
X012365Y006763D02*
X011665Y006763D01*
X011665Y006842D02*
X012365Y006842D01*
X012365Y006920D02*
X011665Y006920D01*
X011665Y006999D02*
X012365Y006999D01*
X012365Y007077D02*
X011665Y007077D01*
X011665Y007156D02*
X012365Y007156D01*
X012365Y007234D02*
X011665Y007234D01*
X011665Y007313D02*
X012365Y007313D01*
X012365Y007391D02*
X011665Y007391D01*
X011665Y007470D02*
X012365Y007470D01*
X012365Y007548D02*
X011665Y007548D01*
X011665Y007627D02*
X012365Y007627D01*
X012365Y007705D02*
X011665Y007705D01*
X011665Y007784D02*
X012365Y007784D01*
X012365Y007862D02*
X011665Y007862D01*
X011665Y007941D02*
X012365Y007941D01*
X012365Y008019D02*
X011665Y008019D01*
X011665Y008098D02*
X012365Y008098D01*
X012365Y008176D02*
X011665Y008176D01*
X011665Y008255D02*
X012365Y008255D01*
X012365Y008333D02*
X011665Y008333D01*
X011665Y008412D02*
X012365Y008412D01*
X012365Y008490D02*
X011665Y008490D01*
X011665Y008569D02*
X012365Y008569D01*
X012365Y008647D02*
X011665Y008647D01*
X011665Y008726D02*
X012365Y008726D01*
X012365Y008804D02*
X011665Y008804D01*
X011665Y008883D02*
X012365Y008883D01*
X012365Y008961D02*
X011665Y008961D01*
X011665Y009040D02*
X012365Y009040D01*
X012365Y009118D02*
X011665Y009118D01*
X011665Y009197D02*
X012365Y009197D01*
X012365Y009275D02*
X011665Y009275D01*
X011665Y009354D02*
X012365Y009354D01*
X012365Y009432D02*
X011665Y009432D01*
X011665Y009511D02*
X012365Y009511D01*
X012365Y009589D02*
X011665Y009589D01*
X011665Y009668D02*
X012365Y009668D01*
X012365Y009746D02*
X011665Y009746D01*
X011665Y009825D02*
X012365Y009825D01*
X012365Y009903D02*
X011665Y009903D01*
X011665Y009982D02*
X012365Y009982D01*
X012365Y010060D02*
X011665Y010060D01*
X011665Y010139D02*
X012365Y010139D01*
X012365Y010217D02*
X011665Y010217D01*
X011665Y010296D02*
X012365Y010296D01*
X012365Y010374D02*
X011665Y010374D01*
X011665Y010453D02*
X012365Y010453D01*
X012365Y010531D02*
X011665Y010531D01*
X011665Y010610D02*
X012365Y010610D01*
X012365Y010688D02*
X011665Y010688D01*
X011665Y010767D02*
X012365Y010767D01*
X012365Y010845D02*
X011665Y010845D01*
X011665Y010924D02*
X012365Y010924D01*
X012365Y011002D02*
X011665Y011002D01*
X011665Y011081D02*
X012365Y011081D01*
X012365Y011159D02*
X011665Y011159D01*
X011665Y011238D02*
X012365Y011238D01*
X012365Y011316D02*
X011665Y011316D01*
X011665Y011395D02*
X012365Y011395D01*
X012365Y011473D02*
X011665Y011473D01*
X011665Y011552D02*
X012365Y011552D01*
X012365Y011630D02*
X011665Y011630D01*
X011665Y011709D02*
X012365Y011709D01*
X012365Y011787D02*
X011665Y011787D01*
X011665Y011866D02*
X012365Y011866D01*
X012365Y011944D02*
X011665Y011944D01*
X011665Y012023D02*
X012365Y012023D01*
X012365Y012101D02*
X011665Y012101D01*
X011665Y012180D02*
X012365Y012180D01*
X012365Y012258D02*
X011665Y012258D01*
X011665Y012337D02*
X012365Y012337D01*
X012365Y012415D02*
X011665Y012415D01*
X011665Y012494D02*
X012365Y012494D01*
X012365Y012572D02*
X011665Y012572D01*
X011665Y012651D02*
X012365Y012651D01*
X012365Y012729D02*
X011665Y012729D01*
X011665Y012808D02*
X012365Y012808D01*
X012365Y012886D02*
X011665Y012886D01*
X011665Y012965D02*
X012365Y012965D01*
X012365Y013043D02*
X011665Y013043D01*
X011665Y013122D02*
X012365Y013122D01*
X012365Y013200D02*
X011665Y013200D01*
X011665Y013279D02*
X012365Y013279D01*
X012365Y013357D02*
X011665Y013357D01*
X011665Y013436D02*
X012365Y013436D01*
X012365Y013514D02*
X011665Y013514D01*
X011665Y013593D02*
X012365Y013593D01*
X012365Y013671D02*
X011665Y013671D01*
X011665Y013750D02*
X012365Y013750D01*
X012365Y013828D02*
X011665Y013828D01*
X011665Y013907D02*
X012365Y013907D01*
X012365Y013985D02*
X011665Y013985D01*
X011665Y014064D02*
X012365Y014064D01*
X012365Y014142D02*
X011665Y014142D01*
X011665Y014221D02*
X012365Y014221D01*
X012365Y014299D02*
X011665Y014299D01*
X011665Y014378D02*
X012365Y014378D01*
X012365Y014456D02*
X011665Y014456D01*
X011665Y014535D02*
X012365Y014535D01*
X012365Y014613D02*
X011665Y014613D01*
X011665Y014692D02*
X012365Y014692D01*
X012365Y014770D02*
X011665Y014770D01*
X011665Y014849D02*
X012365Y014849D01*
X012365Y014927D02*
X011665Y014927D01*
X011665Y015006D02*
X012365Y015006D01*
X012365Y015084D02*
X011665Y015084D01*
X011665Y015163D02*
X012365Y015163D01*
X012365Y015241D02*
X011665Y015241D01*
X011665Y015320D02*
X012365Y015320D01*
X012365Y015398D02*
X011665Y015398D01*
X011665Y015477D02*
X012365Y015477D01*
X012365Y015555D02*
X011665Y015555D01*
X011665Y015634D02*
X012365Y015634D01*
X012365Y015712D02*
X011665Y015712D01*
X011665Y015791D02*
X012365Y015791D01*
X012365Y015869D02*
X011665Y015869D01*
X011665Y015948D02*
X012365Y015948D01*
X012365Y016026D02*
X011665Y016026D01*
X011665Y016105D02*
X012365Y016105D01*
X012365Y016183D02*
X011665Y016183D01*
X011665Y016262D02*
X012365Y016262D01*
X012365Y016340D02*
X011665Y016340D01*
X011665Y016419D02*
X012365Y016419D01*
X012365Y016497D02*
X011665Y016497D01*
X011665Y016576D02*
X012365Y016576D01*
X012365Y016654D02*
X011665Y016654D01*
X011665Y016733D02*
X012365Y016733D01*
X012365Y016811D02*
X011665Y016811D01*
X011665Y016890D02*
X012365Y016890D01*
X012365Y016968D02*
X011665Y016968D01*
X011665Y017047D02*
X012365Y017047D01*
X012365Y017125D02*
X011665Y017125D01*
X011665Y017204D02*
X012365Y017204D01*
X012365Y017282D02*
X011665Y017282D01*
X011665Y017361D02*
X012365Y017361D01*
X012365Y017439D02*
X011665Y017439D01*
X011665Y017518D02*
X012365Y017518D01*
X012365Y017596D02*
X011665Y017596D01*
X011665Y017675D02*
X012365Y017675D01*
X012365Y017753D02*
X011665Y017753D01*
X011665Y017832D02*
X012365Y017832D01*
X012365Y017910D02*
X011665Y017910D01*
X011994Y017989D02*
X012365Y017989D01*
X012365Y018067D02*
X012342Y018067D01*
X011365Y018565D02*
X011302Y018627D01*
X011302Y018733D01*
X011171Y018865D01*
X011052Y018865D01*
X011052Y018903D01*
X011290Y019140D01*
X011290Y021515D01*
X011202Y021602D01*
X010622Y022182D01*
X009851Y022182D01*
X009851Y022229D01*
X009474Y022229D01*
X009098Y022229D01*
X009098Y022182D01*
X008762Y022182D01*
X008762Y022229D01*
X008387Y022229D01*
X008387Y022229D01*
X008387Y022190D01*
X008387Y022190D01*
X008387Y022229D01*
X008012Y022229D01*
X008012Y022182D01*
X006894Y022182D01*
X007202Y022490D01*
X007640Y022490D01*
X007854Y022276D01*
X008012Y022276D01*
X008012Y022229D01*
X008387Y022229D01*
X008387Y022229D01*
X008387Y022229D01*
X008387Y022268D01*
X008387Y022268D01*
X008387Y022229D01*
X008387Y022229D01*
X008762Y022229D01*
X008762Y022276D01*
X009098Y022276D01*
X009098Y022229D01*
X009474Y022229D01*
X009474Y022229D01*
X009474Y022229D01*
X009474Y022193D01*
X009474Y022193D01*
X009474Y022229D01*
X009474Y022265D01*
X009474Y022265D01*
X009474Y022229D01*
X009474Y022229D01*
X009474Y022229D01*
X009851Y022229D01*
X009851Y022276D01*
X011167Y022276D01*
X011365Y022078D01*
X011365Y018565D01*
X011365Y018617D02*
X011313Y018617D01*
X011302Y018695D02*
X011365Y018695D01*
X011365Y018774D02*
X011262Y018774D01*
X011184Y018852D02*
X011365Y018852D01*
X011365Y018931D02*
X011080Y018931D01*
X011159Y019009D02*
X011365Y019009D01*
X011365Y019088D02*
X011237Y019088D01*
X011290Y019166D02*
X011365Y019166D01*
X011365Y019245D02*
X011290Y019245D01*
X011290Y019323D02*
X011365Y019323D01*
X011365Y019402D02*
X011290Y019402D01*
X011290Y019480D02*
X011365Y019480D01*
X011365Y019559D02*
X011290Y019559D01*
X011290Y019637D02*
X011365Y019637D01*
X011365Y019716D02*
X011290Y019716D01*
X011290Y019794D02*
X011365Y019794D01*
X011365Y019873D02*
X011290Y019873D01*
X011290Y019951D02*
X011365Y019951D01*
X011365Y020030D02*
X011290Y020030D01*
X011290Y020108D02*
X011365Y020108D01*
X011365Y020187D02*
X011290Y020187D01*
X011290Y020265D02*
X011365Y020265D01*
X011365Y020344D02*
X011290Y020344D01*
X011290Y020422D02*
X011365Y020422D01*
X011365Y020501D02*
X011290Y020501D01*
X011290Y020579D02*
X011365Y020579D01*
X011365Y020658D02*
X011290Y020658D01*
X011290Y020736D02*
X011365Y020736D01*
X011365Y020815D02*
X011290Y020815D01*
X011290Y020893D02*
X011365Y020893D01*
X011365Y020972D02*
X011290Y020972D01*
X011290Y021050D02*
X011365Y021050D01*
X011365Y021129D02*
X011290Y021129D01*
X011290Y021207D02*
X011365Y021207D01*
X011365Y021286D02*
X011290Y021286D01*
X011290Y021364D02*
X011365Y021364D01*
X011365Y021443D02*
X011290Y021443D01*
X011284Y021521D02*
X011365Y021521D01*
X011365Y021600D02*
X011205Y021600D01*
X011127Y021678D02*
X011365Y021678D01*
X011365Y021757D02*
X011048Y021757D01*
X010970Y021835D02*
X011365Y021835D01*
X011365Y021914D02*
X010891Y021914D01*
X010813Y021992D02*
X011365Y021992D01*
X011365Y022071D02*
X010734Y022071D01*
X010656Y022149D02*
X011294Y022149D01*
X011215Y022228D02*
X009851Y022228D01*
X009474Y022228D02*
X009474Y022228D01*
X009098Y022228D02*
X008762Y022228D01*
X008387Y022228D02*
X008387Y022228D01*
X008012Y022228D02*
X006940Y022228D01*
X007018Y022306D02*
X007824Y022306D01*
X007746Y022385D02*
X007097Y022385D01*
X007175Y022463D02*
X007667Y022463D01*
X007483Y020658D02*
X009365Y020658D01*
X009365Y020579D02*
X007581Y020579D01*
X007679Y020501D02*
X009307Y020501D01*
X009290Y020422D02*
X007778Y020422D01*
X007876Y020344D02*
X009290Y020344D01*
X009322Y020265D02*
X007977Y020265D01*
X008040Y020187D02*
X009400Y020187D01*
X009478Y020108D02*
X008044Y020108D01*
X008040Y020030D02*
X009495Y020030D01*
X009573Y019951D02*
X008040Y019951D01*
X008040Y019873D02*
X009665Y019873D01*
X009668Y019794D02*
X008040Y019794D01*
X008040Y019716D02*
X009746Y019716D01*
X009853Y019637D02*
X008040Y019637D01*
X008040Y019559D02*
X009853Y019559D01*
X009919Y019480D02*
X008040Y019480D01*
X008040Y019402D02*
X010103Y019402D01*
X010103Y019323D02*
X008040Y019323D01*
X008040Y019245D02*
X010155Y019245D01*
X010233Y019166D02*
X008040Y019166D01*
X008040Y019088D02*
X010353Y019088D01*
X010390Y019009D02*
X007971Y019009D01*
X007893Y018931D02*
X010469Y018931D01*
X010603Y018852D02*
X007814Y018852D01*
X007736Y018774D02*
X010626Y018774D01*
X010704Y018695D02*
X007657Y018695D01*
X007602Y018617D02*
X010853Y018617D01*
X010657Y018538D02*
X007602Y018538D01*
X007602Y018460D02*
X010603Y018460D01*
X010603Y018381D02*
X007602Y018381D01*
X007602Y018303D02*
X010422Y018303D01*
X010353Y018224D02*
X007602Y018224D01*
X007602Y018146D02*
X010353Y018146D01*
X010124Y018067D02*
X007602Y018067D01*
X007602Y017989D02*
X010045Y017989D01*
X010040Y017910D02*
X007602Y017910D01*
X007602Y017832D02*
X010040Y017832D01*
X010084Y017753D02*
X007602Y017753D01*
X007602Y017675D02*
X010162Y017675D01*
X010368Y017675D02*
X010581Y017675D01*
X010615Y017596D02*
X007602Y017596D01*
X007602Y017518D02*
X010615Y017518D01*
X010615Y017439D02*
X007602Y017439D01*
X007602Y017361D02*
X010615Y017361D01*
X010615Y017282D02*
X007602Y017282D01*
X007602Y017204D02*
X010615Y017204D01*
X010615Y017125D02*
X007602Y017125D01*
X007602Y017047D02*
X010615Y017047D01*
X010615Y016968D02*
X007602Y016968D01*
X007602Y016890D02*
X010615Y016890D01*
X010615Y016811D02*
X007602Y016811D01*
X007602Y016733D02*
X010615Y016733D01*
X010615Y016654D02*
X007602Y016654D01*
X007602Y016576D02*
X010615Y016576D01*
X010615Y016497D02*
X007602Y016497D01*
X007602Y016419D02*
X010615Y016419D01*
X010615Y016340D02*
X007602Y016340D01*
X007602Y016262D02*
X010615Y016262D01*
X010615Y016183D02*
X007602Y016183D01*
X007602Y016105D02*
X010615Y016105D01*
X010615Y016026D02*
X007602Y016026D01*
X007602Y015948D02*
X010615Y015948D01*
X010615Y015869D02*
X007602Y015869D01*
X007602Y015791D02*
X010615Y015791D01*
X010615Y015712D02*
X007602Y015712D01*
X007602Y015634D02*
X010615Y015634D01*
X010615Y015555D02*
X007602Y015555D01*
X007602Y015477D02*
X010615Y015477D01*
X010615Y015398D02*
X007602Y015398D01*
X007602Y015320D02*
X010615Y015320D01*
X010615Y015241D02*
X007602Y015241D01*
X007602Y015163D02*
X010615Y015163D01*
X010615Y015084D02*
X007602Y015084D01*
X007602Y015006D02*
X010615Y015006D01*
X010615Y014927D02*
X007602Y014927D01*
X007602Y014849D02*
X010615Y014849D01*
X010615Y014770D02*
X007602Y014770D01*
X007602Y014692D02*
X010615Y014692D01*
X010615Y014613D02*
X007602Y014613D01*
X007602Y014535D02*
X010615Y014535D01*
X010615Y014456D02*
X007602Y014456D01*
X007602Y014378D02*
X010615Y014378D01*
X010615Y014299D02*
X007602Y014299D01*
X007602Y014221D02*
X010615Y014221D01*
X010615Y014142D02*
X007602Y014142D01*
X007602Y014064D02*
X010615Y014064D01*
X010615Y013985D02*
X007602Y013985D01*
X007602Y013907D02*
X010615Y013907D01*
X010615Y013828D02*
X007602Y013828D01*
X007602Y013750D02*
X010615Y013750D01*
X010615Y013671D02*
X007602Y013671D01*
X007602Y013593D02*
X010615Y013593D01*
X010615Y013514D02*
X007602Y013514D01*
X007602Y013436D02*
X010615Y013436D01*
X010615Y013357D02*
X007602Y013357D01*
X007602Y013279D02*
X010615Y013279D01*
X010615Y013200D02*
X007602Y013200D01*
X007602Y013122D02*
X010615Y013122D01*
X010615Y013043D02*
X007602Y013043D01*
X007602Y012965D02*
X010615Y012965D01*
X010615Y012886D02*
X007602Y012886D01*
X007602Y012808D02*
X010615Y012808D01*
X010615Y012729D02*
X007602Y012729D01*
X007602Y012651D02*
X010615Y012651D01*
X010615Y012572D02*
X007602Y012572D01*
X007602Y012494D02*
X010615Y012494D01*
X010615Y012415D02*
X007602Y012415D01*
X007602Y012337D02*
X010615Y012337D01*
X010615Y012258D02*
X007602Y012258D01*
X007602Y012180D02*
X010615Y012180D01*
X010615Y012101D02*
X007602Y012101D01*
X007602Y012023D02*
X010615Y012023D01*
X010615Y011944D02*
X007602Y011944D01*
X007602Y011866D02*
X010615Y011866D01*
X010615Y011787D02*
X007602Y011787D01*
X007602Y011709D02*
X010615Y011709D01*
X010615Y011630D02*
X007602Y011630D01*
X007602Y011552D02*
X010615Y011552D01*
X010615Y011473D02*
X007602Y011473D01*
X007602Y011395D02*
X010615Y011395D01*
X010615Y011316D02*
X007602Y011316D01*
X007602Y011238D02*
X010615Y011238D01*
X010615Y011159D02*
X007602Y011159D01*
X007602Y011081D02*
X010615Y011081D01*
X010615Y011002D02*
X007602Y011002D01*
X007602Y010924D02*
X010615Y010924D01*
X010615Y010845D02*
X007602Y010845D01*
X007602Y010767D02*
X010615Y010767D01*
X010615Y010688D02*
X007602Y010688D01*
X007602Y010610D02*
X010615Y010610D01*
X010615Y010531D02*
X007602Y010531D01*
X007602Y010453D02*
X010615Y010453D01*
X010615Y010374D02*
X007602Y010374D01*
X007602Y010296D02*
X010615Y010296D01*
X010615Y010217D02*
X007602Y010217D01*
X007602Y010139D02*
X010615Y010139D01*
X010615Y010060D02*
X007602Y010060D01*
X007602Y009982D02*
X010615Y009982D01*
X010615Y009903D02*
X007602Y009903D01*
X007602Y009825D02*
X010615Y009825D01*
X010615Y009746D02*
X007602Y009746D01*
X007602Y009668D02*
X010615Y009668D01*
X010615Y009589D02*
X007602Y009589D01*
X007602Y009511D02*
X010615Y009511D01*
X010615Y009432D02*
X007602Y009432D01*
X007602Y009354D02*
X010615Y009354D01*
X010615Y009275D02*
X007602Y009275D01*
X007602Y009197D02*
X010615Y009197D01*
X010615Y009118D02*
X007602Y009118D01*
X007602Y009040D02*
X010615Y009040D01*
X010615Y008961D02*
X007602Y008961D01*
X007602Y008883D02*
X010615Y008883D01*
X010615Y008804D02*
X007602Y008804D01*
X007602Y008726D02*
X010615Y008726D01*
X010615Y008647D02*
X007602Y008647D01*
X007602Y008569D02*
X010615Y008569D01*
X010615Y008490D02*
X007602Y008490D01*
X007602Y008412D02*
X010615Y008412D01*
X010615Y008333D02*
X007602Y008333D01*
X007602Y008255D02*
X010615Y008255D01*
X010615Y008176D02*
X007602Y008176D01*
X007602Y008098D02*
X010615Y008098D01*
X010615Y008019D02*
X007602Y008019D01*
X007602Y007941D02*
X010615Y007941D01*
X010615Y007862D02*
X007602Y007862D01*
X007602Y007784D02*
X010615Y007784D01*
X010615Y007705D02*
X007602Y007705D01*
X007602Y007627D02*
X010615Y007627D01*
X010615Y007548D02*
X007602Y007548D01*
X007602Y007470D02*
X010615Y007470D01*
X010615Y007391D02*
X007602Y007391D01*
X007602Y007313D02*
X010615Y007313D01*
X010615Y007234D02*
X007602Y007234D01*
X007602Y007156D02*
X010615Y007156D01*
X010615Y007077D02*
X007602Y007077D01*
X007602Y006999D02*
X010615Y006999D01*
X010615Y006920D02*
X007602Y006920D01*
X007602Y006842D02*
X010615Y006842D01*
X010615Y006763D02*
X007602Y006763D01*
X007602Y006685D02*
X010615Y006685D01*
X010615Y006606D02*
X007602Y006606D01*
X007602Y006528D02*
X010615Y006528D01*
X010615Y006449D02*
X007602Y006449D01*
X007602Y006371D02*
X010615Y006371D01*
X010615Y006292D02*
X007602Y006292D01*
X007602Y006214D02*
X010615Y006214D01*
X010615Y006135D02*
X007602Y006135D01*
X007602Y006057D02*
X010615Y006057D01*
X010615Y005978D02*
X007602Y005978D01*
X007602Y005900D02*
X010615Y005900D01*
X010615Y005821D02*
X007602Y005821D01*
X007602Y005743D02*
X010615Y005743D01*
X010615Y005664D02*
X007602Y005664D01*
X007602Y005586D02*
X010615Y005586D01*
X010615Y005507D02*
X007602Y005507D01*
X007602Y005429D02*
X010615Y005429D01*
X010615Y005350D02*
X007602Y005350D01*
X007602Y005272D02*
X010615Y005272D01*
X010615Y005193D02*
X007602Y005193D01*
X007602Y005115D02*
X010615Y005115D01*
X010615Y005036D02*
X007602Y005036D01*
X007602Y004958D02*
X010615Y004958D01*
X010615Y004879D02*
X007602Y004879D01*
X007602Y004801D02*
X010615Y004801D01*
X010615Y004722D02*
X007602Y004722D01*
X007602Y004644D02*
X010615Y004644D01*
X010615Y004565D02*
X007602Y004565D01*
X007602Y004487D02*
X010615Y004487D01*
X010615Y004408D02*
X007647Y004408D01*
X007725Y004330D02*
X010555Y004330D01*
X011665Y003623D02*
X012365Y003623D01*
X012290Y003545D02*
X011740Y003545D01*
X011740Y003466D02*
X012290Y003466D01*
X012290Y003388D02*
X011740Y003388D01*
X011690Y003309D02*
X012340Y003309D01*
X012419Y003231D02*
X011611Y003231D01*
X012611Y003231D02*
X012919Y003231D01*
X012840Y003309D02*
X012690Y003309D01*
X012740Y003388D02*
X012790Y003388D01*
X012790Y003466D02*
X012740Y003466D01*
X012740Y003545D02*
X012790Y003545D01*
X012865Y003623D02*
X012665Y003623D01*
X012665Y003702D02*
X012865Y003702D01*
X012865Y003780D02*
X012665Y003780D01*
X012665Y003859D02*
X012865Y003859D01*
X012865Y003937D02*
X012665Y003937D01*
X012665Y004016D02*
X012865Y004016D01*
X012786Y004094D02*
X012665Y004094D01*
X012665Y004173D02*
X012708Y004173D01*
X013165Y004016D02*
X013177Y004016D01*
X013165Y003937D02*
X013256Y003937D01*
X013334Y003859D02*
X013165Y003859D01*
X013165Y003780D02*
X013365Y003780D01*
X013365Y003702D02*
X013165Y003702D01*
X013165Y003623D02*
X013365Y003623D01*
X013290Y003545D02*
X013240Y003545D01*
X013240Y003466D02*
X013290Y003466D01*
X013290Y003388D02*
X013240Y003388D01*
X013190Y003309D02*
X013340Y003309D01*
X013419Y003231D02*
X013111Y003231D01*
X013611Y003231D02*
X013919Y003231D01*
X013840Y003309D02*
X013690Y003309D01*
X013740Y003388D02*
X013790Y003388D01*
X013790Y003466D02*
X013740Y003466D01*
X013740Y003545D02*
X013790Y003545D01*
X013865Y003623D02*
X013665Y003623D01*
X013665Y003702D02*
X013804Y003702D01*
X013725Y003780D02*
X013665Y003780D01*
X014165Y003702D02*
X014365Y003702D01*
X014365Y003623D02*
X014165Y003623D01*
X014240Y003545D02*
X014290Y003545D01*
X014290Y003466D02*
X014240Y003466D01*
X014240Y003388D02*
X014290Y003388D01*
X014340Y003309D02*
X014190Y003309D01*
X014111Y003231D02*
X014419Y003231D01*
X014611Y003231D02*
X014919Y003231D01*
X014840Y003309D02*
X014690Y003309D01*
X014740Y003388D02*
X014790Y003388D01*
X014790Y003466D02*
X014740Y003466D01*
X014740Y003545D02*
X014790Y003545D01*
X014865Y003623D02*
X014665Y003623D01*
X014665Y003702D02*
X014865Y003702D01*
X014850Y003780D02*
X014665Y003780D01*
X014634Y003859D02*
X014772Y003859D01*
X014961Y004094D02*
X015036Y004094D01*
X015039Y004016D02*
X015115Y004016D01*
X015118Y003937D02*
X015193Y003937D01*
X015165Y003859D02*
X015272Y003859D01*
X015350Y003780D02*
X015165Y003780D01*
X015165Y003702D02*
X015365Y003702D01*
X015365Y003623D02*
X015165Y003623D01*
X015240Y003545D02*
X015290Y003545D01*
X015290Y003466D02*
X015240Y003466D01*
X015240Y003388D02*
X015290Y003388D01*
X015340Y003309D02*
X015190Y003309D01*
X015111Y003231D02*
X015419Y003231D01*
X015611Y003231D02*
X015919Y003231D01*
X015840Y003309D02*
X015690Y003309D01*
X015740Y003388D02*
X015790Y003388D01*
X015790Y003466D02*
X015740Y003466D01*
X015740Y003545D02*
X015790Y003545D01*
X015867Y003623D02*
X015665Y003623D01*
X015665Y003702D02*
X016052Y003702D01*
X016130Y003780D02*
X015665Y003780D01*
X015665Y003859D02*
X016178Y003859D01*
X016178Y003937D02*
X015618Y003937D01*
X015539Y004016D02*
X016178Y004016D01*
X016178Y004094D02*
X015461Y004094D01*
X015382Y004173D02*
X016178Y004173D01*
X016178Y004251D02*
X015304Y004251D01*
X015225Y004330D02*
X016178Y004330D01*
X016178Y004408D02*
X015147Y004408D01*
X014193Y004487D02*
X016178Y004487D01*
X016178Y004565D02*
X014115Y004565D01*
X014036Y004644D02*
X016178Y004644D01*
X016178Y004722D02*
X013958Y004722D01*
X013879Y004801D02*
X016178Y004801D01*
X016178Y004879D02*
X013801Y004879D01*
X013790Y004958D02*
X016178Y004958D01*
X016178Y005036D02*
X013790Y005036D01*
X013790Y005115D02*
X016178Y005115D01*
X016178Y005193D02*
X013790Y005193D01*
X013790Y005272D02*
X016178Y005272D01*
X016178Y005350D02*
X013790Y005350D01*
X013790Y005429D02*
X016178Y005429D01*
X016178Y005507D02*
X013790Y005507D01*
X013790Y005586D02*
X016178Y005586D01*
X016178Y005664D02*
X013790Y005664D01*
X013790Y005743D02*
X016178Y005743D01*
X016178Y005821D02*
X013790Y005821D01*
X013790Y005900D02*
X016178Y005900D01*
X016178Y005978D02*
X013790Y005978D01*
X013790Y006057D02*
X016178Y006057D01*
X016178Y006135D02*
X013790Y006135D01*
X013790Y006214D02*
X016178Y006214D01*
X016178Y006292D02*
X013790Y006292D01*
X013790Y006371D02*
X016178Y006371D01*
X016178Y006449D02*
X013790Y006449D01*
X013790Y006528D02*
X016178Y006528D01*
X016178Y006606D02*
X013790Y006606D01*
X013790Y006685D02*
X016178Y006685D01*
X016178Y006763D02*
X013790Y006763D01*
X013790Y006842D02*
X016178Y006842D01*
X016178Y006920D02*
X013790Y006920D01*
X013790Y006999D02*
X016178Y006999D01*
X016178Y007077D02*
X013790Y007077D01*
X013790Y007156D02*
X016178Y007156D01*
X016178Y007234D02*
X013790Y007234D01*
X013790Y007313D02*
X016178Y007313D01*
X016178Y007391D02*
X013790Y007391D01*
X013790Y007470D02*
X016178Y007470D01*
X016178Y007548D02*
X013790Y007548D01*
X013790Y007627D02*
X016178Y007627D01*
X016178Y007705D02*
X013790Y007705D01*
X013790Y007784D02*
X016178Y007784D01*
X016178Y007862D02*
X013790Y007862D01*
X013790Y007941D02*
X016178Y007941D01*
X016178Y008019D02*
X013790Y008019D01*
X013790Y008098D02*
X016178Y008098D01*
X016178Y008176D02*
X013790Y008176D01*
X013790Y008255D02*
X016178Y008255D01*
X016178Y008333D02*
X013790Y008333D01*
X013790Y008412D02*
X016178Y008412D01*
X016178Y008490D02*
X013790Y008490D01*
X013790Y008569D02*
X016178Y008569D01*
X016178Y008647D02*
X013790Y008647D01*
X013790Y008726D02*
X016178Y008726D01*
X016178Y008804D02*
X013790Y008804D01*
X013790Y008883D02*
X016178Y008883D01*
X016178Y008961D02*
X013790Y008961D01*
X013790Y009040D02*
X016178Y009040D01*
X016178Y009118D02*
X013790Y009118D01*
X013790Y009197D02*
X016178Y009197D01*
X016178Y009275D02*
X013790Y009275D01*
X013790Y009354D02*
X016178Y009354D01*
X016178Y009432D02*
X013790Y009432D01*
X013790Y009511D02*
X016178Y009511D01*
X016178Y009589D02*
X013790Y009589D01*
X013790Y009668D02*
X016178Y009668D01*
X016178Y009746D02*
X013790Y009746D01*
X013790Y009825D02*
X016178Y009825D01*
X016178Y009903D02*
X013790Y009903D01*
X013790Y009982D02*
X016178Y009982D01*
X016178Y010060D02*
X013790Y010060D01*
X013790Y010139D02*
X016178Y010139D01*
X016178Y010217D02*
X013790Y010217D01*
X013790Y010296D02*
X016178Y010296D01*
X016178Y010374D02*
X013790Y010374D01*
X013790Y010453D02*
X016178Y010453D01*
X016178Y010531D02*
X013790Y010531D01*
X013790Y010610D02*
X016178Y010610D01*
X016178Y010688D02*
X013790Y010688D01*
X013790Y010767D02*
X016178Y010767D01*
X016178Y010845D02*
X013790Y010845D01*
X013790Y010924D02*
X016178Y010924D01*
X016178Y011002D02*
X013790Y011002D01*
X013790Y011081D02*
X016178Y011081D01*
X016178Y011159D02*
X013790Y011159D01*
X013790Y011238D02*
X016178Y011238D01*
X016178Y011316D02*
X013790Y011316D01*
X013790Y011395D02*
X016178Y011395D01*
X016178Y011473D02*
X013790Y011473D01*
X013790Y011552D02*
X016178Y011552D01*
X016178Y011630D02*
X013790Y011630D01*
X013790Y011709D02*
X016178Y011709D01*
X016178Y011787D02*
X013790Y011787D01*
X013790Y011866D02*
X016178Y011866D01*
X016178Y011944D02*
X013790Y011944D01*
X013790Y012023D02*
X016178Y012023D01*
X016178Y012101D02*
X013790Y012101D01*
X013790Y012180D02*
X016178Y012180D01*
X016178Y012258D02*
X013790Y012258D01*
X013790Y012337D02*
X016178Y012337D01*
X016178Y012415D02*
X013790Y012415D01*
X013790Y012494D02*
X016178Y012494D01*
X016178Y012572D02*
X013790Y012572D01*
X013790Y012651D02*
X016178Y012651D01*
X016178Y012729D02*
X013790Y012729D01*
X013790Y012808D02*
X016178Y012808D01*
X016178Y012886D02*
X013790Y012886D01*
X013790Y012965D02*
X016178Y012965D01*
X016178Y013043D02*
X013790Y013043D01*
X013790Y013122D02*
X016178Y013122D01*
X016178Y013200D02*
X013790Y013200D01*
X013790Y013279D02*
X016178Y013279D01*
X016178Y013357D02*
X013790Y013357D01*
X013790Y013436D02*
X016178Y013436D01*
X016178Y013514D02*
X013790Y013514D01*
X013790Y013593D02*
X016178Y013593D01*
X016178Y013671D02*
X013790Y013671D01*
X013790Y013750D02*
X016178Y013750D01*
X016178Y013828D02*
X013790Y013828D01*
X013790Y013907D02*
X016178Y013907D01*
X016178Y013985D02*
X013790Y013985D01*
X013790Y014064D02*
X016178Y014064D01*
X016178Y014142D02*
X013790Y014142D01*
X013790Y014221D02*
X016178Y014221D01*
X016178Y014299D02*
X013790Y014299D01*
X013790Y014378D02*
X016178Y014378D01*
X016178Y014456D02*
X013790Y014456D01*
X013790Y014535D02*
X016178Y014535D01*
X016178Y014613D02*
X013790Y014613D01*
X013790Y014692D02*
X016178Y014692D01*
X016178Y014770D02*
X013790Y014770D01*
X013790Y014849D02*
X016178Y014849D01*
X016178Y014927D02*
X013790Y014927D01*
X013790Y015006D02*
X016178Y015006D01*
X016178Y015084D02*
X013790Y015084D01*
X013790Y015163D02*
X016178Y015163D01*
X016178Y015241D02*
X013790Y015241D01*
X013790Y015320D02*
X016178Y015320D01*
X016178Y015398D02*
X013790Y015398D01*
X013790Y015477D02*
X016178Y015477D01*
X016178Y015555D02*
X013790Y015555D01*
X013790Y015634D02*
X016178Y015634D01*
X016178Y015712D02*
X013790Y015712D01*
X013790Y015791D02*
X016178Y015791D01*
X016178Y015869D02*
X013790Y015869D01*
X013790Y015948D02*
X016178Y015948D01*
X016178Y016026D02*
X013790Y016026D01*
X013790Y016105D02*
X016178Y016105D01*
X016178Y016183D02*
X013790Y016183D01*
X013790Y016262D02*
X016178Y016262D01*
X016178Y016340D02*
X013790Y016340D01*
X013790Y016419D02*
X016178Y016419D01*
X016178Y016497D02*
X013790Y016497D01*
X013790Y016576D02*
X016178Y016576D01*
X016178Y016654D02*
X013790Y016654D01*
X013790Y016733D02*
X016178Y016733D01*
X016178Y016811D02*
X013790Y016811D01*
X013790Y016890D02*
X016178Y016890D01*
X016178Y016968D02*
X013790Y016968D01*
X013790Y017047D02*
X016178Y017047D01*
X016178Y017125D02*
X013790Y017125D01*
X013790Y017204D02*
X016178Y017204D01*
X016178Y017282D02*
X013790Y017282D01*
X013790Y017361D02*
X016178Y017361D01*
X016178Y017439D02*
X013790Y017439D01*
X013792Y017518D02*
X016178Y017518D01*
X016178Y017596D02*
X013871Y017596D01*
X013949Y017675D02*
X016178Y017675D01*
X016178Y017753D02*
X014028Y017753D01*
X014106Y017832D02*
X016178Y017832D01*
X016178Y017910D02*
X014185Y017910D01*
X014263Y017989D02*
X016178Y017989D01*
X016178Y018067D02*
X014342Y018067D01*
X014415Y018146D02*
X016178Y018146D01*
X016178Y018224D02*
X014415Y018224D01*
X014415Y018303D02*
X016178Y018303D01*
X016178Y018381D02*
X014415Y018381D01*
X014415Y018460D02*
X016178Y018460D01*
X016178Y018538D02*
X014415Y018538D01*
X014415Y018617D02*
X016178Y018617D01*
X016178Y018695D02*
X014415Y018695D01*
X014415Y018774D02*
X016178Y018774D01*
X016178Y018852D02*
X014415Y018852D01*
X014415Y018931D02*
X016178Y018931D01*
X016178Y019009D02*
X014415Y019009D01*
X014415Y019088D02*
X016178Y019088D01*
X016178Y019166D02*
X014415Y019166D01*
X014415Y019245D02*
X016178Y019245D01*
X016178Y019323D02*
X014415Y019323D01*
X014415Y019402D02*
X016178Y019402D01*
X016178Y019480D02*
X014415Y019480D01*
X014415Y019559D02*
X016178Y019559D01*
X016178Y019637D02*
X014415Y019637D01*
X014415Y019716D02*
X016178Y019716D01*
X016178Y019794D02*
X014415Y019794D01*
X014415Y019873D02*
X016178Y019873D01*
X016178Y019951D02*
X014415Y019951D01*
X014415Y020030D02*
X016178Y020030D01*
X016178Y020108D02*
X014415Y020108D01*
X014415Y020187D02*
X016178Y020187D01*
X016178Y020265D02*
X014458Y020265D01*
X014490Y020344D02*
X016178Y020344D01*
X016178Y020422D02*
X014490Y020422D01*
X014473Y020501D02*
X016178Y020501D01*
X016176Y020579D02*
X014394Y020579D01*
X014136Y020579D02*
X012415Y020579D01*
X012415Y020501D02*
X014057Y020501D01*
X014040Y020422D02*
X012415Y020422D01*
X012415Y020344D02*
X013900Y020344D01*
X013822Y020265D02*
X012415Y020265D01*
X012415Y020187D02*
X013790Y020187D01*
X013665Y020108D02*
X012415Y020108D01*
X012415Y020030D02*
X013586Y020030D01*
X013540Y019951D02*
X012415Y019951D01*
X012415Y019873D02*
X013540Y019873D01*
X013351Y019794D02*
X012415Y019794D01*
X012415Y019716D02*
X013290Y019716D01*
X013290Y019637D02*
X012418Y019637D01*
X012496Y019559D02*
X013115Y019559D01*
X013040Y019480D02*
X012575Y019480D01*
X012653Y019402D02*
X013040Y019402D01*
X012880Y019323D02*
X012732Y019323D01*
X012415Y020658D02*
X016087Y020658D01*
X017790Y020658D02*
X021754Y020658D01*
X021754Y020736D02*
X017790Y020736D01*
X017790Y020815D02*
X021754Y020815D01*
X021754Y020893D02*
X017790Y020893D01*
X017790Y020972D02*
X021754Y020972D01*
X021754Y021050D02*
X017790Y021050D01*
X017790Y021129D02*
X021754Y021129D01*
X021754Y021207D02*
X017790Y021207D01*
X017790Y021286D02*
X021754Y021286D01*
X021754Y021364D02*
X017790Y021364D01*
X017790Y021443D02*
X021754Y021443D01*
X021754Y021521D02*
X017790Y021521D01*
X017790Y021600D02*
X021754Y021600D01*
X021754Y021678D02*
X017790Y021678D01*
X017790Y021757D02*
X021754Y021757D01*
X021754Y021835D02*
X017790Y021835D01*
X017790Y021914D02*
X021754Y021914D01*
X021754Y021992D02*
X017829Y021992D01*
X017908Y022071D02*
X021754Y022071D01*
X021754Y022149D02*
X017986Y022149D01*
X018065Y022228D02*
X021754Y022228D01*
X021754Y022306D02*
X018143Y022306D01*
X018222Y022385D02*
X021754Y022385D01*
X021754Y022463D02*
X018300Y022463D01*
X018379Y022542D02*
X021754Y022542D01*
X021754Y022620D02*
X019082Y022620D01*
X019161Y022699D02*
X021754Y022699D01*
X021754Y022777D02*
X019239Y022777D01*
X019318Y022856D02*
X021754Y022856D01*
X021754Y022934D02*
X019396Y022934D01*
X019475Y023013D02*
X021754Y023013D01*
X021754Y023091D02*
X019553Y023091D01*
X019632Y023170D02*
X021754Y023170D01*
X021754Y023248D02*
X019665Y023248D01*
X019665Y023327D02*
X021754Y023327D01*
X021754Y023405D02*
X019665Y023405D01*
X019665Y023484D02*
X021754Y023484D01*
X021754Y023562D02*
X019665Y023562D01*
X019665Y023641D02*
X021754Y023641D01*
X021754Y023719D02*
X019665Y023719D01*
X019665Y023798D02*
X021754Y023798D01*
X021754Y023876D02*
X019665Y023876D01*
X019600Y023955D02*
X021754Y023955D01*
X021754Y024033D02*
X019522Y024033D01*
X019443Y024112D02*
X021754Y024112D01*
X021754Y024190D02*
X019365Y024190D01*
X019286Y024269D02*
X021754Y024269D01*
X021754Y024347D02*
X019208Y024347D01*
X019129Y024426D02*
X021754Y024426D01*
X021754Y024504D02*
X019051Y024504D01*
X018972Y024583D02*
X021754Y024583D01*
X021754Y024661D02*
X018894Y024661D01*
X018815Y024740D02*
X021754Y024740D01*
X021754Y024818D02*
X018737Y024818D01*
X018658Y024897D02*
X021754Y024897D01*
X021754Y024975D02*
X013240Y024975D01*
X013240Y024897D02*
X016622Y024897D01*
X016543Y024818D02*
X013240Y024818D01*
X013296Y024740D02*
X013430Y024740D01*
X013382Y024661D02*
X013365Y024661D01*
X013365Y024583D02*
X013382Y024583D01*
X012665Y022149D02*
X012655Y022149D01*
X012665Y022071D02*
X012415Y022071D01*
X012415Y021992D02*
X012665Y021992D01*
X012720Y021914D02*
X012415Y021914D01*
X012415Y021835D02*
X012642Y021835D01*
X012603Y021757D02*
X012415Y021757D01*
X012415Y021678D02*
X012603Y021678D01*
X012612Y021600D02*
X012415Y021600D01*
X012415Y021521D02*
X012691Y021521D01*
X012790Y021443D02*
X012415Y021443D01*
X012415Y021364D02*
X012790Y021364D01*
X012801Y021286D02*
X012415Y021286D01*
X012415Y021207D02*
X012880Y021207D01*
X013150Y021207D02*
X013382Y021207D01*
X013382Y021129D02*
X012415Y021129D01*
X012415Y021050D02*
X013382Y021050D01*
X013382Y020972D02*
X012415Y020972D01*
X012415Y020893D02*
X013382Y020893D01*
X013382Y020815D02*
X012415Y020815D01*
X012415Y020736D02*
X013397Y020736D01*
X013382Y021286D02*
X013229Y021286D01*
X013240Y021364D02*
X013382Y021364D01*
X013382Y021443D02*
X013280Y021443D01*
X017790Y020579D02*
X021754Y020579D01*
X021754Y020501D02*
X017790Y020501D01*
X017790Y020422D02*
X021754Y020422D01*
X021754Y020344D02*
X017790Y020344D01*
X017790Y020265D02*
X021754Y020265D01*
X021754Y020187D02*
X017790Y020187D01*
X017790Y020108D02*
X021754Y020108D01*
X021754Y020030D02*
X017790Y020030D01*
X017790Y019951D02*
X021754Y019951D01*
X021754Y019873D02*
X017790Y019873D01*
X017790Y019794D02*
X021754Y019794D01*
X021754Y019716D02*
X017790Y019716D01*
X017790Y019637D02*
X021754Y019637D01*
X021754Y019559D02*
X017790Y019559D01*
X017790Y019480D02*
X021754Y019480D01*
X021754Y019402D02*
X017790Y019402D01*
X017790Y019323D02*
X021754Y019323D01*
X021754Y019245D02*
X017790Y019245D01*
X017790Y019166D02*
X021754Y019166D01*
X021754Y019088D02*
X017790Y019088D01*
X017790Y019009D02*
X021754Y019009D01*
X021754Y018931D02*
X017790Y018931D01*
X017790Y018852D02*
X021754Y018852D01*
X021754Y018774D02*
X017790Y018774D01*
X017790Y018695D02*
X021754Y018695D01*
X021754Y018617D02*
X017790Y018617D01*
X017790Y018538D02*
X021754Y018538D01*
X021754Y018460D02*
X017790Y018460D01*
X017790Y018381D02*
X021754Y018381D01*
X021754Y018303D02*
X017790Y018303D01*
X017790Y018224D02*
X021754Y018224D01*
X021754Y018146D02*
X017790Y018146D01*
X017790Y018067D02*
X021754Y018067D01*
X021754Y017989D02*
X017790Y017989D01*
X017790Y017910D02*
X021754Y017910D01*
X021754Y017832D02*
X017790Y017832D01*
X017790Y017753D02*
X021754Y017753D01*
X021754Y017675D02*
X017790Y017675D01*
X017790Y017596D02*
X021754Y017596D01*
X021754Y017518D02*
X017790Y017518D01*
X017790Y017439D02*
X021754Y017439D01*
X021754Y017361D02*
X017790Y017361D01*
X017790Y017282D02*
X021754Y017282D01*
X021754Y017204D02*
X017790Y017204D01*
X017790Y017125D02*
X021754Y017125D01*
X021754Y017047D02*
X017790Y017047D01*
X017790Y016968D02*
X021754Y016968D01*
X021754Y016890D02*
X017790Y016890D01*
X017790Y016811D02*
X021754Y016811D01*
X021754Y016733D02*
X017790Y016733D01*
X017790Y016654D02*
X021754Y016654D01*
X021754Y016576D02*
X017790Y016576D01*
X017790Y016497D02*
X021754Y016497D01*
X021754Y016419D02*
X017790Y016419D01*
X017790Y016340D02*
X021754Y016340D01*
X021754Y016262D02*
X017790Y016262D01*
X017790Y016183D02*
X021754Y016183D01*
X021754Y016105D02*
X017790Y016105D01*
X017790Y016026D02*
X021754Y016026D01*
X021754Y015948D02*
X017790Y015948D01*
X017790Y015869D02*
X021754Y015869D01*
X021754Y015791D02*
X017790Y015791D01*
X017790Y015712D02*
X021754Y015712D01*
X021754Y015634D02*
X017790Y015634D01*
X017790Y015555D02*
X021754Y015555D01*
X021754Y015477D02*
X017790Y015477D01*
X017790Y015398D02*
X021754Y015398D01*
X021754Y015320D02*
X017790Y015320D01*
X017790Y015241D02*
X021754Y015241D01*
X021754Y015163D02*
X017790Y015163D01*
X017790Y015084D02*
X021754Y015084D01*
X021754Y015006D02*
X017790Y015006D01*
X017790Y014927D02*
X021754Y014927D01*
X021754Y014849D02*
X017790Y014849D01*
X017790Y014770D02*
X021754Y014770D01*
X021754Y014692D02*
X017790Y014692D01*
X017790Y014613D02*
X021754Y014613D01*
X021754Y014535D02*
X017790Y014535D01*
X017790Y014456D02*
X021754Y014456D01*
X021754Y014378D02*
X017790Y014378D01*
X017790Y014299D02*
X021754Y014299D01*
X021754Y014221D02*
X017790Y014221D01*
X017790Y014142D02*
X021754Y014142D01*
X021754Y014064D02*
X017790Y014064D01*
X017790Y013985D02*
X021754Y013985D01*
X021754Y013907D02*
X017790Y013907D01*
X017790Y013828D02*
X021754Y013828D01*
X021754Y013750D02*
X017790Y013750D01*
X017790Y013671D02*
X021754Y013671D01*
X021754Y013593D02*
X017790Y013593D01*
X017790Y013514D02*
X021754Y013514D01*
X021754Y013436D02*
X017790Y013436D01*
X017790Y013357D02*
X021754Y013357D01*
X021754Y013279D02*
X017790Y013279D01*
X017790Y013200D02*
X021754Y013200D01*
X021754Y013122D02*
X017790Y013122D01*
X017790Y013043D02*
X021754Y013043D01*
X021754Y012965D02*
X017790Y012965D01*
X017790Y012886D02*
X021754Y012886D01*
X021754Y012808D02*
X017790Y012808D01*
X017790Y012729D02*
X021754Y012729D01*
X021754Y012651D02*
X017790Y012651D01*
X017790Y012572D02*
X021754Y012572D01*
X021754Y012494D02*
X017790Y012494D01*
X017790Y012415D02*
X021754Y012415D01*
X021754Y012337D02*
X017790Y012337D01*
X017790Y012258D02*
X021754Y012258D01*
X021754Y012180D02*
X017790Y012180D01*
X017790Y012101D02*
X021754Y012101D01*
X021754Y012023D02*
X017790Y012023D01*
X017790Y011944D02*
X021754Y011944D01*
X021754Y011866D02*
X017790Y011866D01*
X017790Y011787D02*
X021754Y011787D01*
X021754Y011709D02*
X017790Y011709D01*
X017790Y011630D02*
X021754Y011630D01*
X021754Y011552D02*
X017790Y011552D01*
X017790Y011473D02*
X021754Y011473D01*
X021754Y011395D02*
X017790Y011395D01*
X017790Y011316D02*
X021754Y011316D01*
X021754Y011238D02*
X017790Y011238D01*
X017790Y011159D02*
X021754Y011159D01*
X021754Y011081D02*
X017790Y011081D01*
X017790Y011002D02*
X021754Y011002D01*
X021754Y010924D02*
X017790Y010924D01*
X017790Y010845D02*
X021754Y010845D01*
X021754Y010767D02*
X017790Y010767D01*
X017790Y010688D02*
X021754Y010688D01*
X021754Y010610D02*
X017790Y010610D01*
X017790Y010531D02*
X021754Y010531D01*
X021754Y010453D02*
X017790Y010453D01*
X017790Y010374D02*
X021754Y010374D01*
X021754Y010296D02*
X017790Y010296D01*
X017790Y010217D02*
X021754Y010217D01*
X021754Y010139D02*
X017790Y010139D01*
X017790Y010060D02*
X021754Y010060D01*
X021754Y009982D02*
X017790Y009982D01*
X017790Y009903D02*
X021754Y009903D01*
X021754Y009825D02*
X017790Y009825D01*
X017790Y009746D02*
X021754Y009746D01*
X021754Y009668D02*
X017790Y009668D01*
X017790Y009589D02*
X021754Y009589D01*
X021754Y009511D02*
X017790Y009511D01*
X017790Y009432D02*
X021754Y009432D01*
X021754Y009354D02*
X017790Y009354D01*
X017790Y009275D02*
X021754Y009275D01*
X021754Y009197D02*
X017790Y009197D01*
X017790Y009118D02*
X021754Y009118D01*
X021754Y009040D02*
X017790Y009040D01*
X017790Y008961D02*
X021754Y008961D01*
X021754Y008883D02*
X017790Y008883D01*
X017790Y008804D02*
X021754Y008804D01*
X021754Y008726D02*
X017790Y008726D01*
X017790Y008647D02*
X021754Y008647D01*
X021754Y008569D02*
X017790Y008569D01*
X017790Y008490D02*
X021754Y008490D01*
X021754Y008412D02*
X017790Y008412D01*
X017790Y008333D02*
X021754Y008333D01*
X021754Y008255D02*
X017790Y008255D01*
X017790Y008176D02*
X021754Y008176D01*
X021754Y008098D02*
X017790Y008098D01*
X017790Y008019D02*
X021754Y008019D01*
X021754Y007941D02*
X017790Y007941D01*
X017790Y007862D02*
X021754Y007862D01*
X021754Y007784D02*
X017790Y007784D01*
X017790Y007705D02*
X021754Y007705D01*
X021754Y007627D02*
X017790Y007627D01*
X017790Y007548D02*
X021754Y007548D01*
X021754Y007470D02*
X017790Y007470D01*
X017790Y007391D02*
X021754Y007391D01*
X021754Y007313D02*
X017790Y007313D01*
X017790Y007234D02*
X021754Y007234D01*
X021754Y007156D02*
X017790Y007156D01*
X017790Y007077D02*
X021754Y007077D01*
X021754Y006999D02*
X017790Y006999D01*
X017790Y006920D02*
X021754Y006920D01*
X021754Y006842D02*
X017790Y006842D01*
X017790Y006763D02*
X021754Y006763D01*
X021754Y006685D02*
X017790Y006685D01*
X017790Y006606D02*
X021754Y006606D01*
X021754Y006528D02*
X017790Y006528D01*
X017790Y006449D02*
X021754Y006449D01*
X021754Y006371D02*
X017790Y006371D01*
X017790Y006292D02*
X021754Y006292D01*
X021754Y006214D02*
X017790Y006214D01*
X017790Y006135D02*
X021754Y006135D01*
X021754Y006057D02*
X017790Y006057D01*
X017790Y005978D02*
X021754Y005978D01*
X021754Y005900D02*
X017790Y005900D01*
X017790Y005821D02*
X021754Y005821D01*
X021754Y005743D02*
X017790Y005743D01*
X017790Y005664D02*
X021754Y005664D01*
X021754Y005586D02*
X017790Y005586D01*
X017790Y005507D02*
X021754Y005507D01*
X021754Y005429D02*
X017790Y005429D01*
X017830Y005350D02*
X021754Y005350D01*
X021754Y005272D02*
X017908Y005272D01*
X017987Y005193D02*
X021754Y005193D01*
X021754Y005115D02*
X018065Y005115D01*
X018144Y005036D02*
X021754Y005036D01*
X021754Y004958D02*
X018222Y004958D01*
X018301Y004879D02*
X021754Y004879D01*
X021754Y004801D02*
X018379Y004801D01*
X018458Y004722D02*
X021754Y004722D01*
X021754Y004644D02*
X018536Y004644D01*
X018615Y004565D02*
X021754Y004565D01*
X021754Y004487D02*
X018693Y004487D01*
X018772Y004408D02*
X021754Y004408D01*
X021754Y004330D02*
X018850Y004330D01*
X018929Y004251D02*
X021754Y004251D01*
X021754Y004173D02*
X019007Y004173D01*
X019086Y004094D02*
X021754Y004094D01*
X021754Y004016D02*
X019164Y004016D01*
X019243Y003937D02*
X021754Y003937D01*
X021754Y003859D02*
X019321Y003859D01*
X019400Y003780D02*
X021754Y003780D01*
X021754Y003702D02*
X019478Y003702D01*
X019663Y003623D02*
X021754Y003623D01*
X021754Y003545D02*
X019740Y003545D01*
X019740Y003466D02*
X021754Y003466D01*
X021754Y003388D02*
X019740Y003388D01*
X019690Y003309D02*
X021754Y003309D01*
X021754Y003231D02*
X019611Y003231D01*
X019419Y003231D02*
X019111Y003231D01*
X019190Y003309D02*
X019340Y003309D01*
X019290Y003388D02*
X019240Y003388D01*
X019240Y003466D02*
X019289Y003466D01*
X018919Y003231D02*
X018611Y003231D01*
X018690Y003309D02*
X018840Y003309D01*
X018790Y003388D02*
X018740Y003388D01*
X018740Y003466D02*
X018789Y003466D01*
X018419Y003231D02*
X018111Y003231D01*
X018190Y003309D02*
X018340Y003309D01*
X018290Y003388D02*
X018240Y003388D01*
X018240Y003466D02*
X018289Y003466D01*
X017919Y003231D02*
X017611Y003231D01*
X017690Y003309D02*
X017840Y003309D01*
X017790Y003388D02*
X017740Y003388D01*
X017740Y003466D02*
X017789Y003466D01*
X017419Y003231D02*
X017111Y003231D01*
X017190Y003309D02*
X017340Y003309D01*
X017290Y003388D02*
X017240Y003388D01*
X017240Y003466D02*
X017289Y003466D01*
X016919Y003231D02*
X016611Y003231D01*
X016690Y003309D02*
X016840Y003309D01*
X016790Y003388D02*
X016740Y003388D01*
X016740Y003466D02*
X016789Y003466D01*
X016419Y003231D02*
X016111Y003231D01*
X016190Y003309D02*
X016340Y003309D01*
X016290Y003388D02*
X016240Y003388D01*
X016241Y003466D02*
X016290Y003466D01*
X021353Y000876D02*
X001123Y000876D01*
X001015Y000954D02*
X021476Y000954D01*
X021572Y001033D02*
X000934Y001033D01*
X000877Y001111D02*
X021625Y001111D01*
X006238Y022388D02*
X006238Y022424D01*
X006238Y022426D01*
X006238Y022623D01*
X006238Y022623D01*
X006238Y022625D01*
X006238Y022661D01*
X006238Y022661D01*
X006238Y022623D01*
X006238Y022623D01*
X006238Y022426D01*
X006238Y022426D01*
X006238Y022426D01*
X006238Y022388D01*
X006238Y022388D01*
X006238Y022463D02*
X006238Y022463D01*
X006238Y022542D02*
X006238Y022542D01*
X006238Y022620D02*
X006238Y022620D01*
X005896Y022623D02*
X005896Y022623D01*
X005585Y020108D02*
X005540Y020108D01*
X005540Y020030D02*
X005663Y020030D01*
X005241Y003702D02*
X005165Y003702D01*
X005165Y003623D02*
X005320Y003623D01*
X005290Y003545D02*
X005240Y003545D01*
X005240Y003466D02*
X005290Y003466D01*
X005290Y003388D02*
X005240Y003388D01*
X005190Y003309D02*
X005340Y003309D01*
X005419Y003231D02*
X005111Y003231D01*
X004919Y003231D02*
X004611Y003231D01*
X004690Y003309D02*
X004840Y003309D01*
X004790Y003388D02*
X004740Y003388D01*
X004740Y003466D02*
X004790Y003466D01*
X004790Y003545D02*
X004740Y003545D01*
X004710Y003623D02*
X004865Y003623D01*
X004865Y003702D02*
X004789Y003702D01*
X004290Y003466D02*
X004241Y003466D01*
X004240Y003388D02*
X004290Y003388D01*
X004340Y003309D02*
X004190Y003309D01*
X004111Y003231D02*
X004419Y003231D01*
X003790Y003388D02*
X002143Y003388D01*
X002222Y003466D02*
X003790Y003466D01*
X003790Y003545D02*
X002240Y003545D01*
X002240Y003623D02*
X003867Y003623D01*
X005611Y003231D02*
X005919Y003231D01*
X005840Y003309D02*
X005690Y003309D01*
X005740Y003388D02*
X005790Y003388D01*
X005789Y003466D02*
X005740Y003466D01*
M02*
