%
M48
M72
T01C0.0130
%
T01
X13515Y3453
X10328Y19390
X13265Y19390
X13015Y3453
X10578Y19140
X13015Y19140
X12515Y3453
X12515Y18890
X10828Y18890
X11515Y3453
X11015Y3453
X11828Y18640
X11078Y18640
X10515Y3453
X12078Y18390
X10828Y18390
X10015Y3453
X11828Y18140
X10578Y18140
X9515Y3453
X10265Y17890
X12765Y18328
X8015Y3453
X4015Y3453
X4203Y23125
X5018Y24203
X6828Y24203
X17203Y22703
X2015Y3578
X17515Y22515
X13015Y24890
X6828Y22765
X3890Y23558
X12515Y22890
X11703Y24078
X10890Y22140
X11203Y21890
X8265Y20453
X8890Y20453
X8265Y19953
X8890Y19953
X7640Y22328
X7203Y22328
X6328Y20515
X5890Y20515
X14953Y20453
X15578Y20453
X14953Y19953
X15578Y19953
X12015Y3578
X20515Y3578
X14015Y3453
X10078Y19640
X13515Y19640
X14515Y3453
X13765Y19890
X9890Y19890
X15015Y3453
X9703Y20140
X14015Y20140
X15515Y3453
X9515Y20390
X14265Y20390
X16515Y3453
X17515Y3453
X13015Y21390
X18890Y23515
X6515Y3453
X6640Y19265
X12828Y21703
X18640Y23765
X7015Y3453
X7078Y19515
X8515Y3453
X12390Y23703
X12890Y22078
X7078Y20390
X4515Y3453
X4515Y23250
X13140Y24578
X19515Y3453
X5015Y3453
X4828Y23125
X13265Y24140
X19015Y3453
X18515Y3453
X13078Y23703
X17953Y23328
X5515Y3453
X5140Y23250
X13140Y23328
X17578Y23328
X6015Y3453
X5453Y23125
X18015Y3453
X13140Y22328
X18390Y24078
X7515Y3453
X7265Y19828
X12515Y22328
X17015Y3453
X16015Y3453
X9015Y3453
X6703Y20390
X11890Y23140
M30
