G75*
G70*
%OFA0B0*%
%FSLAX24Y24*%
%IPPOS*%
%LPD*%
%AMOC8*
5,1,8,0,0,1.08239X$1,22.5*
%
%ADD10C,0.0050*%
%ADD11C,0.0073*%
%ADD12C,0.0100*%
%ADD13C,0.0250*%
%ADD14C,0.0080*%
%ADD15C,0.0060*%
D10*
X000613Y001440D02*
X000613Y033527D01*
X000615Y033580D01*
X000621Y033632D01*
X000630Y033684D01*
X000643Y033735D01*
X000660Y033785D01*
X000680Y033834D01*
X000703Y033881D01*
X000730Y033926D01*
X000760Y033969D01*
X000793Y034010D01*
X000829Y034049D01*
X000868Y034085D01*
X000909Y034118D01*
X000952Y034148D01*
X000997Y034175D01*
X001044Y034198D01*
X001093Y034218D01*
X001143Y034235D01*
X001194Y034248D01*
X001246Y034257D01*
X001298Y034263D01*
X001351Y034265D01*
X021181Y034265D01*
X021234Y034263D01*
X021286Y034257D01*
X021338Y034248D01*
X021389Y034235D01*
X021439Y034218D01*
X021488Y034198D01*
X021535Y034175D01*
X021580Y034148D01*
X021623Y034118D01*
X021664Y034085D01*
X021703Y034049D01*
X021739Y034010D01*
X021772Y033969D01*
X021802Y033926D01*
X021829Y033881D01*
X021852Y033834D01*
X021872Y033785D01*
X021889Y033735D01*
X021902Y033684D01*
X021911Y033632D01*
X021917Y033580D01*
X021919Y033527D01*
X021919Y001524D01*
X021920Y001524D02*
X021919Y001467D01*
X021916Y001411D01*
X021908Y001355D01*
X021897Y001300D01*
X021882Y001246D01*
X021864Y001193D01*
X021842Y001141D01*
X021817Y001090D01*
X021788Y001042D01*
X021757Y000995D01*
X021723Y000951D01*
X021685Y000909D01*
X021645Y000869D01*
X021603Y000832D01*
X021558Y000798D01*
X021511Y000767D01*
X021462Y000739D01*
X021412Y000714D01*
X021360Y000693D01*
X021306Y000675D01*
X021252Y000661D01*
X021197Y000650D01*
X021141Y000643D01*
X021085Y000639D01*
X021084Y000640D02*
X001413Y000640D01*
X001358Y000642D01*
X001304Y000647D01*
X001250Y000657D01*
X001197Y000670D01*
X001145Y000686D01*
X001094Y000706D01*
X001045Y000730D01*
X000997Y000756D01*
X000952Y000786D01*
X000908Y000819D01*
X000867Y000855D01*
X000828Y000894D01*
X000792Y000935D01*
X000759Y000979D01*
X000729Y001024D01*
X000703Y001072D01*
X000679Y001121D01*
X000659Y001172D01*
X000643Y001224D01*
X000630Y001277D01*
X000620Y001331D01*
X000615Y001385D01*
X000613Y001440D01*
D11*
X002125Y001225D02*
X002125Y003355D01*
X002125Y001225D02*
X001907Y001225D01*
X001907Y003355D01*
X002125Y003355D01*
X002125Y001297D02*
X001907Y001297D01*
X001907Y001369D02*
X002125Y001369D01*
X002125Y001441D02*
X001907Y001441D01*
X001907Y001513D02*
X002125Y001513D01*
X002125Y001585D02*
X001907Y001585D01*
X001907Y001657D02*
X002125Y001657D01*
X002125Y001729D02*
X001907Y001729D01*
X001907Y001801D02*
X002125Y001801D01*
X002125Y001873D02*
X001907Y001873D01*
X001907Y001945D02*
X002125Y001945D01*
X002125Y002017D02*
X001907Y002017D01*
X001907Y002089D02*
X002125Y002089D01*
X002125Y002161D02*
X001907Y002161D01*
X001907Y002233D02*
X002125Y002233D01*
X002125Y002305D02*
X001907Y002305D01*
X001907Y002377D02*
X002125Y002377D01*
X002125Y002449D02*
X001907Y002449D01*
X001907Y002521D02*
X002125Y002521D01*
X002125Y002593D02*
X001907Y002593D01*
X001907Y002665D02*
X002125Y002665D01*
X002125Y002737D02*
X001907Y002737D01*
X001907Y002809D02*
X002125Y002809D01*
X002125Y002881D02*
X001907Y002881D01*
X001907Y002953D02*
X002125Y002953D01*
X002125Y003025D02*
X001907Y003025D01*
X001907Y003097D02*
X002125Y003097D01*
X002125Y003169D02*
X001907Y003169D01*
X001907Y003241D02*
X002125Y003241D01*
X002125Y003313D02*
X001907Y003313D01*
X002625Y003155D02*
X002625Y001225D01*
X002407Y001225D01*
X002407Y003155D01*
X002625Y003155D01*
X002625Y001297D02*
X002407Y001297D01*
X002407Y001369D02*
X002625Y001369D01*
X002625Y001441D02*
X002407Y001441D01*
X002407Y001513D02*
X002625Y001513D01*
X002625Y001585D02*
X002407Y001585D01*
X002407Y001657D02*
X002625Y001657D01*
X002625Y001729D02*
X002407Y001729D01*
X002407Y001801D02*
X002625Y001801D01*
X002625Y001873D02*
X002407Y001873D01*
X002407Y001945D02*
X002625Y001945D01*
X002625Y002017D02*
X002407Y002017D01*
X002407Y002089D02*
X002625Y002089D01*
X002625Y002161D02*
X002407Y002161D01*
X002407Y002233D02*
X002625Y002233D01*
X002625Y002305D02*
X002407Y002305D01*
X002407Y002377D02*
X002625Y002377D01*
X002625Y002449D02*
X002407Y002449D01*
X002407Y002521D02*
X002625Y002521D01*
X002625Y002593D02*
X002407Y002593D01*
X002407Y002665D02*
X002625Y002665D01*
X002625Y002737D02*
X002407Y002737D01*
X002407Y002809D02*
X002625Y002809D01*
X002625Y002881D02*
X002407Y002881D01*
X002407Y002953D02*
X002625Y002953D01*
X002625Y003025D02*
X002407Y003025D01*
X002407Y003097D02*
X002625Y003097D01*
X003125Y003155D02*
X003125Y001225D01*
X002907Y001225D01*
X002907Y003155D01*
X003125Y003155D01*
X003125Y001297D02*
X002907Y001297D01*
X002907Y001369D02*
X003125Y001369D01*
X003125Y001441D02*
X002907Y001441D01*
X002907Y001513D02*
X003125Y001513D01*
X003125Y001585D02*
X002907Y001585D01*
X002907Y001657D02*
X003125Y001657D01*
X003125Y001729D02*
X002907Y001729D01*
X002907Y001801D02*
X003125Y001801D01*
X003125Y001873D02*
X002907Y001873D01*
X002907Y001945D02*
X003125Y001945D01*
X003125Y002017D02*
X002907Y002017D01*
X002907Y002089D02*
X003125Y002089D01*
X003125Y002161D02*
X002907Y002161D01*
X002907Y002233D02*
X003125Y002233D01*
X003125Y002305D02*
X002907Y002305D01*
X002907Y002377D02*
X003125Y002377D01*
X003125Y002449D02*
X002907Y002449D01*
X002907Y002521D02*
X003125Y002521D01*
X003125Y002593D02*
X002907Y002593D01*
X002907Y002665D02*
X003125Y002665D01*
X003125Y002737D02*
X002907Y002737D01*
X002907Y002809D02*
X003125Y002809D01*
X003125Y002881D02*
X002907Y002881D01*
X002907Y002953D02*
X003125Y002953D01*
X003125Y003025D02*
X002907Y003025D01*
X002907Y003097D02*
X003125Y003097D01*
X003625Y003155D02*
X003625Y001225D01*
X003407Y001225D01*
X003407Y003155D01*
X003625Y003155D01*
X003625Y001297D02*
X003407Y001297D01*
X003407Y001369D02*
X003625Y001369D01*
X003625Y001441D02*
X003407Y001441D01*
X003407Y001513D02*
X003625Y001513D01*
X003625Y001585D02*
X003407Y001585D01*
X003407Y001657D02*
X003625Y001657D01*
X003625Y001729D02*
X003407Y001729D01*
X003407Y001801D02*
X003625Y001801D01*
X003625Y001873D02*
X003407Y001873D01*
X003407Y001945D02*
X003625Y001945D01*
X003625Y002017D02*
X003407Y002017D01*
X003407Y002089D02*
X003625Y002089D01*
X003625Y002161D02*
X003407Y002161D01*
X003407Y002233D02*
X003625Y002233D01*
X003625Y002305D02*
X003407Y002305D01*
X003407Y002377D02*
X003625Y002377D01*
X003625Y002449D02*
X003407Y002449D01*
X003407Y002521D02*
X003625Y002521D01*
X003625Y002593D02*
X003407Y002593D01*
X003407Y002665D02*
X003625Y002665D01*
X003625Y002737D02*
X003407Y002737D01*
X003407Y002809D02*
X003625Y002809D01*
X003625Y002881D02*
X003407Y002881D01*
X003407Y002953D02*
X003625Y002953D01*
X003625Y003025D02*
X003407Y003025D01*
X003407Y003097D02*
X003625Y003097D01*
X004125Y003155D02*
X004125Y001225D01*
X003907Y001225D01*
X003907Y003155D01*
X004125Y003155D01*
X004125Y001297D02*
X003907Y001297D01*
X003907Y001369D02*
X004125Y001369D01*
X004125Y001441D02*
X003907Y001441D01*
X003907Y001513D02*
X004125Y001513D01*
X004125Y001585D02*
X003907Y001585D01*
X003907Y001657D02*
X004125Y001657D01*
X004125Y001729D02*
X003907Y001729D01*
X003907Y001801D02*
X004125Y001801D01*
X004125Y001873D02*
X003907Y001873D01*
X003907Y001945D02*
X004125Y001945D01*
X004125Y002017D02*
X003907Y002017D01*
X003907Y002089D02*
X004125Y002089D01*
X004125Y002161D02*
X003907Y002161D01*
X003907Y002233D02*
X004125Y002233D01*
X004125Y002305D02*
X003907Y002305D01*
X003907Y002377D02*
X004125Y002377D01*
X004125Y002449D02*
X003907Y002449D01*
X003907Y002521D02*
X004125Y002521D01*
X004125Y002593D02*
X003907Y002593D01*
X003907Y002665D02*
X004125Y002665D01*
X004125Y002737D02*
X003907Y002737D01*
X003907Y002809D02*
X004125Y002809D01*
X004125Y002881D02*
X003907Y002881D01*
X003907Y002953D02*
X004125Y002953D01*
X004125Y003025D02*
X003907Y003025D01*
X003907Y003097D02*
X004125Y003097D01*
X004625Y003155D02*
X004625Y001225D01*
X004407Y001225D01*
X004407Y003155D01*
X004625Y003155D01*
X004625Y001297D02*
X004407Y001297D01*
X004407Y001369D02*
X004625Y001369D01*
X004625Y001441D02*
X004407Y001441D01*
X004407Y001513D02*
X004625Y001513D01*
X004625Y001585D02*
X004407Y001585D01*
X004407Y001657D02*
X004625Y001657D01*
X004625Y001729D02*
X004407Y001729D01*
X004407Y001801D02*
X004625Y001801D01*
X004625Y001873D02*
X004407Y001873D01*
X004407Y001945D02*
X004625Y001945D01*
X004625Y002017D02*
X004407Y002017D01*
X004407Y002089D02*
X004625Y002089D01*
X004625Y002161D02*
X004407Y002161D01*
X004407Y002233D02*
X004625Y002233D01*
X004625Y002305D02*
X004407Y002305D01*
X004407Y002377D02*
X004625Y002377D01*
X004625Y002449D02*
X004407Y002449D01*
X004407Y002521D02*
X004625Y002521D01*
X004625Y002593D02*
X004407Y002593D01*
X004407Y002665D02*
X004625Y002665D01*
X004625Y002737D02*
X004407Y002737D01*
X004407Y002809D02*
X004625Y002809D01*
X004625Y002881D02*
X004407Y002881D01*
X004407Y002953D02*
X004625Y002953D01*
X004625Y003025D02*
X004407Y003025D01*
X004407Y003097D02*
X004625Y003097D01*
X005125Y003155D02*
X005125Y001225D01*
X004907Y001225D01*
X004907Y003155D01*
X005125Y003155D01*
X005125Y001297D02*
X004907Y001297D01*
X004907Y001369D02*
X005125Y001369D01*
X005125Y001441D02*
X004907Y001441D01*
X004907Y001513D02*
X005125Y001513D01*
X005125Y001585D02*
X004907Y001585D01*
X004907Y001657D02*
X005125Y001657D01*
X005125Y001729D02*
X004907Y001729D01*
X004907Y001801D02*
X005125Y001801D01*
X005125Y001873D02*
X004907Y001873D01*
X004907Y001945D02*
X005125Y001945D01*
X005125Y002017D02*
X004907Y002017D01*
X004907Y002089D02*
X005125Y002089D01*
X005125Y002161D02*
X004907Y002161D01*
X004907Y002233D02*
X005125Y002233D01*
X005125Y002305D02*
X004907Y002305D01*
X004907Y002377D02*
X005125Y002377D01*
X005125Y002449D02*
X004907Y002449D01*
X004907Y002521D02*
X005125Y002521D01*
X005125Y002593D02*
X004907Y002593D01*
X004907Y002665D02*
X005125Y002665D01*
X005125Y002737D02*
X004907Y002737D01*
X004907Y002809D02*
X005125Y002809D01*
X005125Y002881D02*
X004907Y002881D01*
X004907Y002953D02*
X005125Y002953D01*
X005125Y003025D02*
X004907Y003025D01*
X004907Y003097D02*
X005125Y003097D01*
X005625Y003155D02*
X005625Y001225D01*
X005407Y001225D01*
X005407Y003155D01*
X005625Y003155D01*
X005625Y001297D02*
X005407Y001297D01*
X005407Y001369D02*
X005625Y001369D01*
X005625Y001441D02*
X005407Y001441D01*
X005407Y001513D02*
X005625Y001513D01*
X005625Y001585D02*
X005407Y001585D01*
X005407Y001657D02*
X005625Y001657D01*
X005625Y001729D02*
X005407Y001729D01*
X005407Y001801D02*
X005625Y001801D01*
X005625Y001873D02*
X005407Y001873D01*
X005407Y001945D02*
X005625Y001945D01*
X005625Y002017D02*
X005407Y002017D01*
X005407Y002089D02*
X005625Y002089D01*
X005625Y002161D02*
X005407Y002161D01*
X005407Y002233D02*
X005625Y002233D01*
X005625Y002305D02*
X005407Y002305D01*
X005407Y002377D02*
X005625Y002377D01*
X005625Y002449D02*
X005407Y002449D01*
X005407Y002521D02*
X005625Y002521D01*
X005625Y002593D02*
X005407Y002593D01*
X005407Y002665D02*
X005625Y002665D01*
X005625Y002737D02*
X005407Y002737D01*
X005407Y002809D02*
X005625Y002809D01*
X005625Y002881D02*
X005407Y002881D01*
X005407Y002953D02*
X005625Y002953D01*
X005625Y003025D02*
X005407Y003025D01*
X005407Y003097D02*
X005625Y003097D01*
X006125Y003155D02*
X006125Y001225D01*
X005907Y001225D01*
X005907Y003155D01*
X006125Y003155D01*
X006125Y001297D02*
X005907Y001297D01*
X005907Y001369D02*
X006125Y001369D01*
X006125Y001441D02*
X005907Y001441D01*
X005907Y001513D02*
X006125Y001513D01*
X006125Y001585D02*
X005907Y001585D01*
X005907Y001657D02*
X006125Y001657D01*
X006125Y001729D02*
X005907Y001729D01*
X005907Y001801D02*
X006125Y001801D01*
X006125Y001873D02*
X005907Y001873D01*
X005907Y001945D02*
X006125Y001945D01*
X006125Y002017D02*
X005907Y002017D01*
X005907Y002089D02*
X006125Y002089D01*
X006125Y002161D02*
X005907Y002161D01*
X005907Y002233D02*
X006125Y002233D01*
X006125Y002305D02*
X005907Y002305D01*
X005907Y002377D02*
X006125Y002377D01*
X006125Y002449D02*
X005907Y002449D01*
X005907Y002521D02*
X006125Y002521D01*
X006125Y002593D02*
X005907Y002593D01*
X005907Y002665D02*
X006125Y002665D01*
X006125Y002737D02*
X005907Y002737D01*
X005907Y002809D02*
X006125Y002809D01*
X006125Y002881D02*
X005907Y002881D01*
X005907Y002953D02*
X006125Y002953D01*
X006125Y003025D02*
X005907Y003025D01*
X005907Y003097D02*
X006125Y003097D01*
X006625Y003155D02*
X006625Y001225D01*
X006407Y001225D01*
X006407Y003155D01*
X006625Y003155D01*
X006625Y001297D02*
X006407Y001297D01*
X006407Y001369D02*
X006625Y001369D01*
X006625Y001441D02*
X006407Y001441D01*
X006407Y001513D02*
X006625Y001513D01*
X006625Y001585D02*
X006407Y001585D01*
X006407Y001657D02*
X006625Y001657D01*
X006625Y001729D02*
X006407Y001729D01*
X006407Y001801D02*
X006625Y001801D01*
X006625Y001873D02*
X006407Y001873D01*
X006407Y001945D02*
X006625Y001945D01*
X006625Y002017D02*
X006407Y002017D01*
X006407Y002089D02*
X006625Y002089D01*
X006625Y002161D02*
X006407Y002161D01*
X006407Y002233D02*
X006625Y002233D01*
X006625Y002305D02*
X006407Y002305D01*
X006407Y002377D02*
X006625Y002377D01*
X006625Y002449D02*
X006407Y002449D01*
X006407Y002521D02*
X006625Y002521D01*
X006625Y002593D02*
X006407Y002593D01*
X006407Y002665D02*
X006625Y002665D01*
X006625Y002737D02*
X006407Y002737D01*
X006407Y002809D02*
X006625Y002809D01*
X006625Y002881D02*
X006407Y002881D01*
X006407Y002953D02*
X006625Y002953D01*
X006625Y003025D02*
X006407Y003025D01*
X006407Y003097D02*
X006625Y003097D01*
X007125Y003155D02*
X007125Y001225D01*
X006907Y001225D01*
X006907Y003155D01*
X007125Y003155D01*
X007125Y001297D02*
X006907Y001297D01*
X006907Y001369D02*
X007125Y001369D01*
X007125Y001441D02*
X006907Y001441D01*
X006907Y001513D02*
X007125Y001513D01*
X007125Y001585D02*
X006907Y001585D01*
X006907Y001657D02*
X007125Y001657D01*
X007125Y001729D02*
X006907Y001729D01*
X006907Y001801D02*
X007125Y001801D01*
X007125Y001873D02*
X006907Y001873D01*
X006907Y001945D02*
X007125Y001945D01*
X007125Y002017D02*
X006907Y002017D01*
X006907Y002089D02*
X007125Y002089D01*
X007125Y002161D02*
X006907Y002161D01*
X006907Y002233D02*
X007125Y002233D01*
X007125Y002305D02*
X006907Y002305D01*
X006907Y002377D02*
X007125Y002377D01*
X007125Y002449D02*
X006907Y002449D01*
X006907Y002521D02*
X007125Y002521D01*
X007125Y002593D02*
X006907Y002593D01*
X006907Y002665D02*
X007125Y002665D01*
X007125Y002737D02*
X006907Y002737D01*
X006907Y002809D02*
X007125Y002809D01*
X007125Y002881D02*
X006907Y002881D01*
X006907Y002953D02*
X007125Y002953D01*
X007125Y003025D02*
X006907Y003025D01*
X006907Y003097D02*
X007125Y003097D01*
X007625Y003155D02*
X007625Y001225D01*
X007407Y001225D01*
X007407Y003155D01*
X007625Y003155D01*
X007625Y001297D02*
X007407Y001297D01*
X007407Y001369D02*
X007625Y001369D01*
X007625Y001441D02*
X007407Y001441D01*
X007407Y001513D02*
X007625Y001513D01*
X007625Y001585D02*
X007407Y001585D01*
X007407Y001657D02*
X007625Y001657D01*
X007625Y001729D02*
X007407Y001729D01*
X007407Y001801D02*
X007625Y001801D01*
X007625Y001873D02*
X007407Y001873D01*
X007407Y001945D02*
X007625Y001945D01*
X007625Y002017D02*
X007407Y002017D01*
X007407Y002089D02*
X007625Y002089D01*
X007625Y002161D02*
X007407Y002161D01*
X007407Y002233D02*
X007625Y002233D01*
X007625Y002305D02*
X007407Y002305D01*
X007407Y002377D02*
X007625Y002377D01*
X007625Y002449D02*
X007407Y002449D01*
X007407Y002521D02*
X007625Y002521D01*
X007625Y002593D02*
X007407Y002593D01*
X007407Y002665D02*
X007625Y002665D01*
X007625Y002737D02*
X007407Y002737D01*
X007407Y002809D02*
X007625Y002809D01*
X007625Y002881D02*
X007407Y002881D01*
X007407Y002953D02*
X007625Y002953D01*
X007625Y003025D02*
X007407Y003025D01*
X007407Y003097D02*
X007625Y003097D01*
X008125Y003155D02*
X008125Y001225D01*
X007907Y001225D01*
X007907Y003155D01*
X008125Y003155D01*
X008125Y001297D02*
X007907Y001297D01*
X007907Y001369D02*
X008125Y001369D01*
X008125Y001441D02*
X007907Y001441D01*
X007907Y001513D02*
X008125Y001513D01*
X008125Y001585D02*
X007907Y001585D01*
X007907Y001657D02*
X008125Y001657D01*
X008125Y001729D02*
X007907Y001729D01*
X007907Y001801D02*
X008125Y001801D01*
X008125Y001873D02*
X007907Y001873D01*
X007907Y001945D02*
X008125Y001945D01*
X008125Y002017D02*
X007907Y002017D01*
X007907Y002089D02*
X008125Y002089D01*
X008125Y002161D02*
X007907Y002161D01*
X007907Y002233D02*
X008125Y002233D01*
X008125Y002305D02*
X007907Y002305D01*
X007907Y002377D02*
X008125Y002377D01*
X008125Y002449D02*
X007907Y002449D01*
X007907Y002521D02*
X008125Y002521D01*
X008125Y002593D02*
X007907Y002593D01*
X007907Y002665D02*
X008125Y002665D01*
X008125Y002737D02*
X007907Y002737D01*
X007907Y002809D02*
X008125Y002809D01*
X008125Y002881D02*
X007907Y002881D01*
X007907Y002953D02*
X008125Y002953D01*
X008125Y003025D02*
X007907Y003025D01*
X007907Y003097D02*
X008125Y003097D01*
X008625Y003155D02*
X008625Y001225D01*
X008407Y001225D01*
X008407Y003155D01*
X008625Y003155D01*
X008625Y001297D02*
X008407Y001297D01*
X008407Y001369D02*
X008625Y001369D01*
X008625Y001441D02*
X008407Y001441D01*
X008407Y001513D02*
X008625Y001513D01*
X008625Y001585D02*
X008407Y001585D01*
X008407Y001657D02*
X008625Y001657D01*
X008625Y001729D02*
X008407Y001729D01*
X008407Y001801D02*
X008625Y001801D01*
X008625Y001873D02*
X008407Y001873D01*
X008407Y001945D02*
X008625Y001945D01*
X008625Y002017D02*
X008407Y002017D01*
X008407Y002089D02*
X008625Y002089D01*
X008625Y002161D02*
X008407Y002161D01*
X008407Y002233D02*
X008625Y002233D01*
X008625Y002305D02*
X008407Y002305D01*
X008407Y002377D02*
X008625Y002377D01*
X008625Y002449D02*
X008407Y002449D01*
X008407Y002521D02*
X008625Y002521D01*
X008625Y002593D02*
X008407Y002593D01*
X008407Y002665D02*
X008625Y002665D01*
X008625Y002737D02*
X008407Y002737D01*
X008407Y002809D02*
X008625Y002809D01*
X008625Y002881D02*
X008407Y002881D01*
X008407Y002953D02*
X008625Y002953D01*
X008625Y003025D02*
X008407Y003025D01*
X008407Y003097D02*
X008625Y003097D01*
X009125Y003155D02*
X009125Y001225D01*
X008907Y001225D01*
X008907Y003155D01*
X009125Y003155D01*
X009125Y001297D02*
X008907Y001297D01*
X008907Y001369D02*
X009125Y001369D01*
X009125Y001441D02*
X008907Y001441D01*
X008907Y001513D02*
X009125Y001513D01*
X009125Y001585D02*
X008907Y001585D01*
X008907Y001657D02*
X009125Y001657D01*
X009125Y001729D02*
X008907Y001729D01*
X008907Y001801D02*
X009125Y001801D01*
X009125Y001873D02*
X008907Y001873D01*
X008907Y001945D02*
X009125Y001945D01*
X009125Y002017D02*
X008907Y002017D01*
X008907Y002089D02*
X009125Y002089D01*
X009125Y002161D02*
X008907Y002161D01*
X008907Y002233D02*
X009125Y002233D01*
X009125Y002305D02*
X008907Y002305D01*
X008907Y002377D02*
X009125Y002377D01*
X009125Y002449D02*
X008907Y002449D01*
X008907Y002521D02*
X009125Y002521D01*
X009125Y002593D02*
X008907Y002593D01*
X008907Y002665D02*
X009125Y002665D01*
X009125Y002737D02*
X008907Y002737D01*
X008907Y002809D02*
X009125Y002809D01*
X009125Y002881D02*
X008907Y002881D01*
X008907Y002953D02*
X009125Y002953D01*
X009125Y003025D02*
X008907Y003025D01*
X008907Y003097D02*
X009125Y003097D01*
X009625Y003155D02*
X009625Y001225D01*
X009407Y001225D01*
X009407Y003155D01*
X009625Y003155D01*
X009625Y001297D02*
X009407Y001297D01*
X009407Y001369D02*
X009625Y001369D01*
X009625Y001441D02*
X009407Y001441D01*
X009407Y001513D02*
X009625Y001513D01*
X009625Y001585D02*
X009407Y001585D01*
X009407Y001657D02*
X009625Y001657D01*
X009625Y001729D02*
X009407Y001729D01*
X009407Y001801D02*
X009625Y001801D01*
X009625Y001873D02*
X009407Y001873D01*
X009407Y001945D02*
X009625Y001945D01*
X009625Y002017D02*
X009407Y002017D01*
X009407Y002089D02*
X009625Y002089D01*
X009625Y002161D02*
X009407Y002161D01*
X009407Y002233D02*
X009625Y002233D01*
X009625Y002305D02*
X009407Y002305D01*
X009407Y002377D02*
X009625Y002377D01*
X009625Y002449D02*
X009407Y002449D01*
X009407Y002521D02*
X009625Y002521D01*
X009625Y002593D02*
X009407Y002593D01*
X009407Y002665D02*
X009625Y002665D01*
X009625Y002737D02*
X009407Y002737D01*
X009407Y002809D02*
X009625Y002809D01*
X009625Y002881D02*
X009407Y002881D01*
X009407Y002953D02*
X009625Y002953D01*
X009625Y003025D02*
X009407Y003025D01*
X009407Y003097D02*
X009625Y003097D01*
X010125Y003155D02*
X010125Y001225D01*
X009907Y001225D01*
X009907Y003155D01*
X010125Y003155D01*
X010125Y001297D02*
X009907Y001297D01*
X009907Y001369D02*
X010125Y001369D01*
X010125Y001441D02*
X009907Y001441D01*
X009907Y001513D02*
X010125Y001513D01*
X010125Y001585D02*
X009907Y001585D01*
X009907Y001657D02*
X010125Y001657D01*
X010125Y001729D02*
X009907Y001729D01*
X009907Y001801D02*
X010125Y001801D01*
X010125Y001873D02*
X009907Y001873D01*
X009907Y001945D02*
X010125Y001945D01*
X010125Y002017D02*
X009907Y002017D01*
X009907Y002089D02*
X010125Y002089D01*
X010125Y002161D02*
X009907Y002161D01*
X009907Y002233D02*
X010125Y002233D01*
X010125Y002305D02*
X009907Y002305D01*
X009907Y002377D02*
X010125Y002377D01*
X010125Y002449D02*
X009907Y002449D01*
X009907Y002521D02*
X010125Y002521D01*
X010125Y002593D02*
X009907Y002593D01*
X009907Y002665D02*
X010125Y002665D01*
X010125Y002737D02*
X009907Y002737D01*
X009907Y002809D02*
X010125Y002809D01*
X010125Y002881D02*
X009907Y002881D01*
X009907Y002953D02*
X010125Y002953D01*
X010125Y003025D02*
X009907Y003025D01*
X009907Y003097D02*
X010125Y003097D01*
X010625Y003155D02*
X010625Y001225D01*
X010407Y001225D01*
X010407Y003155D01*
X010625Y003155D01*
X010625Y001297D02*
X010407Y001297D01*
X010407Y001369D02*
X010625Y001369D01*
X010625Y001441D02*
X010407Y001441D01*
X010407Y001513D02*
X010625Y001513D01*
X010625Y001585D02*
X010407Y001585D01*
X010407Y001657D02*
X010625Y001657D01*
X010625Y001729D02*
X010407Y001729D01*
X010407Y001801D02*
X010625Y001801D01*
X010625Y001873D02*
X010407Y001873D01*
X010407Y001945D02*
X010625Y001945D01*
X010625Y002017D02*
X010407Y002017D01*
X010407Y002089D02*
X010625Y002089D01*
X010625Y002161D02*
X010407Y002161D01*
X010407Y002233D02*
X010625Y002233D01*
X010625Y002305D02*
X010407Y002305D01*
X010407Y002377D02*
X010625Y002377D01*
X010625Y002449D02*
X010407Y002449D01*
X010407Y002521D02*
X010625Y002521D01*
X010625Y002593D02*
X010407Y002593D01*
X010407Y002665D02*
X010625Y002665D01*
X010625Y002737D02*
X010407Y002737D01*
X010407Y002809D02*
X010625Y002809D01*
X010625Y002881D02*
X010407Y002881D01*
X010407Y002953D02*
X010625Y002953D01*
X010625Y003025D02*
X010407Y003025D01*
X010407Y003097D02*
X010625Y003097D01*
X011125Y003155D02*
X011125Y001225D01*
X010907Y001225D01*
X010907Y003155D01*
X011125Y003155D01*
X011125Y001297D02*
X010907Y001297D01*
X010907Y001369D02*
X011125Y001369D01*
X011125Y001441D02*
X010907Y001441D01*
X010907Y001513D02*
X011125Y001513D01*
X011125Y001585D02*
X010907Y001585D01*
X010907Y001657D02*
X011125Y001657D01*
X011125Y001729D02*
X010907Y001729D01*
X010907Y001801D02*
X011125Y001801D01*
X011125Y001873D02*
X010907Y001873D01*
X010907Y001945D02*
X011125Y001945D01*
X011125Y002017D02*
X010907Y002017D01*
X010907Y002089D02*
X011125Y002089D01*
X011125Y002161D02*
X010907Y002161D01*
X010907Y002233D02*
X011125Y002233D01*
X011125Y002305D02*
X010907Y002305D01*
X010907Y002377D02*
X011125Y002377D01*
X011125Y002449D02*
X010907Y002449D01*
X010907Y002521D02*
X011125Y002521D01*
X011125Y002593D02*
X010907Y002593D01*
X010907Y002665D02*
X011125Y002665D01*
X011125Y002737D02*
X010907Y002737D01*
X010907Y002809D02*
X011125Y002809D01*
X011125Y002881D02*
X010907Y002881D01*
X010907Y002953D02*
X011125Y002953D01*
X011125Y003025D02*
X010907Y003025D01*
X010907Y003097D02*
X011125Y003097D01*
X011625Y003155D02*
X011625Y001225D01*
X011407Y001225D01*
X011407Y003155D01*
X011625Y003155D01*
X011625Y001297D02*
X011407Y001297D01*
X011407Y001369D02*
X011625Y001369D01*
X011625Y001441D02*
X011407Y001441D01*
X011407Y001513D02*
X011625Y001513D01*
X011625Y001585D02*
X011407Y001585D01*
X011407Y001657D02*
X011625Y001657D01*
X011625Y001729D02*
X011407Y001729D01*
X011407Y001801D02*
X011625Y001801D01*
X011625Y001873D02*
X011407Y001873D01*
X011407Y001945D02*
X011625Y001945D01*
X011625Y002017D02*
X011407Y002017D01*
X011407Y002089D02*
X011625Y002089D01*
X011625Y002161D02*
X011407Y002161D01*
X011407Y002233D02*
X011625Y002233D01*
X011625Y002305D02*
X011407Y002305D01*
X011407Y002377D02*
X011625Y002377D01*
X011625Y002449D02*
X011407Y002449D01*
X011407Y002521D02*
X011625Y002521D01*
X011625Y002593D02*
X011407Y002593D01*
X011407Y002665D02*
X011625Y002665D01*
X011625Y002737D02*
X011407Y002737D01*
X011407Y002809D02*
X011625Y002809D01*
X011625Y002881D02*
X011407Y002881D01*
X011407Y002953D02*
X011625Y002953D01*
X011625Y003025D02*
X011407Y003025D01*
X011407Y003097D02*
X011625Y003097D01*
X012125Y003365D02*
X012125Y001045D01*
X011907Y001045D01*
X011907Y003365D01*
X012125Y003365D01*
X012125Y001117D02*
X011907Y001117D01*
X011907Y001189D02*
X012125Y001189D01*
X012125Y001261D02*
X011907Y001261D01*
X011907Y001333D02*
X012125Y001333D01*
X012125Y001405D02*
X011907Y001405D01*
X011907Y001477D02*
X012125Y001477D01*
X012125Y001549D02*
X011907Y001549D01*
X011907Y001621D02*
X012125Y001621D01*
X012125Y001693D02*
X011907Y001693D01*
X011907Y001765D02*
X012125Y001765D01*
X012125Y001837D02*
X011907Y001837D01*
X011907Y001909D02*
X012125Y001909D01*
X012125Y001981D02*
X011907Y001981D01*
X011907Y002053D02*
X012125Y002053D01*
X012125Y002125D02*
X011907Y002125D01*
X011907Y002197D02*
X012125Y002197D01*
X012125Y002269D02*
X011907Y002269D01*
X011907Y002341D02*
X012125Y002341D01*
X012125Y002413D02*
X011907Y002413D01*
X011907Y002485D02*
X012125Y002485D01*
X012125Y002557D02*
X011907Y002557D01*
X011907Y002629D02*
X012125Y002629D01*
X012125Y002701D02*
X011907Y002701D01*
X011907Y002773D02*
X012125Y002773D01*
X012125Y002845D02*
X011907Y002845D01*
X011907Y002917D02*
X012125Y002917D01*
X012125Y002989D02*
X011907Y002989D01*
X011907Y003061D02*
X012125Y003061D01*
X012125Y003133D02*
X011907Y003133D01*
X011907Y003205D02*
X012125Y003205D01*
X012125Y003277D02*
X011907Y003277D01*
X011907Y003349D02*
X012125Y003349D01*
X012625Y003155D02*
X012625Y001225D01*
X012407Y001225D01*
X012407Y003155D01*
X012625Y003155D01*
X012625Y001297D02*
X012407Y001297D01*
X012407Y001369D02*
X012625Y001369D01*
X012625Y001441D02*
X012407Y001441D01*
X012407Y001513D02*
X012625Y001513D01*
X012625Y001585D02*
X012407Y001585D01*
X012407Y001657D02*
X012625Y001657D01*
X012625Y001729D02*
X012407Y001729D01*
X012407Y001801D02*
X012625Y001801D01*
X012625Y001873D02*
X012407Y001873D01*
X012407Y001945D02*
X012625Y001945D01*
X012625Y002017D02*
X012407Y002017D01*
X012407Y002089D02*
X012625Y002089D01*
X012625Y002161D02*
X012407Y002161D01*
X012407Y002233D02*
X012625Y002233D01*
X012625Y002305D02*
X012407Y002305D01*
X012407Y002377D02*
X012625Y002377D01*
X012625Y002449D02*
X012407Y002449D01*
X012407Y002521D02*
X012625Y002521D01*
X012625Y002593D02*
X012407Y002593D01*
X012407Y002665D02*
X012625Y002665D01*
X012625Y002737D02*
X012407Y002737D01*
X012407Y002809D02*
X012625Y002809D01*
X012625Y002881D02*
X012407Y002881D01*
X012407Y002953D02*
X012625Y002953D01*
X012625Y003025D02*
X012407Y003025D01*
X012407Y003097D02*
X012625Y003097D01*
X013125Y003155D02*
X013125Y001225D01*
X012907Y001225D01*
X012907Y003155D01*
X013125Y003155D01*
X013125Y001297D02*
X012907Y001297D01*
X012907Y001369D02*
X013125Y001369D01*
X013125Y001441D02*
X012907Y001441D01*
X012907Y001513D02*
X013125Y001513D01*
X013125Y001585D02*
X012907Y001585D01*
X012907Y001657D02*
X013125Y001657D01*
X013125Y001729D02*
X012907Y001729D01*
X012907Y001801D02*
X013125Y001801D01*
X013125Y001873D02*
X012907Y001873D01*
X012907Y001945D02*
X013125Y001945D01*
X013125Y002017D02*
X012907Y002017D01*
X012907Y002089D02*
X013125Y002089D01*
X013125Y002161D02*
X012907Y002161D01*
X012907Y002233D02*
X013125Y002233D01*
X013125Y002305D02*
X012907Y002305D01*
X012907Y002377D02*
X013125Y002377D01*
X013125Y002449D02*
X012907Y002449D01*
X012907Y002521D02*
X013125Y002521D01*
X013125Y002593D02*
X012907Y002593D01*
X012907Y002665D02*
X013125Y002665D01*
X013125Y002737D02*
X012907Y002737D01*
X012907Y002809D02*
X013125Y002809D01*
X013125Y002881D02*
X012907Y002881D01*
X012907Y002953D02*
X013125Y002953D01*
X013125Y003025D02*
X012907Y003025D01*
X012907Y003097D02*
X013125Y003097D01*
X013625Y003155D02*
X013625Y001225D01*
X013407Y001225D01*
X013407Y003155D01*
X013625Y003155D01*
X013625Y001297D02*
X013407Y001297D01*
X013407Y001369D02*
X013625Y001369D01*
X013625Y001441D02*
X013407Y001441D01*
X013407Y001513D02*
X013625Y001513D01*
X013625Y001585D02*
X013407Y001585D01*
X013407Y001657D02*
X013625Y001657D01*
X013625Y001729D02*
X013407Y001729D01*
X013407Y001801D02*
X013625Y001801D01*
X013625Y001873D02*
X013407Y001873D01*
X013407Y001945D02*
X013625Y001945D01*
X013625Y002017D02*
X013407Y002017D01*
X013407Y002089D02*
X013625Y002089D01*
X013625Y002161D02*
X013407Y002161D01*
X013407Y002233D02*
X013625Y002233D01*
X013625Y002305D02*
X013407Y002305D01*
X013407Y002377D02*
X013625Y002377D01*
X013625Y002449D02*
X013407Y002449D01*
X013407Y002521D02*
X013625Y002521D01*
X013625Y002593D02*
X013407Y002593D01*
X013407Y002665D02*
X013625Y002665D01*
X013625Y002737D02*
X013407Y002737D01*
X013407Y002809D02*
X013625Y002809D01*
X013625Y002881D02*
X013407Y002881D01*
X013407Y002953D02*
X013625Y002953D01*
X013625Y003025D02*
X013407Y003025D01*
X013407Y003097D02*
X013625Y003097D01*
X014125Y003155D02*
X014125Y001225D01*
X013907Y001225D01*
X013907Y003155D01*
X014125Y003155D01*
X014125Y001297D02*
X013907Y001297D01*
X013907Y001369D02*
X014125Y001369D01*
X014125Y001441D02*
X013907Y001441D01*
X013907Y001513D02*
X014125Y001513D01*
X014125Y001585D02*
X013907Y001585D01*
X013907Y001657D02*
X014125Y001657D01*
X014125Y001729D02*
X013907Y001729D01*
X013907Y001801D02*
X014125Y001801D01*
X014125Y001873D02*
X013907Y001873D01*
X013907Y001945D02*
X014125Y001945D01*
X014125Y002017D02*
X013907Y002017D01*
X013907Y002089D02*
X014125Y002089D01*
X014125Y002161D02*
X013907Y002161D01*
X013907Y002233D02*
X014125Y002233D01*
X014125Y002305D02*
X013907Y002305D01*
X013907Y002377D02*
X014125Y002377D01*
X014125Y002449D02*
X013907Y002449D01*
X013907Y002521D02*
X014125Y002521D01*
X014125Y002593D02*
X013907Y002593D01*
X013907Y002665D02*
X014125Y002665D01*
X014125Y002737D02*
X013907Y002737D01*
X013907Y002809D02*
X014125Y002809D01*
X014125Y002881D02*
X013907Y002881D01*
X013907Y002953D02*
X014125Y002953D01*
X014125Y003025D02*
X013907Y003025D01*
X013907Y003097D02*
X014125Y003097D01*
X014625Y003155D02*
X014625Y001225D01*
X014407Y001225D01*
X014407Y003155D01*
X014625Y003155D01*
X014625Y001297D02*
X014407Y001297D01*
X014407Y001369D02*
X014625Y001369D01*
X014625Y001441D02*
X014407Y001441D01*
X014407Y001513D02*
X014625Y001513D01*
X014625Y001585D02*
X014407Y001585D01*
X014407Y001657D02*
X014625Y001657D01*
X014625Y001729D02*
X014407Y001729D01*
X014407Y001801D02*
X014625Y001801D01*
X014625Y001873D02*
X014407Y001873D01*
X014407Y001945D02*
X014625Y001945D01*
X014625Y002017D02*
X014407Y002017D01*
X014407Y002089D02*
X014625Y002089D01*
X014625Y002161D02*
X014407Y002161D01*
X014407Y002233D02*
X014625Y002233D01*
X014625Y002305D02*
X014407Y002305D01*
X014407Y002377D02*
X014625Y002377D01*
X014625Y002449D02*
X014407Y002449D01*
X014407Y002521D02*
X014625Y002521D01*
X014625Y002593D02*
X014407Y002593D01*
X014407Y002665D02*
X014625Y002665D01*
X014625Y002737D02*
X014407Y002737D01*
X014407Y002809D02*
X014625Y002809D01*
X014625Y002881D02*
X014407Y002881D01*
X014407Y002953D02*
X014625Y002953D01*
X014625Y003025D02*
X014407Y003025D01*
X014407Y003097D02*
X014625Y003097D01*
X015125Y003155D02*
X015125Y001225D01*
X014907Y001225D01*
X014907Y003155D01*
X015125Y003155D01*
X015125Y001297D02*
X014907Y001297D01*
X014907Y001369D02*
X015125Y001369D01*
X015125Y001441D02*
X014907Y001441D01*
X014907Y001513D02*
X015125Y001513D01*
X015125Y001585D02*
X014907Y001585D01*
X014907Y001657D02*
X015125Y001657D01*
X015125Y001729D02*
X014907Y001729D01*
X014907Y001801D02*
X015125Y001801D01*
X015125Y001873D02*
X014907Y001873D01*
X014907Y001945D02*
X015125Y001945D01*
X015125Y002017D02*
X014907Y002017D01*
X014907Y002089D02*
X015125Y002089D01*
X015125Y002161D02*
X014907Y002161D01*
X014907Y002233D02*
X015125Y002233D01*
X015125Y002305D02*
X014907Y002305D01*
X014907Y002377D02*
X015125Y002377D01*
X015125Y002449D02*
X014907Y002449D01*
X014907Y002521D02*
X015125Y002521D01*
X015125Y002593D02*
X014907Y002593D01*
X014907Y002665D02*
X015125Y002665D01*
X015125Y002737D02*
X014907Y002737D01*
X014907Y002809D02*
X015125Y002809D01*
X015125Y002881D02*
X014907Y002881D01*
X014907Y002953D02*
X015125Y002953D01*
X015125Y003025D02*
X014907Y003025D01*
X014907Y003097D02*
X015125Y003097D01*
X015625Y003155D02*
X015625Y001225D01*
X015407Y001225D01*
X015407Y003155D01*
X015625Y003155D01*
X015625Y001297D02*
X015407Y001297D01*
X015407Y001369D02*
X015625Y001369D01*
X015625Y001441D02*
X015407Y001441D01*
X015407Y001513D02*
X015625Y001513D01*
X015625Y001585D02*
X015407Y001585D01*
X015407Y001657D02*
X015625Y001657D01*
X015625Y001729D02*
X015407Y001729D01*
X015407Y001801D02*
X015625Y001801D01*
X015625Y001873D02*
X015407Y001873D01*
X015407Y001945D02*
X015625Y001945D01*
X015625Y002017D02*
X015407Y002017D01*
X015407Y002089D02*
X015625Y002089D01*
X015625Y002161D02*
X015407Y002161D01*
X015407Y002233D02*
X015625Y002233D01*
X015625Y002305D02*
X015407Y002305D01*
X015407Y002377D02*
X015625Y002377D01*
X015625Y002449D02*
X015407Y002449D01*
X015407Y002521D02*
X015625Y002521D01*
X015625Y002593D02*
X015407Y002593D01*
X015407Y002665D02*
X015625Y002665D01*
X015625Y002737D02*
X015407Y002737D01*
X015407Y002809D02*
X015625Y002809D01*
X015625Y002881D02*
X015407Y002881D01*
X015407Y002953D02*
X015625Y002953D01*
X015625Y003025D02*
X015407Y003025D01*
X015407Y003097D02*
X015625Y003097D01*
X016125Y003155D02*
X016125Y001225D01*
X015907Y001225D01*
X015907Y003155D01*
X016125Y003155D01*
X016125Y001297D02*
X015907Y001297D01*
X015907Y001369D02*
X016125Y001369D01*
X016125Y001441D02*
X015907Y001441D01*
X015907Y001513D02*
X016125Y001513D01*
X016125Y001585D02*
X015907Y001585D01*
X015907Y001657D02*
X016125Y001657D01*
X016125Y001729D02*
X015907Y001729D01*
X015907Y001801D02*
X016125Y001801D01*
X016125Y001873D02*
X015907Y001873D01*
X015907Y001945D02*
X016125Y001945D01*
X016125Y002017D02*
X015907Y002017D01*
X015907Y002089D02*
X016125Y002089D01*
X016125Y002161D02*
X015907Y002161D01*
X015907Y002233D02*
X016125Y002233D01*
X016125Y002305D02*
X015907Y002305D01*
X015907Y002377D02*
X016125Y002377D01*
X016125Y002449D02*
X015907Y002449D01*
X015907Y002521D02*
X016125Y002521D01*
X016125Y002593D02*
X015907Y002593D01*
X015907Y002665D02*
X016125Y002665D01*
X016125Y002737D02*
X015907Y002737D01*
X015907Y002809D02*
X016125Y002809D01*
X016125Y002881D02*
X015907Y002881D01*
X015907Y002953D02*
X016125Y002953D01*
X016125Y003025D02*
X015907Y003025D01*
X015907Y003097D02*
X016125Y003097D01*
X016625Y003155D02*
X016625Y001225D01*
X016407Y001225D01*
X016407Y003155D01*
X016625Y003155D01*
X016625Y001297D02*
X016407Y001297D01*
X016407Y001369D02*
X016625Y001369D01*
X016625Y001441D02*
X016407Y001441D01*
X016407Y001513D02*
X016625Y001513D01*
X016625Y001585D02*
X016407Y001585D01*
X016407Y001657D02*
X016625Y001657D01*
X016625Y001729D02*
X016407Y001729D01*
X016407Y001801D02*
X016625Y001801D01*
X016625Y001873D02*
X016407Y001873D01*
X016407Y001945D02*
X016625Y001945D01*
X016625Y002017D02*
X016407Y002017D01*
X016407Y002089D02*
X016625Y002089D01*
X016625Y002161D02*
X016407Y002161D01*
X016407Y002233D02*
X016625Y002233D01*
X016625Y002305D02*
X016407Y002305D01*
X016407Y002377D02*
X016625Y002377D01*
X016625Y002449D02*
X016407Y002449D01*
X016407Y002521D02*
X016625Y002521D01*
X016625Y002593D02*
X016407Y002593D01*
X016407Y002665D02*
X016625Y002665D01*
X016625Y002737D02*
X016407Y002737D01*
X016407Y002809D02*
X016625Y002809D01*
X016625Y002881D02*
X016407Y002881D01*
X016407Y002953D02*
X016625Y002953D01*
X016625Y003025D02*
X016407Y003025D01*
X016407Y003097D02*
X016625Y003097D01*
X017125Y003155D02*
X017125Y001225D01*
X016907Y001225D01*
X016907Y003155D01*
X017125Y003155D01*
X017125Y001297D02*
X016907Y001297D01*
X016907Y001369D02*
X017125Y001369D01*
X017125Y001441D02*
X016907Y001441D01*
X016907Y001513D02*
X017125Y001513D01*
X017125Y001585D02*
X016907Y001585D01*
X016907Y001657D02*
X017125Y001657D01*
X017125Y001729D02*
X016907Y001729D01*
X016907Y001801D02*
X017125Y001801D01*
X017125Y001873D02*
X016907Y001873D01*
X016907Y001945D02*
X017125Y001945D01*
X017125Y002017D02*
X016907Y002017D01*
X016907Y002089D02*
X017125Y002089D01*
X017125Y002161D02*
X016907Y002161D01*
X016907Y002233D02*
X017125Y002233D01*
X017125Y002305D02*
X016907Y002305D01*
X016907Y002377D02*
X017125Y002377D01*
X017125Y002449D02*
X016907Y002449D01*
X016907Y002521D02*
X017125Y002521D01*
X017125Y002593D02*
X016907Y002593D01*
X016907Y002665D02*
X017125Y002665D01*
X017125Y002737D02*
X016907Y002737D01*
X016907Y002809D02*
X017125Y002809D01*
X017125Y002881D02*
X016907Y002881D01*
X016907Y002953D02*
X017125Y002953D01*
X017125Y003025D02*
X016907Y003025D01*
X016907Y003097D02*
X017125Y003097D01*
X017625Y003155D02*
X017625Y001225D01*
X017407Y001225D01*
X017407Y003155D01*
X017625Y003155D01*
X017625Y001297D02*
X017407Y001297D01*
X017407Y001369D02*
X017625Y001369D01*
X017625Y001441D02*
X017407Y001441D01*
X017407Y001513D02*
X017625Y001513D01*
X017625Y001585D02*
X017407Y001585D01*
X017407Y001657D02*
X017625Y001657D01*
X017625Y001729D02*
X017407Y001729D01*
X017407Y001801D02*
X017625Y001801D01*
X017625Y001873D02*
X017407Y001873D01*
X017407Y001945D02*
X017625Y001945D01*
X017625Y002017D02*
X017407Y002017D01*
X017407Y002089D02*
X017625Y002089D01*
X017625Y002161D02*
X017407Y002161D01*
X017407Y002233D02*
X017625Y002233D01*
X017625Y002305D02*
X017407Y002305D01*
X017407Y002377D02*
X017625Y002377D01*
X017625Y002449D02*
X017407Y002449D01*
X017407Y002521D02*
X017625Y002521D01*
X017625Y002593D02*
X017407Y002593D01*
X017407Y002665D02*
X017625Y002665D01*
X017625Y002737D02*
X017407Y002737D01*
X017407Y002809D02*
X017625Y002809D01*
X017625Y002881D02*
X017407Y002881D01*
X017407Y002953D02*
X017625Y002953D01*
X017625Y003025D02*
X017407Y003025D01*
X017407Y003097D02*
X017625Y003097D01*
X018125Y003155D02*
X018125Y001225D01*
X017907Y001225D01*
X017907Y003155D01*
X018125Y003155D01*
X018125Y001297D02*
X017907Y001297D01*
X017907Y001369D02*
X018125Y001369D01*
X018125Y001441D02*
X017907Y001441D01*
X017907Y001513D02*
X018125Y001513D01*
X018125Y001585D02*
X017907Y001585D01*
X017907Y001657D02*
X018125Y001657D01*
X018125Y001729D02*
X017907Y001729D01*
X017907Y001801D02*
X018125Y001801D01*
X018125Y001873D02*
X017907Y001873D01*
X017907Y001945D02*
X018125Y001945D01*
X018125Y002017D02*
X017907Y002017D01*
X017907Y002089D02*
X018125Y002089D01*
X018125Y002161D02*
X017907Y002161D01*
X017907Y002233D02*
X018125Y002233D01*
X018125Y002305D02*
X017907Y002305D01*
X017907Y002377D02*
X018125Y002377D01*
X018125Y002449D02*
X017907Y002449D01*
X017907Y002521D02*
X018125Y002521D01*
X018125Y002593D02*
X017907Y002593D01*
X017907Y002665D02*
X018125Y002665D01*
X018125Y002737D02*
X017907Y002737D01*
X017907Y002809D02*
X018125Y002809D01*
X018125Y002881D02*
X017907Y002881D01*
X017907Y002953D02*
X018125Y002953D01*
X018125Y003025D02*
X017907Y003025D01*
X017907Y003097D02*
X018125Y003097D01*
X018625Y003155D02*
X018625Y001225D01*
X018407Y001225D01*
X018407Y003155D01*
X018625Y003155D01*
X018625Y001297D02*
X018407Y001297D01*
X018407Y001369D02*
X018625Y001369D01*
X018625Y001441D02*
X018407Y001441D01*
X018407Y001513D02*
X018625Y001513D01*
X018625Y001585D02*
X018407Y001585D01*
X018407Y001657D02*
X018625Y001657D01*
X018625Y001729D02*
X018407Y001729D01*
X018407Y001801D02*
X018625Y001801D01*
X018625Y001873D02*
X018407Y001873D01*
X018407Y001945D02*
X018625Y001945D01*
X018625Y002017D02*
X018407Y002017D01*
X018407Y002089D02*
X018625Y002089D01*
X018625Y002161D02*
X018407Y002161D01*
X018407Y002233D02*
X018625Y002233D01*
X018625Y002305D02*
X018407Y002305D01*
X018407Y002377D02*
X018625Y002377D01*
X018625Y002449D02*
X018407Y002449D01*
X018407Y002521D02*
X018625Y002521D01*
X018625Y002593D02*
X018407Y002593D01*
X018407Y002665D02*
X018625Y002665D01*
X018625Y002737D02*
X018407Y002737D01*
X018407Y002809D02*
X018625Y002809D01*
X018625Y002881D02*
X018407Y002881D01*
X018407Y002953D02*
X018625Y002953D01*
X018625Y003025D02*
X018407Y003025D01*
X018407Y003097D02*
X018625Y003097D01*
X019125Y003155D02*
X019125Y001225D01*
X018907Y001225D01*
X018907Y003155D01*
X019125Y003155D01*
X019125Y001297D02*
X018907Y001297D01*
X018907Y001369D02*
X019125Y001369D01*
X019125Y001441D02*
X018907Y001441D01*
X018907Y001513D02*
X019125Y001513D01*
X019125Y001585D02*
X018907Y001585D01*
X018907Y001657D02*
X019125Y001657D01*
X019125Y001729D02*
X018907Y001729D01*
X018907Y001801D02*
X019125Y001801D01*
X019125Y001873D02*
X018907Y001873D01*
X018907Y001945D02*
X019125Y001945D01*
X019125Y002017D02*
X018907Y002017D01*
X018907Y002089D02*
X019125Y002089D01*
X019125Y002161D02*
X018907Y002161D01*
X018907Y002233D02*
X019125Y002233D01*
X019125Y002305D02*
X018907Y002305D01*
X018907Y002377D02*
X019125Y002377D01*
X019125Y002449D02*
X018907Y002449D01*
X018907Y002521D02*
X019125Y002521D01*
X019125Y002593D02*
X018907Y002593D01*
X018907Y002665D02*
X019125Y002665D01*
X019125Y002737D02*
X018907Y002737D01*
X018907Y002809D02*
X019125Y002809D01*
X019125Y002881D02*
X018907Y002881D01*
X018907Y002953D02*
X019125Y002953D01*
X019125Y003025D02*
X018907Y003025D01*
X018907Y003097D02*
X019125Y003097D01*
X019625Y003155D02*
X019625Y001225D01*
X019407Y001225D01*
X019407Y003155D01*
X019625Y003155D01*
X019625Y001297D02*
X019407Y001297D01*
X019407Y001369D02*
X019625Y001369D01*
X019625Y001441D02*
X019407Y001441D01*
X019407Y001513D02*
X019625Y001513D01*
X019625Y001585D02*
X019407Y001585D01*
X019407Y001657D02*
X019625Y001657D01*
X019625Y001729D02*
X019407Y001729D01*
X019407Y001801D02*
X019625Y001801D01*
X019625Y001873D02*
X019407Y001873D01*
X019407Y001945D02*
X019625Y001945D01*
X019625Y002017D02*
X019407Y002017D01*
X019407Y002089D02*
X019625Y002089D01*
X019625Y002161D02*
X019407Y002161D01*
X019407Y002233D02*
X019625Y002233D01*
X019625Y002305D02*
X019407Y002305D01*
X019407Y002377D02*
X019625Y002377D01*
X019625Y002449D02*
X019407Y002449D01*
X019407Y002521D02*
X019625Y002521D01*
X019625Y002593D02*
X019407Y002593D01*
X019407Y002665D02*
X019625Y002665D01*
X019625Y002737D02*
X019407Y002737D01*
X019407Y002809D02*
X019625Y002809D01*
X019625Y002881D02*
X019407Y002881D01*
X019407Y002953D02*
X019625Y002953D01*
X019625Y003025D02*
X019407Y003025D01*
X019407Y003097D02*
X019625Y003097D01*
X020125Y003155D02*
X020125Y001225D01*
X019907Y001225D01*
X019907Y003155D01*
X020125Y003155D01*
X020125Y001297D02*
X019907Y001297D01*
X019907Y001369D02*
X020125Y001369D01*
X020125Y001441D02*
X019907Y001441D01*
X019907Y001513D02*
X020125Y001513D01*
X020125Y001585D02*
X019907Y001585D01*
X019907Y001657D02*
X020125Y001657D01*
X020125Y001729D02*
X019907Y001729D01*
X019907Y001801D02*
X020125Y001801D01*
X020125Y001873D02*
X019907Y001873D01*
X019907Y001945D02*
X020125Y001945D01*
X020125Y002017D02*
X019907Y002017D01*
X019907Y002089D02*
X020125Y002089D01*
X020125Y002161D02*
X019907Y002161D01*
X019907Y002233D02*
X020125Y002233D01*
X020125Y002305D02*
X019907Y002305D01*
X019907Y002377D02*
X020125Y002377D01*
X020125Y002449D02*
X019907Y002449D01*
X019907Y002521D02*
X020125Y002521D01*
X020125Y002593D02*
X019907Y002593D01*
X019907Y002665D02*
X020125Y002665D01*
X020125Y002737D02*
X019907Y002737D01*
X019907Y002809D02*
X020125Y002809D01*
X020125Y002881D02*
X019907Y002881D01*
X019907Y002953D02*
X020125Y002953D01*
X020125Y003025D02*
X019907Y003025D01*
X019907Y003097D02*
X020125Y003097D01*
X020625Y003355D02*
X020625Y001225D01*
X020407Y001225D01*
X020407Y003355D01*
X020625Y003355D01*
X020625Y001297D02*
X020407Y001297D01*
X020407Y001369D02*
X020625Y001369D01*
X020625Y001441D02*
X020407Y001441D01*
X020407Y001513D02*
X020625Y001513D01*
X020625Y001585D02*
X020407Y001585D01*
X020407Y001657D02*
X020625Y001657D01*
X020625Y001729D02*
X020407Y001729D01*
X020407Y001801D02*
X020625Y001801D01*
X020625Y001873D02*
X020407Y001873D01*
X020407Y001945D02*
X020625Y001945D01*
X020625Y002017D02*
X020407Y002017D01*
X020407Y002089D02*
X020625Y002089D01*
X020625Y002161D02*
X020407Y002161D01*
X020407Y002233D02*
X020625Y002233D01*
X020625Y002305D02*
X020407Y002305D01*
X020407Y002377D02*
X020625Y002377D01*
X020625Y002449D02*
X020407Y002449D01*
X020407Y002521D02*
X020625Y002521D01*
X020625Y002593D02*
X020407Y002593D01*
X020407Y002665D02*
X020625Y002665D01*
X020625Y002737D02*
X020407Y002737D01*
X020407Y002809D02*
X020625Y002809D01*
X020625Y002881D02*
X020407Y002881D01*
X020407Y002953D02*
X020625Y002953D01*
X020625Y003025D02*
X020407Y003025D01*
X020407Y003097D02*
X020625Y003097D01*
X020625Y003169D02*
X020407Y003169D01*
X020407Y003241D02*
X020625Y003241D01*
X020625Y003313D02*
X020407Y003313D01*
D12*
X020515Y003578D02*
X020515Y002490D01*
X020516Y002290D01*
X019515Y002391D02*
X019515Y003453D01*
X019015Y003453D02*
X019015Y002391D01*
X019016Y002190D01*
X018516Y002190D02*
X018515Y002391D01*
X018515Y003453D01*
X018015Y003453D02*
X018016Y003389D01*
X018016Y002190D01*
X017516Y002190D02*
X017516Y003452D01*
X017515Y003453D01*
X017015Y003453D02*
X017015Y002391D01*
X017016Y002190D01*
X016516Y002190D02*
X016516Y003389D01*
X016515Y003453D01*
X016016Y003452D02*
X016016Y002190D01*
X015516Y002190D02*
X015516Y003514D01*
X015515Y003453D01*
X015015Y003453D02*
X015015Y002390D01*
X015016Y002190D01*
X014516Y002190D02*
X014516Y003452D01*
X014515Y003453D01*
X014016Y003452D02*
X014016Y002190D01*
X013516Y002190D02*
X013516Y003452D01*
X013515Y003453D01*
X013016Y003452D02*
X013015Y003453D01*
X013016Y003452D02*
X013016Y002190D01*
X012516Y002190D02*
X012516Y003452D01*
X012515Y003453D01*
X012015Y003578D02*
X012015Y002405D01*
X012016Y002205D01*
X011516Y002190D02*
X011516Y003452D01*
X011515Y003453D01*
X011016Y003452D02*
X011015Y003453D01*
X011016Y003452D02*
X011016Y002190D01*
X010516Y002190D02*
X010516Y003452D01*
X010515Y003453D01*
X010016Y003452D02*
X010016Y002190D01*
X009516Y002190D02*
X009516Y003452D01*
X009515Y003453D01*
X009016Y003452D02*
X009015Y003453D01*
X009016Y003452D02*
X009016Y002190D01*
X008516Y002190D02*
X008516Y003452D01*
X008515Y003453D01*
X008016Y003452D02*
X008016Y002190D01*
X007516Y002190D02*
X007516Y003452D01*
X007515Y003453D01*
X007016Y003452D02*
X007015Y003453D01*
X007016Y003452D02*
X007016Y002190D01*
X006516Y002190D02*
X006516Y003452D01*
X006515Y003453D01*
X006016Y003452D02*
X006015Y003453D01*
X006016Y003452D02*
X006016Y002190D01*
X005516Y002190D02*
X005516Y003452D01*
X005515Y003453D01*
X005015Y003453D02*
X005016Y003389D01*
X005016Y002190D01*
X004516Y002190D02*
X004515Y002390D01*
X004515Y003453D01*
X004516Y003389D01*
X004016Y003389D02*
X004015Y003453D01*
X004016Y003389D02*
X004016Y002190D01*
X002016Y002290D02*
X002016Y003577D01*
X002015Y003578D01*
X008015Y003453D02*
X008016Y003452D01*
X010015Y003453D02*
X010016Y003452D01*
X014015Y003453D02*
X014016Y003452D01*
X016015Y003453D02*
X016016Y003452D01*
X012328Y017890D02*
X010265Y017890D01*
X010578Y018140D02*
X011828Y018140D01*
X012078Y018390D02*
X010828Y018390D01*
X011078Y018640D02*
X011828Y018640D01*
X012328Y017890D02*
X012765Y018328D01*
X012515Y018890D02*
X010828Y018890D01*
X010578Y019140D02*
X013015Y019140D01*
X013265Y019390D02*
X010328Y019390D01*
X010078Y019640D02*
X013515Y019640D01*
X013765Y019890D02*
X009890Y019890D01*
X009703Y020140D02*
X014015Y020140D01*
X014265Y020390D02*
X009515Y020390D01*
X009515Y021703D02*
X010265Y022453D01*
X011203Y022453D01*
X011890Y023140D01*
X012390Y023453D02*
X012390Y023703D01*
X012390Y023453D02*
X012890Y022953D01*
X012890Y022640D01*
X012828Y022578D01*
X012390Y022578D01*
X012265Y022453D01*
X012265Y022328D01*
X011453Y021515D01*
X007765Y021515D01*
X007078Y020828D01*
X007078Y020390D01*
X006703Y020390D02*
X006703Y020703D01*
X007703Y021703D01*
X009515Y021703D01*
X007890Y021140D02*
X011578Y021140D01*
X012015Y021578D01*
X012703Y021578D01*
X012828Y021703D01*
X012953Y021828D01*
X017453Y021828D01*
X018640Y023015D01*
X018640Y023765D01*
X018890Y023515D02*
X018890Y023015D01*
X017390Y021515D01*
X013140Y021515D01*
X013015Y021390D01*
X012078Y021390D01*
X011640Y020953D01*
X007953Y020953D01*
X007765Y020765D01*
X007765Y019703D01*
X007328Y019265D01*
X006640Y019265D01*
X007078Y019515D02*
X007328Y019515D01*
X007578Y019765D01*
X007578Y020828D01*
X007890Y021140D01*
X007828Y021328D02*
X011515Y021328D01*
X012515Y022328D01*
X012890Y022078D02*
X012890Y022640D01*
X013140Y022328D02*
X013265Y022203D01*
X017578Y022203D01*
X018390Y023015D01*
X018390Y024078D01*
X017953Y023765D02*
X018203Y023515D01*
X018203Y023078D01*
X017640Y022515D01*
X017515Y022515D01*
X017203Y022703D02*
X016828Y023078D01*
X013015Y023078D01*
X012640Y023453D01*
X012640Y023890D01*
X011828Y024703D01*
X007328Y024703D01*
X006828Y024203D01*
X006640Y024890D02*
X011890Y024890D01*
X012828Y023953D01*
X012828Y023515D01*
X013015Y023328D01*
X013140Y023328D01*
X017578Y023328D01*
X017390Y023515D02*
X017453Y023578D01*
X017703Y023578D01*
X017953Y023328D01*
X017953Y023765D02*
X013890Y023765D01*
X013640Y024015D01*
X013640Y024453D01*
X013203Y024890D01*
X013015Y024890D01*
X012953Y024578D02*
X013140Y024578D01*
X012953Y024578D02*
X012078Y025453D01*
X006453Y025453D01*
X005390Y024390D01*
X005390Y024128D01*
X004515Y023253D01*
X004515Y023250D01*
X004828Y023315D02*
X005578Y024065D01*
X005578Y024328D01*
X006515Y025265D01*
X012015Y025265D01*
X013140Y024140D01*
X013265Y024140D01*
X013078Y023953D02*
X013078Y023703D01*
X013140Y023703D01*
X013328Y023515D01*
X017390Y023515D01*
X013078Y023953D02*
X011953Y025078D01*
X006578Y025078D01*
X005765Y024265D01*
X005765Y024003D01*
X005140Y023378D01*
X005140Y023250D01*
X005453Y023125D02*
X005453Y023440D01*
X005953Y023940D01*
X005953Y024203D01*
X006640Y024890D01*
X006828Y022765D02*
X004125Y022765D01*
X003890Y023000D01*
X003890Y023558D01*
X004203Y023313D02*
X004203Y023125D01*
X004203Y023313D02*
X005018Y024128D01*
X005018Y024203D01*
X004828Y023315D02*
X004828Y023125D01*
X006265Y020578D02*
X006328Y020515D01*
X007265Y019828D02*
X007390Y019953D01*
X007390Y020890D01*
X007828Y021328D01*
X011703Y023890D02*
X011703Y024078D01*
X011703Y023890D02*
X012515Y023078D01*
X012515Y022890D01*
D13*
X012515Y022890D03*
X012515Y022328D03*
X012890Y022078D03*
X013140Y022328D03*
X012828Y021703D03*
X013015Y021390D03*
X014015Y020140D03*
X013765Y019890D03*
X013515Y019640D03*
X013265Y019390D03*
X013015Y019140D03*
X012515Y018890D03*
X012765Y018328D03*
X012078Y018390D03*
X011828Y018640D03*
X011828Y018140D03*
X011078Y018640D03*
X010828Y018390D03*
X010578Y018140D03*
X010265Y017890D03*
X010828Y018890D03*
X010578Y019140D03*
X010328Y019390D03*
X010078Y019640D03*
X009890Y019890D03*
X009703Y020140D03*
X009515Y020390D03*
X008890Y020453D03*
X008890Y019953D03*
X008265Y019953D03*
X008265Y020453D03*
X007265Y019828D03*
X007078Y019515D03*
X006640Y019265D03*
X006703Y020390D03*
X007078Y020390D03*
X006328Y020515D03*
X005890Y020515D03*
X007203Y022328D03*
X007640Y022328D03*
X006828Y022765D03*
X006828Y024203D03*
X005453Y023125D03*
X005140Y023250D03*
X004828Y023125D03*
X004515Y023250D03*
X004203Y023125D03*
X003890Y023558D03*
X005018Y024203D03*
X010890Y022140D03*
X011203Y021890D03*
X011890Y023140D03*
X012390Y023703D03*
X013078Y023703D03*
X013140Y023328D03*
X013265Y024140D03*
X013140Y024578D03*
X013015Y024890D03*
X011703Y024078D03*
X014265Y020390D03*
X014953Y020453D03*
X014953Y019953D03*
X015578Y019953D03*
X015578Y020453D03*
X017203Y022703D03*
X017515Y022515D03*
X017578Y023328D03*
X017953Y023328D03*
X018390Y024078D03*
X018640Y023765D03*
X018890Y023515D03*
X020515Y003578D03*
X019515Y003453D03*
X019015Y003453D03*
X018515Y003453D03*
X018015Y003453D03*
X017515Y003453D03*
X017015Y003453D03*
X016515Y003453D03*
X016015Y003453D03*
X015515Y003453D03*
X015015Y003453D03*
X014515Y003453D03*
X014015Y003453D03*
X013515Y003453D03*
X013015Y003453D03*
X012515Y003453D03*
X012015Y003578D03*
X011515Y003453D03*
X011015Y003453D03*
X010515Y003453D03*
X010015Y003453D03*
X009515Y003453D03*
X009015Y003453D03*
X008515Y003453D03*
X008015Y003453D03*
X007515Y003453D03*
X007015Y003453D03*
X006515Y003453D03*
X006015Y003453D03*
X005515Y003453D03*
X005015Y003453D03*
X004515Y003453D03*
X004015Y003453D03*
X002015Y003578D03*
D14*
X000847Y001152D02*
X000964Y000991D01*
X001124Y000874D01*
X001314Y000813D01*
X001413Y000805D01*
X021080Y000805D01*
X021188Y000817D01*
X021393Y000890D01*
X021565Y001022D01*
X021687Y001202D01*
X021749Y001410D01*
X021754Y001518D01*
X021754Y001521D01*
X021752Y001587D01*
X021754Y001589D01*
X021754Y033527D01*
X021747Y033617D01*
X021691Y033787D01*
X021586Y033932D01*
X021441Y034038D01*
X021271Y034093D01*
X021181Y034100D01*
X001351Y034100D01*
X001261Y034093D01*
X001090Y034038D01*
X000945Y033932D01*
X000840Y033787D01*
X000785Y033617D01*
X000778Y033527D01*
X000778Y001440D01*
X000785Y001341D01*
X000847Y001152D01*
X000835Y001190D02*
X001770Y001190D01*
X001770Y001169D02*
X001850Y001089D01*
X002181Y001089D01*
X002261Y001169D01*
X002261Y001337D01*
X002270Y001337D01*
X002270Y001169D01*
X002350Y001089D01*
X002681Y001089D01*
X002761Y001169D01*
X002761Y001337D01*
X002770Y001337D01*
X002770Y001169D01*
X002850Y001089D01*
X003181Y001089D01*
X003261Y001169D01*
X003261Y001337D01*
X003270Y001337D01*
X003270Y001169D01*
X003350Y001089D01*
X003681Y001089D01*
X003761Y001169D01*
X003761Y001337D01*
X003770Y001337D01*
X003770Y001169D01*
X003850Y001089D01*
X004181Y001089D01*
X004261Y001169D01*
X004261Y001337D01*
X004270Y001337D01*
X004270Y001169D01*
X004350Y001089D01*
X004681Y001089D01*
X004761Y001169D01*
X004761Y001337D01*
X004770Y001337D01*
X004770Y001169D01*
X004850Y001089D01*
X005181Y001089D01*
X005261Y001169D01*
X005261Y001337D01*
X005270Y001337D01*
X005270Y001169D01*
X005350Y001089D01*
X005681Y001089D01*
X005761Y001169D01*
X005761Y001337D01*
X005770Y001337D01*
X005770Y001169D01*
X005850Y001089D01*
X006181Y001089D01*
X006261Y001169D01*
X006261Y001337D01*
X006270Y001337D01*
X006270Y001169D01*
X006350Y001089D01*
X006681Y001089D01*
X006761Y001169D01*
X006761Y001337D01*
X006770Y001337D01*
X006770Y001169D01*
X006850Y001089D01*
X007181Y001089D01*
X007261Y001169D01*
X007261Y001337D01*
X007270Y001337D01*
X007270Y001169D01*
X007350Y001089D01*
X007681Y001089D01*
X007761Y001169D01*
X007761Y001337D01*
X007770Y001337D01*
X007770Y001169D01*
X007850Y001089D01*
X008181Y001089D01*
X008261Y001169D01*
X008261Y001337D01*
X008270Y001337D01*
X008270Y001169D01*
X008350Y001089D01*
X008681Y001089D01*
X008761Y001169D01*
X008761Y001337D01*
X008770Y001337D01*
X008770Y001169D01*
X008850Y001089D01*
X009181Y001089D01*
X009261Y001169D01*
X009261Y001337D01*
X009270Y001337D01*
X009270Y001169D01*
X009350Y001089D01*
X009681Y001089D01*
X009761Y001169D01*
X009761Y001337D01*
X009770Y001337D01*
X009770Y001169D01*
X009850Y001089D01*
X010181Y001089D01*
X010261Y001169D01*
X010261Y001337D01*
X010270Y001337D01*
X010270Y001169D01*
X010350Y001089D01*
X010681Y001089D01*
X010761Y001169D01*
X010761Y001337D01*
X010770Y001337D01*
X010770Y001169D01*
X010850Y001089D01*
X011181Y001089D01*
X011261Y001169D01*
X011261Y001337D01*
X011270Y001337D01*
X011270Y001169D01*
X011350Y001089D01*
X011681Y001089D01*
X011730Y001138D01*
X011730Y001022D01*
X011742Y000977D01*
X011766Y000937D01*
X011798Y000904D01*
X011839Y000881D01*
X011884Y000869D01*
X011983Y000869D01*
X011983Y001337D01*
X012048Y001337D01*
X012048Y000869D01*
X012148Y000869D01*
X012193Y000881D01*
X012233Y000904D01*
X012266Y000937D01*
X012289Y000977D01*
X012301Y001022D01*
X012301Y001138D01*
X012350Y001089D01*
X012681Y001089D01*
X012761Y001169D01*
X012761Y001337D01*
X012770Y001337D01*
X012770Y001169D01*
X012850Y001089D01*
X013181Y001089D01*
X013261Y001169D01*
X013261Y001337D01*
X013270Y001337D01*
X013270Y001169D01*
X013350Y001089D01*
X013681Y001089D01*
X013761Y001169D01*
X013761Y001337D01*
X013770Y001337D01*
X013770Y001169D01*
X013850Y001089D01*
X014181Y001089D01*
X014261Y001169D01*
X014261Y001337D01*
X014270Y001337D01*
X014270Y001169D01*
X014350Y001089D01*
X014681Y001089D01*
X014761Y001169D01*
X014761Y001337D01*
X014770Y001337D01*
X014770Y001169D01*
X014850Y001089D01*
X015181Y001089D01*
X015261Y001169D01*
X015261Y001337D01*
X015270Y001337D01*
X015270Y001169D01*
X015350Y001089D01*
X015681Y001089D01*
X015761Y001169D01*
X015761Y001337D01*
X015770Y001337D01*
X015770Y001169D01*
X015850Y001089D01*
X016181Y001089D01*
X016261Y001169D01*
X016261Y001337D01*
X016270Y001337D01*
X016270Y001169D01*
X016350Y001089D01*
X016681Y001089D01*
X016761Y001169D01*
X016761Y001337D01*
X016770Y001337D01*
X016770Y001169D01*
X016850Y001089D01*
X017181Y001089D01*
X017261Y001169D01*
X017261Y001337D01*
X017270Y001337D01*
X017270Y001169D01*
X017350Y001089D01*
X017681Y001089D01*
X017761Y001169D01*
X017761Y001337D01*
X017770Y001337D01*
X017770Y001169D01*
X017850Y001089D01*
X018181Y001089D01*
X018261Y001169D01*
X018261Y001337D01*
X018270Y001337D01*
X018270Y001169D01*
X018350Y001089D01*
X018681Y001089D01*
X018761Y001169D01*
X018761Y001337D01*
X018770Y001337D01*
X018770Y001169D01*
X018850Y001089D01*
X019181Y001089D01*
X019261Y001169D01*
X019261Y001337D01*
X019270Y001337D01*
X019270Y001169D01*
X019350Y001089D01*
X019681Y001089D01*
X019761Y001169D01*
X019761Y001337D01*
X019770Y001337D01*
X019770Y001169D01*
X019850Y001089D01*
X020181Y001089D01*
X020245Y001153D01*
X020266Y001117D01*
X020298Y001084D01*
X020339Y001061D01*
X020384Y001049D01*
X020483Y001049D01*
X020483Y001337D01*
X020548Y001337D01*
X020548Y001049D01*
X020648Y001049D01*
X020693Y001061D01*
X020733Y001084D01*
X020766Y001117D01*
X020789Y001157D01*
X020801Y001202D01*
X020801Y001344D01*
X020803Y001344D01*
X020832Y001347D01*
X020838Y001354D01*
X020849Y001357D01*
X020858Y001354D01*
X020884Y001366D01*
X020913Y001374D01*
X020917Y001382D01*
X020928Y001387D01*
X020937Y001385D01*
X020961Y001402D01*
X020987Y001414D01*
X020990Y001423D01*
X021000Y001430D01*
X021009Y001430D01*
X021030Y001450D01*
X021054Y001467D01*
X021056Y001476D01*
X021064Y001484D01*
X021073Y001486D01*
X021090Y001510D01*
X021110Y001531D01*
X021110Y001540D01*
X021117Y001549D01*
X021126Y001552D01*
X021138Y001579D01*
X021155Y001603D01*
X021153Y001612D01*
X021158Y001623D01*
X021166Y001627D01*
X021174Y001656D01*
X021186Y001682D01*
X021183Y001691D01*
X021186Y001702D01*
X021193Y001708D01*
X021195Y001737D01*
X021203Y001765D01*
X021199Y001773D01*
X021199Y001781D01*
X021202Y001784D01*
X021202Y001817D01*
X021205Y001850D01*
X021202Y001854D01*
X021202Y012403D01*
X021205Y012406D01*
X021202Y012440D01*
X021202Y012474D01*
X021200Y012477D01*
X021190Y012612D01*
X021194Y012618D01*
X021188Y012648D01*
X021185Y012679D01*
X021180Y012684D01*
X021150Y012819D01*
X021153Y012826D01*
X021143Y012855D01*
X021136Y012885D01*
X021130Y012889D01*
X021081Y013019D01*
X021084Y013026D01*
X021069Y013053D01*
X021058Y013082D01*
X021051Y013085D01*
X020985Y013206D01*
X020986Y013214D01*
X020967Y013238D01*
X020953Y013265D01*
X020946Y013267D01*
X020862Y013379D01*
X020862Y013386D01*
X020841Y013408D01*
X020822Y013432D01*
X020815Y013433D01*
X020717Y013531D01*
X020716Y013539D01*
X020691Y013557D01*
X020669Y013579D01*
X020662Y013579D01*
X020551Y013662D01*
X020549Y013669D01*
X020522Y013684D01*
X020497Y013702D01*
X020490Y013701D01*
X020368Y013768D01*
X020365Y013774D01*
X020336Y013785D01*
X020309Y013800D01*
X020302Y013798D01*
X020172Y013846D01*
X020168Y013853D01*
X020138Y013859D01*
X020109Y013870D01*
X020103Y013867D01*
X019967Y013896D01*
X019962Y013902D01*
X019931Y013904D01*
X019901Y013911D01*
X019895Y013907D01*
X019760Y013916D01*
X019758Y013919D01*
X019724Y013919D01*
X019690Y013921D01*
X019687Y013919D01*
X002642Y013919D01*
X002639Y013921D01*
X002605Y013919D01*
X002571Y013919D01*
X002569Y013916D01*
X002464Y013909D01*
X002458Y013913D01*
X002428Y013906D01*
X002397Y013904D01*
X002392Y013899D01*
X002286Y013875D01*
X002279Y013878D01*
X002250Y013868D01*
X002220Y013861D01*
X002216Y013855D01*
X002114Y013817D01*
X002107Y013819D01*
X002080Y013804D01*
X002051Y013794D01*
X002048Y013787D01*
X001953Y013735D01*
X001946Y013736D01*
X001921Y013717D01*
X001894Y013703D01*
X001892Y013696D01*
X001805Y013630D01*
X001798Y013630D01*
X001776Y013609D01*
X001751Y013590D01*
X001750Y013583D01*
X001673Y013506D01*
X001666Y013505D01*
X001648Y013480D01*
X001626Y013459D01*
X001626Y013451D01*
X001561Y013364D01*
X001554Y013362D01*
X001539Y013335D01*
X001521Y013311D01*
X001522Y013303D01*
X001469Y013208D01*
X001463Y013205D01*
X001452Y013176D01*
X001437Y013149D01*
X001439Y013142D01*
X001401Y013040D01*
X001395Y013036D01*
X001389Y013006D01*
X001378Y012977D01*
X001381Y012970D01*
X001358Y012864D01*
X001352Y012860D01*
X001350Y012829D01*
X001344Y012799D01*
X001348Y012793D01*
X001340Y012688D01*
X001337Y012685D01*
X001337Y012651D01*
X001335Y012617D01*
X001337Y012614D01*
X001337Y001854D01*
X001334Y001850D01*
X001337Y001817D01*
X001337Y001784D01*
X001341Y001781D01*
X001341Y001773D01*
X001337Y001765D01*
X001344Y001737D01*
X001347Y001708D01*
X001354Y001702D01*
X001357Y001691D01*
X001354Y001682D01*
X001366Y001656D01*
X001374Y001627D01*
X001382Y001623D01*
X001387Y001612D01*
X001385Y001603D01*
X001402Y001579D01*
X001414Y001552D01*
X001423Y001549D01*
X001430Y001540D01*
X001430Y001531D01*
X001450Y001510D01*
X001467Y001486D01*
X001476Y001484D01*
X001484Y001476D01*
X001486Y001467D01*
X001510Y001450D01*
X001531Y001430D01*
X001540Y001430D01*
X001549Y001423D01*
X001552Y001414D01*
X001579Y001402D01*
X001603Y001385D01*
X001612Y001387D01*
X001623Y001382D01*
X001627Y001374D01*
X001656Y001366D01*
X001682Y001354D01*
X001691Y001357D01*
X001702Y001354D01*
X001708Y001347D01*
X001737Y001344D01*
X001765Y001337D01*
X001770Y001340D01*
X001770Y001169D01*
X001828Y001111D02*
X000877Y001111D01*
X000934Y001033D02*
X011730Y001033D01*
X011730Y001111D02*
X011703Y001111D01*
X011756Y000954D02*
X001015Y000954D01*
X001123Y000876D02*
X011858Y000876D01*
X011983Y000876D02*
X012048Y000876D01*
X012048Y000954D02*
X011983Y000954D01*
X011983Y001033D02*
X012048Y001033D01*
X012048Y001111D02*
X011983Y001111D01*
X011983Y001190D02*
X012048Y001190D01*
X012048Y001268D02*
X011983Y001268D01*
X012173Y000876D02*
X021353Y000876D01*
X021476Y000954D02*
X012276Y000954D01*
X012301Y001033D02*
X021572Y001033D01*
X021625Y001111D02*
X020760Y001111D01*
X020798Y001190D02*
X021679Y001190D01*
X021707Y001268D02*
X020801Y001268D01*
X020827Y001347D02*
X021730Y001347D01*
X021749Y001425D02*
X020994Y001425D01*
X021085Y001504D02*
X021753Y001504D01*
X021752Y001582D02*
X021140Y001582D01*
X021176Y001661D02*
X021754Y001661D01*
X021754Y001739D02*
X021196Y001739D01*
X021202Y001818D02*
X021754Y001818D01*
X021754Y001896D02*
X021202Y001896D01*
X021202Y001975D02*
X021754Y001975D01*
X021754Y002053D02*
X021202Y002053D01*
X021202Y002132D02*
X021754Y002132D01*
X021754Y002210D02*
X021202Y002210D01*
X021202Y002289D02*
X021754Y002289D01*
X021754Y002367D02*
X021202Y002367D01*
X021202Y002446D02*
X021754Y002446D01*
X021754Y002524D02*
X021202Y002524D01*
X021202Y002603D02*
X021754Y002603D01*
X021754Y002681D02*
X021202Y002681D01*
X021202Y002760D02*
X021754Y002760D01*
X021754Y002838D02*
X021202Y002838D01*
X021202Y002917D02*
X021754Y002917D01*
X021754Y002995D02*
X021202Y002995D01*
X021202Y003074D02*
X021754Y003074D01*
X021754Y003152D02*
X021202Y003152D01*
X021202Y003231D02*
X021754Y003231D01*
X021754Y003309D02*
X021202Y003309D01*
X021202Y003388D02*
X021754Y003388D01*
X021754Y003466D02*
X021202Y003466D01*
X021202Y003545D02*
X021754Y003545D01*
X021754Y003623D02*
X021202Y003623D01*
X021202Y003702D02*
X021754Y003702D01*
X021754Y003780D02*
X021202Y003780D01*
X021202Y003859D02*
X021754Y003859D01*
X021754Y003937D02*
X021202Y003937D01*
X021202Y004016D02*
X021754Y004016D01*
X021754Y004094D02*
X021202Y004094D01*
X021202Y004173D02*
X021754Y004173D01*
X021754Y004251D02*
X021202Y004251D01*
X021202Y004330D02*
X021754Y004330D01*
X021754Y004408D02*
X021202Y004408D01*
X021202Y004487D02*
X021754Y004487D01*
X021754Y004565D02*
X021202Y004565D01*
X021202Y004644D02*
X021754Y004644D01*
X021754Y004722D02*
X021202Y004722D01*
X021202Y004801D02*
X021754Y004801D01*
X021754Y004879D02*
X021202Y004879D01*
X021202Y004958D02*
X021754Y004958D01*
X021754Y005036D02*
X021202Y005036D01*
X021202Y005115D02*
X021754Y005115D01*
X021754Y005193D02*
X021202Y005193D01*
X021202Y005272D02*
X021754Y005272D01*
X021754Y005350D02*
X021202Y005350D01*
X021202Y005429D02*
X021754Y005429D01*
X021754Y005507D02*
X021202Y005507D01*
X021202Y005586D02*
X021754Y005586D01*
X021754Y005664D02*
X021202Y005664D01*
X021202Y005743D02*
X021754Y005743D01*
X021754Y005821D02*
X021202Y005821D01*
X021202Y005900D02*
X021754Y005900D01*
X021754Y005978D02*
X021202Y005978D01*
X021202Y006057D02*
X021754Y006057D01*
X021754Y006135D02*
X021202Y006135D01*
X021202Y006214D02*
X021754Y006214D01*
X021754Y006292D02*
X021202Y006292D01*
X021202Y006371D02*
X021754Y006371D01*
X021754Y006449D02*
X021202Y006449D01*
X021202Y006528D02*
X021754Y006528D01*
X021754Y006606D02*
X021202Y006606D01*
X021202Y006685D02*
X021754Y006685D01*
X021754Y006763D02*
X021202Y006763D01*
X021202Y006842D02*
X021754Y006842D01*
X021754Y006920D02*
X021202Y006920D01*
X021202Y006999D02*
X021754Y006999D01*
X021754Y007077D02*
X021202Y007077D01*
X021202Y007156D02*
X021754Y007156D01*
X021754Y007234D02*
X021202Y007234D01*
X021202Y007313D02*
X021754Y007313D01*
X021754Y007391D02*
X021202Y007391D01*
X021202Y007470D02*
X021754Y007470D01*
X021754Y007548D02*
X021202Y007548D01*
X021202Y007627D02*
X021754Y007627D01*
X021754Y007705D02*
X021202Y007705D01*
X021202Y007784D02*
X021754Y007784D01*
X021754Y007862D02*
X021202Y007862D01*
X021202Y007941D02*
X021754Y007941D01*
X021754Y008019D02*
X021202Y008019D01*
X021202Y008098D02*
X021754Y008098D01*
X021754Y008176D02*
X021202Y008176D01*
X021202Y008255D02*
X021754Y008255D01*
X021754Y008333D02*
X021202Y008333D01*
X021202Y008412D02*
X021754Y008412D01*
X021754Y008490D02*
X021202Y008490D01*
X021202Y008569D02*
X021754Y008569D01*
X021754Y008647D02*
X021202Y008647D01*
X021202Y008726D02*
X021754Y008726D01*
X021754Y008804D02*
X021202Y008804D01*
X021202Y008883D02*
X021754Y008883D01*
X021754Y008961D02*
X021202Y008961D01*
X021202Y009040D02*
X021754Y009040D01*
X021754Y009118D02*
X021202Y009118D01*
X021202Y009197D02*
X021754Y009197D01*
X021754Y009275D02*
X021202Y009275D01*
X021202Y009354D02*
X021754Y009354D01*
X021754Y009432D02*
X021202Y009432D01*
X021202Y009511D02*
X021754Y009511D01*
X021754Y009589D02*
X021202Y009589D01*
X021202Y009668D02*
X021754Y009668D01*
X021754Y009746D02*
X021202Y009746D01*
X021202Y009825D02*
X021754Y009825D01*
X021754Y009903D02*
X021202Y009903D01*
X021202Y009982D02*
X021754Y009982D01*
X021754Y010060D02*
X021202Y010060D01*
X021202Y010139D02*
X021754Y010139D01*
X021754Y010217D02*
X021202Y010217D01*
X021202Y010296D02*
X021754Y010296D01*
X021754Y010374D02*
X021202Y010374D01*
X021202Y010453D02*
X021754Y010453D01*
X021754Y010531D02*
X021202Y010531D01*
X021202Y010610D02*
X021754Y010610D01*
X021754Y010688D02*
X021202Y010688D01*
X021202Y010767D02*
X021754Y010767D01*
X021754Y010845D02*
X021202Y010845D01*
X021202Y010924D02*
X021754Y010924D01*
X021754Y011002D02*
X021202Y011002D01*
X021202Y011081D02*
X021754Y011081D01*
X021754Y011159D02*
X021202Y011159D01*
X021202Y011238D02*
X021754Y011238D01*
X021754Y011316D02*
X021202Y011316D01*
X021202Y011395D02*
X021754Y011395D01*
X021754Y011473D02*
X021202Y011473D01*
X021202Y011552D02*
X021754Y011552D01*
X021754Y011630D02*
X021202Y011630D01*
X021202Y011709D02*
X021754Y011709D01*
X021754Y011787D02*
X021202Y011787D01*
X021202Y011866D02*
X021754Y011866D01*
X021754Y011944D02*
X021202Y011944D01*
X021202Y012023D02*
X021754Y012023D01*
X021754Y012101D02*
X021202Y012101D01*
X021202Y012180D02*
X021754Y012180D01*
X021754Y012258D02*
X021202Y012258D01*
X021202Y012337D02*
X021754Y012337D01*
X021754Y012415D02*
X021204Y012415D01*
X021199Y012494D02*
X021754Y012494D01*
X021754Y012572D02*
X021193Y012572D01*
X021187Y012651D02*
X021754Y012651D01*
X021754Y012729D02*
X021170Y012729D01*
X021153Y012808D02*
X021754Y012808D01*
X021754Y012886D02*
X021134Y012886D01*
X021102Y012965D02*
X021754Y012965D01*
X021754Y013043D02*
X021074Y013043D01*
X021031Y013122D02*
X021754Y013122D01*
X021754Y013200D02*
X020988Y013200D01*
X020937Y013279D02*
X021754Y013279D01*
X021754Y013357D02*
X020879Y013357D01*
X020813Y013436D02*
X021754Y013436D01*
X021754Y013514D02*
X020734Y013514D01*
X020644Y013593D02*
X021754Y013593D01*
X021754Y013671D02*
X020545Y013671D01*
X020402Y013750D02*
X021754Y013750D01*
X021754Y013828D02*
X020222Y013828D01*
X019920Y013907D02*
X021754Y013907D01*
X021754Y013985D02*
X000778Y013985D01*
X000778Y013907D02*
X002429Y013907D01*
X002144Y013828D02*
X000778Y013828D01*
X000778Y013750D02*
X001980Y013750D01*
X001859Y013671D02*
X000778Y013671D01*
X000778Y013593D02*
X001754Y013593D01*
X001681Y013514D02*
X000778Y013514D01*
X000778Y013436D02*
X001614Y013436D01*
X001551Y013357D02*
X000778Y013357D01*
X000778Y013279D02*
X001508Y013279D01*
X001461Y013200D02*
X000778Y013200D01*
X000778Y013122D02*
X001432Y013122D01*
X001402Y013043D02*
X000778Y013043D01*
X000778Y012965D02*
X001380Y012965D01*
X001363Y012886D02*
X000778Y012886D01*
X000778Y012808D02*
X001345Y012808D01*
X001343Y012729D02*
X000778Y012729D01*
X000778Y012651D02*
X001337Y012651D01*
X001337Y012572D02*
X000778Y012572D01*
X000778Y012494D02*
X001337Y012494D01*
X001337Y012415D02*
X000778Y012415D01*
X000778Y012337D02*
X001337Y012337D01*
X001337Y012258D02*
X000778Y012258D01*
X000778Y012180D02*
X001337Y012180D01*
X001337Y012101D02*
X000778Y012101D01*
X000778Y012023D02*
X001337Y012023D01*
X001337Y011944D02*
X000778Y011944D01*
X000778Y011866D02*
X001337Y011866D01*
X001337Y011787D02*
X000778Y011787D01*
X000778Y011709D02*
X001337Y011709D01*
X001337Y011630D02*
X000778Y011630D01*
X000778Y011552D02*
X001337Y011552D01*
X001337Y011473D02*
X000778Y011473D01*
X000778Y011395D02*
X001337Y011395D01*
X001337Y011316D02*
X000778Y011316D01*
X000778Y011238D02*
X001337Y011238D01*
X001337Y011159D02*
X000778Y011159D01*
X000778Y011081D02*
X001337Y011081D01*
X001337Y011002D02*
X000778Y011002D01*
X000778Y010924D02*
X001337Y010924D01*
X001337Y010845D02*
X000778Y010845D01*
X000778Y010767D02*
X001337Y010767D01*
X001337Y010688D02*
X000778Y010688D01*
X000778Y010610D02*
X001337Y010610D01*
X001337Y010531D02*
X000778Y010531D01*
X000778Y010453D02*
X001337Y010453D01*
X001337Y010374D02*
X000778Y010374D01*
X000778Y010296D02*
X001337Y010296D01*
X001337Y010217D02*
X000778Y010217D01*
X000778Y010139D02*
X001337Y010139D01*
X001337Y010060D02*
X000778Y010060D01*
X000778Y009982D02*
X001337Y009982D01*
X001337Y009903D02*
X000778Y009903D01*
X000778Y009825D02*
X001337Y009825D01*
X001337Y009746D02*
X000778Y009746D01*
X000778Y009668D02*
X001337Y009668D01*
X001337Y009589D02*
X000778Y009589D01*
X000778Y009511D02*
X001337Y009511D01*
X001337Y009432D02*
X000778Y009432D01*
X000778Y009354D02*
X001337Y009354D01*
X001337Y009275D02*
X000778Y009275D01*
X000778Y009197D02*
X001337Y009197D01*
X001337Y009118D02*
X000778Y009118D01*
X000778Y009040D02*
X001337Y009040D01*
X001337Y008961D02*
X000778Y008961D01*
X000778Y008883D02*
X001337Y008883D01*
X001337Y008804D02*
X000778Y008804D01*
X000778Y008726D02*
X001337Y008726D01*
X001337Y008647D02*
X000778Y008647D01*
X000778Y008569D02*
X001337Y008569D01*
X001337Y008490D02*
X000778Y008490D01*
X000778Y008412D02*
X001337Y008412D01*
X001337Y008333D02*
X000778Y008333D01*
X000778Y008255D02*
X001337Y008255D01*
X001337Y008176D02*
X000778Y008176D01*
X000778Y008098D02*
X001337Y008098D01*
X001337Y008019D02*
X000778Y008019D01*
X000778Y007941D02*
X001337Y007941D01*
X001337Y007862D02*
X000778Y007862D01*
X000778Y007784D02*
X001337Y007784D01*
X001337Y007705D02*
X000778Y007705D01*
X000778Y007627D02*
X001337Y007627D01*
X001337Y007548D02*
X000778Y007548D01*
X000778Y007470D02*
X001337Y007470D01*
X001337Y007391D02*
X000778Y007391D01*
X000778Y007313D02*
X001337Y007313D01*
X001337Y007234D02*
X000778Y007234D01*
X000778Y007156D02*
X001337Y007156D01*
X001337Y007077D02*
X000778Y007077D01*
X000778Y006999D02*
X001337Y006999D01*
X001337Y006920D02*
X000778Y006920D01*
X000778Y006842D02*
X001337Y006842D01*
X001337Y006763D02*
X000778Y006763D01*
X000778Y006685D02*
X001337Y006685D01*
X001337Y006606D02*
X000778Y006606D01*
X000778Y006528D02*
X001337Y006528D01*
X001337Y006449D02*
X000778Y006449D01*
X000778Y006371D02*
X001337Y006371D01*
X001337Y006292D02*
X000778Y006292D01*
X000778Y006214D02*
X001337Y006214D01*
X001337Y006135D02*
X000778Y006135D01*
X000778Y006057D02*
X001337Y006057D01*
X001337Y005978D02*
X000778Y005978D01*
X000778Y005900D02*
X001337Y005900D01*
X001337Y005821D02*
X000778Y005821D01*
X000778Y005743D02*
X001337Y005743D01*
X001337Y005664D02*
X000778Y005664D01*
X000778Y005586D02*
X001337Y005586D01*
X001337Y005507D02*
X000778Y005507D01*
X000778Y005429D02*
X001337Y005429D01*
X001337Y005350D02*
X000778Y005350D01*
X000778Y005272D02*
X001337Y005272D01*
X001337Y005193D02*
X000778Y005193D01*
X000778Y005115D02*
X001337Y005115D01*
X001337Y005036D02*
X000778Y005036D01*
X000778Y004958D02*
X001337Y004958D01*
X001337Y004879D02*
X000778Y004879D01*
X000778Y004801D02*
X001337Y004801D01*
X001337Y004722D02*
X000778Y004722D01*
X000778Y004644D02*
X001337Y004644D01*
X001337Y004565D02*
X000778Y004565D01*
X000778Y004487D02*
X001337Y004487D01*
X001337Y004408D02*
X000778Y004408D01*
X000778Y004330D02*
X001337Y004330D01*
X001337Y004251D02*
X000778Y004251D01*
X000778Y004173D02*
X001337Y004173D01*
X001337Y004094D02*
X000778Y004094D01*
X000778Y004016D02*
X001337Y004016D01*
X001337Y003937D02*
X000778Y003937D01*
X000778Y003859D02*
X001337Y003859D01*
X001337Y003780D02*
X000778Y003780D01*
X000778Y003702D02*
X001337Y003702D01*
X001337Y003623D02*
X000778Y003623D01*
X000778Y003545D02*
X001337Y003545D01*
X001337Y003466D02*
X000778Y003466D01*
X000778Y003388D02*
X001337Y003388D01*
X001337Y003309D02*
X000778Y003309D01*
X000778Y003231D02*
X001337Y003231D01*
X001337Y003152D02*
X000778Y003152D01*
X000778Y003074D02*
X001337Y003074D01*
X001337Y002995D02*
X000778Y002995D01*
X000778Y002917D02*
X001337Y002917D01*
X001337Y002838D02*
X000778Y002838D01*
X000778Y002760D02*
X001337Y002760D01*
X001337Y002681D02*
X000778Y002681D01*
X000778Y002603D02*
X001337Y002603D01*
X001337Y002524D02*
X000778Y002524D01*
X000778Y002446D02*
X001337Y002446D01*
X001337Y002367D02*
X000778Y002367D01*
X000778Y002289D02*
X001337Y002289D01*
X001337Y002210D02*
X000778Y002210D01*
X000778Y002132D02*
X001337Y002132D01*
X001337Y002053D02*
X000778Y002053D01*
X000778Y001975D02*
X001337Y001975D01*
X001337Y001896D02*
X000778Y001896D01*
X000778Y001818D02*
X001337Y001818D01*
X001344Y001739D02*
X000778Y001739D01*
X000778Y001661D02*
X001364Y001661D01*
X001400Y001582D02*
X000778Y001582D01*
X000778Y001504D02*
X001455Y001504D01*
X001546Y001425D02*
X000779Y001425D01*
X000785Y001347D02*
X001713Y001347D01*
X001770Y001268D02*
X000809Y001268D01*
X002203Y001111D02*
X002328Y001111D01*
X002270Y001190D02*
X002261Y001190D01*
X002261Y001268D02*
X002270Y001268D01*
X002703Y001111D02*
X002828Y001111D01*
X002770Y001190D02*
X002761Y001190D01*
X002761Y001268D02*
X002770Y001268D01*
X003203Y001111D02*
X003328Y001111D01*
X003270Y001190D02*
X003261Y001190D01*
X003261Y001268D02*
X003270Y001268D01*
X003703Y001111D02*
X003828Y001111D01*
X003770Y001190D02*
X003761Y001190D01*
X003761Y001268D02*
X003770Y001268D01*
X004203Y001111D02*
X004328Y001111D01*
X004270Y001190D02*
X004261Y001190D01*
X004261Y001268D02*
X004270Y001268D01*
X004703Y001111D02*
X004828Y001111D01*
X004770Y001190D02*
X004761Y001190D01*
X004761Y001268D02*
X004770Y001268D01*
X005203Y001111D02*
X005328Y001111D01*
X005270Y001190D02*
X005261Y001190D01*
X005261Y001268D02*
X005270Y001268D01*
X005703Y001111D02*
X005828Y001111D01*
X005770Y001190D02*
X005761Y001190D01*
X005761Y001268D02*
X005770Y001268D01*
X006203Y001111D02*
X006328Y001111D01*
X006270Y001190D02*
X006261Y001190D01*
X006261Y001268D02*
X006270Y001268D01*
X006703Y001111D02*
X006828Y001111D01*
X006770Y001190D02*
X006761Y001190D01*
X006761Y001268D02*
X006770Y001268D01*
X007203Y001111D02*
X007328Y001111D01*
X007270Y001190D02*
X007261Y001190D01*
X007261Y001268D02*
X007270Y001268D01*
X007703Y001111D02*
X007828Y001111D01*
X007770Y001190D02*
X007761Y001190D01*
X007761Y001268D02*
X007770Y001268D01*
X008203Y001111D02*
X008328Y001111D01*
X008270Y001190D02*
X008261Y001190D01*
X008261Y001268D02*
X008270Y001268D01*
X008703Y001111D02*
X008828Y001111D01*
X008770Y001190D02*
X008761Y001190D01*
X008761Y001268D02*
X008770Y001268D01*
X009203Y001111D02*
X009328Y001111D01*
X009270Y001190D02*
X009261Y001190D01*
X009261Y001268D02*
X009270Y001268D01*
X009703Y001111D02*
X009828Y001111D01*
X009770Y001190D02*
X009761Y001190D01*
X009761Y001268D02*
X009770Y001268D01*
X010203Y001111D02*
X010328Y001111D01*
X010270Y001190D02*
X010261Y001190D01*
X010261Y001268D02*
X010270Y001268D01*
X010703Y001111D02*
X010828Y001111D01*
X010770Y001190D02*
X010761Y001190D01*
X010761Y001268D02*
X010770Y001268D01*
X011203Y001111D02*
X011328Y001111D01*
X011270Y001190D02*
X011261Y001190D01*
X011261Y001268D02*
X011270Y001268D01*
X012301Y001111D02*
X012328Y001111D01*
X012703Y001111D02*
X012828Y001111D01*
X012770Y001190D02*
X012761Y001190D01*
X012761Y001268D02*
X012770Y001268D01*
X013203Y001111D02*
X013328Y001111D01*
X013270Y001190D02*
X013261Y001190D01*
X013261Y001268D02*
X013270Y001268D01*
X013703Y001111D02*
X013828Y001111D01*
X013770Y001190D02*
X013761Y001190D01*
X013761Y001268D02*
X013770Y001268D01*
X014203Y001111D02*
X014328Y001111D01*
X014270Y001190D02*
X014261Y001190D01*
X014261Y001268D02*
X014270Y001268D01*
X014703Y001111D02*
X014828Y001111D01*
X014770Y001190D02*
X014761Y001190D01*
X014761Y001268D02*
X014770Y001268D01*
X015203Y001111D02*
X015328Y001111D01*
X015270Y001190D02*
X015261Y001190D01*
X015261Y001268D02*
X015270Y001268D01*
X015703Y001111D02*
X015828Y001111D01*
X015770Y001190D02*
X015761Y001190D01*
X015761Y001268D02*
X015770Y001268D01*
X016203Y001111D02*
X016328Y001111D01*
X016270Y001190D02*
X016261Y001190D01*
X016261Y001268D02*
X016270Y001268D01*
X016703Y001111D02*
X016828Y001111D01*
X016770Y001190D02*
X016761Y001190D01*
X016761Y001268D02*
X016770Y001268D01*
X017203Y001111D02*
X017328Y001111D01*
X017270Y001190D02*
X017261Y001190D01*
X017261Y001268D02*
X017270Y001268D01*
X017703Y001111D02*
X017828Y001111D01*
X017770Y001190D02*
X017761Y001190D01*
X017761Y001268D02*
X017770Y001268D01*
X018203Y001111D02*
X018328Y001111D01*
X018270Y001190D02*
X018261Y001190D01*
X018261Y001268D02*
X018270Y001268D01*
X018703Y001111D02*
X018828Y001111D01*
X018770Y001190D02*
X018761Y001190D01*
X018761Y001268D02*
X018770Y001268D01*
X019203Y001111D02*
X019328Y001111D01*
X019270Y001190D02*
X019261Y001190D01*
X019261Y001268D02*
X019270Y001268D01*
X019703Y001111D02*
X019828Y001111D01*
X019770Y001190D02*
X019761Y001190D01*
X019761Y001268D02*
X019770Y001268D01*
X020203Y001111D02*
X020272Y001111D01*
X020483Y001111D02*
X020548Y001111D01*
X020548Y001190D02*
X020483Y001190D01*
X020483Y001268D02*
X020548Y001268D01*
X021754Y014064D02*
X000778Y014064D01*
X000778Y014142D02*
X021754Y014142D01*
X021754Y014221D02*
X000778Y014221D01*
X000778Y014299D02*
X021754Y014299D01*
X021754Y014378D02*
X000778Y014378D01*
X000778Y014456D02*
X021754Y014456D01*
X021754Y014535D02*
X000778Y014535D01*
X000778Y014613D02*
X021754Y014613D01*
X021754Y014692D02*
X000778Y014692D01*
X000778Y014770D02*
X021754Y014770D01*
X021754Y014849D02*
X021202Y014849D01*
X021202Y014838D02*
X021202Y014913D01*
X021202Y031705D01*
X021202Y031780D01*
X021150Y031832D01*
X001390Y031832D01*
X001337Y031780D01*
X001337Y014838D01*
X001390Y014786D01*
X021150Y014786D01*
X021202Y014838D01*
X021202Y014927D02*
X021754Y014927D01*
X021754Y015006D02*
X021202Y015006D01*
X021202Y015084D02*
X021754Y015084D01*
X021754Y015163D02*
X021202Y015163D01*
X021202Y015241D02*
X021754Y015241D01*
X021754Y015320D02*
X021202Y015320D01*
X021202Y015398D02*
X021754Y015398D01*
X021754Y015477D02*
X021202Y015477D01*
X021202Y015555D02*
X021754Y015555D01*
X021754Y015634D02*
X021202Y015634D01*
X021202Y015712D02*
X021754Y015712D01*
X021754Y015791D02*
X021202Y015791D01*
X021202Y015869D02*
X021754Y015869D01*
X021754Y015948D02*
X021202Y015948D01*
X021202Y016026D02*
X021754Y016026D01*
X021754Y016105D02*
X021202Y016105D01*
X021202Y016183D02*
X021754Y016183D01*
X021754Y016262D02*
X021202Y016262D01*
X021202Y016340D02*
X021754Y016340D01*
X021754Y016419D02*
X021202Y016419D01*
X021202Y016497D02*
X021754Y016497D01*
X021754Y016576D02*
X021202Y016576D01*
X021202Y016654D02*
X021754Y016654D01*
X021754Y016733D02*
X021202Y016733D01*
X021202Y016811D02*
X021754Y016811D01*
X021754Y016890D02*
X021202Y016890D01*
X021202Y016968D02*
X021754Y016968D01*
X021754Y017047D02*
X021202Y017047D01*
X021202Y017125D02*
X021754Y017125D01*
X021754Y017204D02*
X021202Y017204D01*
X021202Y017282D02*
X021754Y017282D01*
X021754Y017361D02*
X021202Y017361D01*
X021202Y017439D02*
X021754Y017439D01*
X021754Y017518D02*
X021202Y017518D01*
X021202Y017596D02*
X021754Y017596D01*
X021754Y017675D02*
X021202Y017675D01*
X021202Y017753D02*
X021754Y017753D01*
X021754Y017832D02*
X021202Y017832D01*
X021202Y017910D02*
X021754Y017910D01*
X021754Y017989D02*
X021202Y017989D01*
X021202Y018067D02*
X021754Y018067D01*
X021754Y018146D02*
X021202Y018146D01*
X021202Y018224D02*
X021754Y018224D01*
X021754Y018303D02*
X021202Y018303D01*
X021202Y018381D02*
X021754Y018381D01*
X021754Y018460D02*
X021202Y018460D01*
X021202Y018538D02*
X021754Y018538D01*
X021754Y018617D02*
X021202Y018617D01*
X021202Y018695D02*
X021754Y018695D01*
X021754Y018774D02*
X021202Y018774D01*
X021202Y018852D02*
X021754Y018852D01*
X021754Y018931D02*
X021202Y018931D01*
X021202Y019009D02*
X021754Y019009D01*
X021754Y019088D02*
X021202Y019088D01*
X021202Y019166D02*
X021754Y019166D01*
X021754Y019245D02*
X021202Y019245D01*
X021202Y019323D02*
X021754Y019323D01*
X021754Y019402D02*
X021202Y019402D01*
X021202Y019480D02*
X021754Y019480D01*
X021754Y019559D02*
X021202Y019559D01*
X021202Y019637D02*
X021754Y019637D01*
X021754Y019716D02*
X021202Y019716D01*
X021202Y019794D02*
X021754Y019794D01*
X021754Y019873D02*
X021202Y019873D01*
X021202Y019951D02*
X021754Y019951D01*
X021754Y020030D02*
X021202Y020030D01*
X021202Y020108D02*
X021754Y020108D01*
X021754Y020187D02*
X021202Y020187D01*
X021202Y020265D02*
X021754Y020265D01*
X021754Y020344D02*
X021202Y020344D01*
X021202Y020422D02*
X021754Y020422D01*
X021754Y020501D02*
X021202Y020501D01*
X021202Y020579D02*
X021754Y020579D01*
X021754Y020658D02*
X021202Y020658D01*
X021202Y020736D02*
X021754Y020736D01*
X021754Y020815D02*
X021202Y020815D01*
X021202Y020893D02*
X021754Y020893D01*
X021754Y020972D02*
X021202Y020972D01*
X021202Y021050D02*
X021754Y021050D01*
X021754Y021129D02*
X021202Y021129D01*
X021202Y021207D02*
X021754Y021207D01*
X021754Y021286D02*
X021202Y021286D01*
X021202Y021364D02*
X021754Y021364D01*
X021754Y021443D02*
X021202Y021443D01*
X021202Y021521D02*
X021754Y021521D01*
X021754Y021600D02*
X021202Y021600D01*
X021202Y021678D02*
X021754Y021678D01*
X021754Y021757D02*
X021202Y021757D01*
X021202Y021835D02*
X021754Y021835D01*
X021754Y021914D02*
X021202Y021914D01*
X021202Y021992D02*
X021754Y021992D01*
X021754Y022071D02*
X021202Y022071D01*
X021202Y022149D02*
X021754Y022149D01*
X021754Y022228D02*
X021202Y022228D01*
X021202Y022306D02*
X021754Y022306D01*
X021754Y022385D02*
X021202Y022385D01*
X021202Y022463D02*
X021754Y022463D01*
X021754Y022542D02*
X021202Y022542D01*
X021202Y022620D02*
X021754Y022620D01*
X021754Y022699D02*
X021202Y022699D01*
X021202Y022777D02*
X021754Y022777D01*
X021754Y022856D02*
X021202Y022856D01*
X021202Y022934D02*
X021754Y022934D01*
X021754Y023013D02*
X021202Y023013D01*
X021202Y023091D02*
X021754Y023091D01*
X021754Y023170D02*
X021202Y023170D01*
X021202Y023248D02*
X021754Y023248D01*
X021754Y023327D02*
X021202Y023327D01*
X021202Y023405D02*
X021754Y023405D01*
X021754Y023484D02*
X021202Y023484D01*
X021202Y023562D02*
X021754Y023562D01*
X021754Y023641D02*
X021202Y023641D01*
X021202Y023719D02*
X021754Y023719D01*
X021754Y023798D02*
X021202Y023798D01*
X021202Y023876D02*
X021754Y023876D01*
X021754Y023955D02*
X021202Y023955D01*
X021202Y024033D02*
X021754Y024033D01*
X021754Y024112D02*
X021202Y024112D01*
X021202Y024190D02*
X021754Y024190D01*
X021754Y024269D02*
X021202Y024269D01*
X021202Y024347D02*
X021754Y024347D01*
X021754Y024426D02*
X021202Y024426D01*
X021202Y024504D02*
X021754Y024504D01*
X021754Y024583D02*
X021202Y024583D01*
X021202Y024661D02*
X021754Y024661D01*
X021754Y024740D02*
X021202Y024740D01*
X021202Y024818D02*
X021754Y024818D01*
X021754Y024897D02*
X021202Y024897D01*
X021202Y024975D02*
X021754Y024975D01*
X021754Y025054D02*
X021202Y025054D01*
X021202Y025132D02*
X021754Y025132D01*
X021754Y025211D02*
X021202Y025211D01*
X021202Y025289D02*
X021754Y025289D01*
X021754Y025368D02*
X021202Y025368D01*
X021202Y025446D02*
X021754Y025446D01*
X021754Y025525D02*
X021202Y025525D01*
X021202Y025603D02*
X021754Y025603D01*
X021754Y025682D02*
X021202Y025682D01*
X021202Y025760D02*
X021754Y025760D01*
X021754Y025839D02*
X021202Y025839D01*
X021202Y025917D02*
X021754Y025917D01*
X021754Y025996D02*
X021202Y025996D01*
X021202Y026074D02*
X021754Y026074D01*
X021754Y026153D02*
X021202Y026153D01*
X021202Y026231D02*
X021754Y026231D01*
X021754Y026310D02*
X021202Y026310D01*
X021202Y026388D02*
X021754Y026388D01*
X021754Y026467D02*
X021202Y026467D01*
X021202Y026545D02*
X021754Y026545D01*
X021754Y026624D02*
X021202Y026624D01*
X021202Y026702D02*
X021754Y026702D01*
X021754Y026781D02*
X021202Y026781D01*
X021202Y026859D02*
X021754Y026859D01*
X021754Y026938D02*
X021202Y026938D01*
X021202Y027016D02*
X021754Y027016D01*
X021754Y027095D02*
X021202Y027095D01*
X021202Y027173D02*
X021754Y027173D01*
X021754Y027252D02*
X021202Y027252D01*
X021202Y027330D02*
X021754Y027330D01*
X021754Y027409D02*
X021202Y027409D01*
X021202Y027487D02*
X021754Y027487D01*
X021754Y027566D02*
X021202Y027566D01*
X021202Y027644D02*
X021754Y027644D01*
X021754Y027723D02*
X021202Y027723D01*
X021202Y027801D02*
X021754Y027801D01*
X021754Y027880D02*
X021202Y027880D01*
X021202Y027958D02*
X021754Y027958D01*
X021754Y028037D02*
X021202Y028037D01*
X021202Y028115D02*
X021754Y028115D01*
X021754Y028194D02*
X021202Y028194D01*
X021202Y028272D02*
X021754Y028272D01*
X021754Y028351D02*
X021202Y028351D01*
X021202Y028429D02*
X021754Y028429D01*
X021754Y028508D02*
X021202Y028508D01*
X021202Y028586D02*
X021754Y028586D01*
X021754Y028665D02*
X021202Y028665D01*
X021202Y028743D02*
X021754Y028743D01*
X021754Y028822D02*
X021202Y028822D01*
X021202Y028900D02*
X021754Y028900D01*
X021754Y028979D02*
X021202Y028979D01*
X021202Y029057D02*
X021754Y029057D01*
X021754Y029136D02*
X021202Y029136D01*
X021202Y029214D02*
X021754Y029214D01*
X021754Y029293D02*
X021202Y029293D01*
X021202Y029371D02*
X021754Y029371D01*
X021754Y029450D02*
X021202Y029450D01*
X021202Y029528D02*
X021754Y029528D01*
X021754Y029607D02*
X021202Y029607D01*
X021202Y029685D02*
X021754Y029685D01*
X021754Y029764D02*
X021202Y029764D01*
X021202Y029842D02*
X021754Y029842D01*
X021754Y029921D02*
X021202Y029921D01*
X021202Y029999D02*
X021754Y029999D01*
X021754Y030078D02*
X021202Y030078D01*
X021202Y030156D02*
X021754Y030156D01*
X021754Y030235D02*
X021202Y030235D01*
X021202Y030313D02*
X021754Y030313D01*
X021754Y030392D02*
X021202Y030392D01*
X021202Y030470D02*
X021754Y030470D01*
X021754Y030549D02*
X021202Y030549D01*
X021202Y030627D02*
X021754Y030627D01*
X021754Y030706D02*
X021202Y030706D01*
X021202Y030784D02*
X021754Y030784D01*
X021754Y030863D02*
X021202Y030863D01*
X021202Y030941D02*
X021754Y030941D01*
X021754Y031020D02*
X021202Y031020D01*
X021202Y031098D02*
X021754Y031098D01*
X021754Y031177D02*
X021202Y031177D01*
X021202Y031255D02*
X021754Y031255D01*
X021754Y031334D02*
X021202Y031334D01*
X021202Y031412D02*
X021754Y031412D01*
X021754Y031491D02*
X021202Y031491D01*
X021202Y031569D02*
X021754Y031569D01*
X021754Y031648D02*
X021202Y031648D01*
X021202Y031726D02*
X021754Y031726D01*
X021754Y031805D02*
X021177Y031805D01*
X021022Y031652D02*
X021022Y014966D01*
X001517Y014966D01*
X001517Y031652D01*
X021022Y031652D01*
X021022Y031648D02*
X001517Y031648D01*
X001517Y031569D02*
X021022Y031569D01*
X021022Y031491D02*
X001517Y031491D01*
X001517Y031412D02*
X021022Y031412D01*
X021022Y031334D02*
X001517Y031334D01*
X001517Y031255D02*
X021022Y031255D01*
X021022Y031177D02*
X001517Y031177D01*
X001517Y031098D02*
X021022Y031098D01*
X021022Y031020D02*
X001517Y031020D01*
X001517Y030941D02*
X021022Y030941D01*
X021022Y030863D02*
X001517Y030863D01*
X001517Y030784D02*
X021022Y030784D01*
X021022Y030706D02*
X001517Y030706D01*
X001517Y030627D02*
X021022Y030627D01*
X021022Y030549D02*
X001517Y030549D01*
X001517Y030470D02*
X021022Y030470D01*
X021022Y030392D02*
X001517Y030392D01*
X001517Y030313D02*
X021022Y030313D01*
X021022Y030235D02*
X001517Y030235D01*
X001517Y030156D02*
X021022Y030156D01*
X021022Y030078D02*
X001517Y030078D01*
X001517Y029999D02*
X021022Y029999D01*
X021022Y029921D02*
X001517Y029921D01*
X001517Y029842D02*
X021022Y029842D01*
X021022Y029764D02*
X001517Y029764D01*
X001517Y029685D02*
X021022Y029685D01*
X021022Y029607D02*
X001517Y029607D01*
X001517Y029528D02*
X021022Y029528D01*
X021022Y029450D02*
X001517Y029450D01*
X001517Y029371D02*
X021022Y029371D01*
X021022Y029293D02*
X001517Y029293D01*
X001517Y029214D02*
X021022Y029214D01*
X021022Y029136D02*
X001517Y029136D01*
X001517Y029057D02*
X021022Y029057D01*
X021022Y028979D02*
X001517Y028979D01*
X001517Y028900D02*
X021022Y028900D01*
X021022Y028822D02*
X001517Y028822D01*
X001517Y028743D02*
X021022Y028743D01*
X021022Y028665D02*
X001517Y028665D01*
X001517Y028586D02*
X021022Y028586D01*
X021022Y028508D02*
X001517Y028508D01*
X001517Y028429D02*
X021022Y028429D01*
X021022Y028351D02*
X001517Y028351D01*
X001517Y028272D02*
X021022Y028272D01*
X021022Y028194D02*
X001517Y028194D01*
X001517Y028115D02*
X021022Y028115D01*
X021022Y028037D02*
X001517Y028037D01*
X001517Y027958D02*
X021022Y027958D01*
X021022Y027880D02*
X001517Y027880D01*
X001517Y027801D02*
X021022Y027801D01*
X021022Y027723D02*
X001517Y027723D01*
X001517Y027644D02*
X021022Y027644D01*
X021022Y027566D02*
X001517Y027566D01*
X001517Y027487D02*
X021022Y027487D01*
X021022Y027409D02*
X001517Y027409D01*
X001517Y027330D02*
X021022Y027330D01*
X021022Y027252D02*
X001517Y027252D01*
X001517Y027173D02*
X021022Y027173D01*
X021022Y027095D02*
X001517Y027095D01*
X001517Y027016D02*
X021022Y027016D01*
X021022Y026938D02*
X001517Y026938D01*
X001517Y026859D02*
X021022Y026859D01*
X021022Y026781D02*
X001517Y026781D01*
X001517Y026702D02*
X021022Y026702D01*
X021022Y026624D02*
X001517Y026624D01*
X001517Y026545D02*
X021022Y026545D01*
X021022Y026467D02*
X001517Y026467D01*
X001517Y026388D02*
X021022Y026388D01*
X021022Y026310D02*
X001517Y026310D01*
X001517Y026231D02*
X021022Y026231D01*
X021022Y026153D02*
X001517Y026153D01*
X001517Y026074D02*
X021022Y026074D01*
X021022Y025996D02*
X001517Y025996D01*
X001517Y025917D02*
X021022Y025917D01*
X021022Y025839D02*
X001517Y025839D01*
X001517Y025760D02*
X021022Y025760D01*
X021022Y025682D02*
X001517Y025682D01*
X001517Y025603D02*
X021022Y025603D01*
X021022Y025525D02*
X012218Y025525D01*
X012140Y025602D02*
X006390Y025602D01*
X006303Y025515D01*
X005240Y024452D01*
X005240Y024298D01*
X005111Y024427D01*
X004924Y024427D01*
X004793Y024296D01*
X004793Y024115D01*
X004053Y023375D01*
X004053Y023293D01*
X004040Y023281D01*
X004040Y023389D01*
X004115Y023464D01*
X004115Y023651D01*
X003983Y023782D01*
X003797Y023782D01*
X003665Y023651D01*
X003665Y023464D01*
X003740Y023389D01*
X003740Y022938D01*
X004063Y022615D01*
X006659Y022615D01*
X006734Y022540D01*
X006921Y022540D01*
X007052Y022672D01*
X007052Y022858D01*
X006921Y022990D01*
X006734Y022990D01*
X006659Y022915D01*
X005561Y022915D01*
X005677Y023032D01*
X005677Y023218D01*
X005602Y023293D01*
X005602Y023378D01*
X006015Y023790D01*
X006102Y023878D01*
X006102Y024140D01*
X006702Y024740D01*
X007153Y024740D01*
X006840Y024427D01*
X006734Y024427D01*
X006603Y024296D01*
X006603Y024109D01*
X006734Y023978D01*
X006921Y023978D01*
X007052Y024109D01*
X007052Y024215D01*
X007390Y024553D01*
X011765Y024553D01*
X012390Y023927D01*
X012297Y023927D01*
X012165Y023796D01*
X012165Y023640D01*
X011874Y023931D01*
X011927Y023984D01*
X011927Y024171D01*
X011796Y024302D01*
X011609Y024302D01*
X011478Y024171D01*
X011478Y023984D01*
X011553Y023909D01*
X011553Y023828D01*
X011640Y023740D01*
X012344Y023037D01*
X012290Y022983D01*
X012290Y022797D01*
X012359Y022727D01*
X012328Y022727D01*
X012240Y022640D01*
X012115Y022515D01*
X012115Y022390D01*
X011390Y021665D01*
X009690Y021665D01*
X010327Y022303D01*
X011265Y022303D01*
X011877Y022915D01*
X011983Y022915D01*
X012115Y023047D01*
X012115Y023233D01*
X011983Y023365D01*
X011797Y023365D01*
X011665Y023233D01*
X011665Y023127D01*
X011140Y022602D01*
X010203Y022602D01*
X010115Y022515D01*
X009453Y021852D01*
X007640Y021852D01*
X007553Y021765D01*
X006553Y020765D01*
X006553Y020558D01*
X006478Y020483D01*
X006478Y020297D01*
X006609Y020165D01*
X006796Y020165D01*
X006890Y020259D01*
X006984Y020165D01*
X007171Y020165D01*
X007240Y020234D01*
X007240Y020052D01*
X007172Y020052D01*
X007040Y019921D01*
X007040Y019740D01*
X006984Y019740D01*
X006853Y019608D01*
X006853Y019422D01*
X006859Y019415D01*
X006808Y019415D01*
X006733Y019490D01*
X006547Y019490D01*
X006415Y019358D01*
X006415Y019172D01*
X006547Y019040D01*
X006733Y019040D01*
X006808Y019115D01*
X007390Y019115D01*
X007827Y019553D01*
X007915Y019640D01*
X007915Y020703D01*
X008015Y020803D01*
X011702Y020803D01*
X012140Y021240D01*
X012847Y021240D01*
X012922Y021165D01*
X013108Y021165D01*
X013240Y021297D01*
X013240Y021365D01*
X017452Y021365D01*
X018952Y022865D01*
X019040Y022953D01*
X019040Y023347D01*
X019115Y023422D01*
X019115Y023608D01*
X018983Y023740D01*
X018865Y023740D01*
X018865Y023858D01*
X018733Y023990D01*
X018615Y023990D01*
X018615Y024171D01*
X018483Y024302D01*
X018297Y024302D01*
X018165Y024171D01*
X018165Y023984D01*
X018240Y023909D01*
X018240Y023690D01*
X018102Y023827D01*
X018015Y023915D01*
X013952Y023915D01*
X013790Y024077D01*
X013790Y024515D01*
X013352Y024952D01*
X013265Y025040D01*
X013183Y025040D01*
X013108Y025115D01*
X012922Y025115D01*
X012790Y024983D01*
X012790Y024952D01*
X012140Y025602D01*
X012296Y025446D02*
X021022Y025446D01*
X021022Y025368D02*
X012375Y025368D01*
X012453Y025289D02*
X021022Y025289D01*
X021022Y025211D02*
X012532Y025211D01*
X012610Y025132D02*
X021022Y025132D01*
X021022Y025054D02*
X013170Y025054D01*
X013330Y024975D02*
X021022Y024975D01*
X021022Y024897D02*
X013408Y024897D01*
X013487Y024818D02*
X021022Y024818D01*
X021022Y024740D02*
X013565Y024740D01*
X013644Y024661D02*
X021022Y024661D01*
X021022Y024583D02*
X013722Y024583D01*
X013790Y024504D02*
X021022Y024504D01*
X021022Y024426D02*
X013790Y024426D01*
X013790Y024347D02*
X021022Y024347D01*
X021022Y024269D02*
X018517Y024269D01*
X018596Y024190D02*
X021022Y024190D01*
X021022Y024112D02*
X018615Y024112D01*
X018615Y024033D02*
X021022Y024033D01*
X021022Y023955D02*
X018769Y023955D01*
X018847Y023876D02*
X021022Y023876D01*
X021022Y023798D02*
X018865Y023798D01*
X019004Y023719D02*
X021022Y023719D01*
X021022Y023641D02*
X019083Y023641D01*
X019115Y023562D02*
X021022Y023562D01*
X021022Y023484D02*
X019115Y023484D01*
X019098Y023405D02*
X021022Y023405D01*
X021022Y023327D02*
X019040Y023327D01*
X019040Y023248D02*
X021022Y023248D01*
X021022Y023170D02*
X019040Y023170D01*
X019040Y023091D02*
X021022Y023091D01*
X021022Y023013D02*
X019040Y023013D01*
X019021Y022934D02*
X021022Y022934D01*
X021022Y022856D02*
X018943Y022856D01*
X018864Y022777D02*
X021022Y022777D01*
X021022Y022699D02*
X018786Y022699D01*
X018707Y022620D02*
X021022Y022620D01*
X021022Y022542D02*
X018629Y022542D01*
X018550Y022463D02*
X021022Y022463D01*
X021022Y022385D02*
X018472Y022385D01*
X018393Y022306D02*
X021022Y022306D01*
X021022Y022228D02*
X018315Y022228D01*
X018236Y022149D02*
X021022Y022149D01*
X021022Y022071D02*
X018158Y022071D01*
X018079Y021992D02*
X021022Y021992D01*
X021022Y021914D02*
X018001Y021914D01*
X017922Y021835D02*
X021022Y021835D01*
X021022Y021757D02*
X017844Y021757D01*
X017765Y021678D02*
X021022Y021678D01*
X021022Y021600D02*
X017687Y021600D01*
X017608Y021521D02*
X021022Y021521D01*
X021022Y021443D02*
X017530Y021443D01*
X018211Y023719D02*
X018240Y023719D01*
X018240Y023798D02*
X018132Y023798D01*
X018054Y023876D02*
X018240Y023876D01*
X018195Y023955D02*
X013913Y023955D01*
X013834Y024033D02*
X018165Y024033D01*
X018165Y024112D02*
X013790Y024112D01*
X013790Y024190D02*
X018184Y024190D01*
X018263Y024269D02*
X013790Y024269D01*
X012860Y025054D02*
X012689Y025054D01*
X012767Y024975D02*
X012790Y024975D01*
X012285Y024033D02*
X011927Y024033D01*
X011927Y024112D02*
X012206Y024112D01*
X012128Y024190D02*
X011908Y024190D01*
X011830Y024269D02*
X012049Y024269D01*
X011971Y024347D02*
X007184Y024347D01*
X007106Y024269D02*
X011575Y024269D01*
X011497Y024190D02*
X007052Y024190D01*
X007052Y024112D02*
X011478Y024112D01*
X011478Y024033D02*
X006976Y024033D01*
X006732Y024426D02*
X006388Y024426D01*
X006466Y024504D02*
X006917Y024504D01*
X006995Y024583D02*
X006545Y024583D01*
X006623Y024661D02*
X007074Y024661D01*
X007152Y024740D02*
X006702Y024740D01*
X006654Y024347D02*
X006309Y024347D01*
X006231Y024269D02*
X006603Y024269D01*
X006603Y024190D02*
X006152Y024190D01*
X006102Y024112D02*
X006603Y024112D01*
X006679Y024033D02*
X006102Y024033D01*
X006102Y023955D02*
X011507Y023955D01*
X011553Y023876D02*
X006101Y023876D01*
X006022Y023798D02*
X011583Y023798D01*
X011661Y023719D02*
X005944Y023719D01*
X005865Y023641D02*
X011740Y023641D01*
X011818Y023562D02*
X005787Y023562D01*
X005708Y023484D02*
X011897Y023484D01*
X011975Y023405D02*
X005630Y023405D01*
X005602Y023327D02*
X011758Y023327D01*
X011680Y023248D02*
X005648Y023248D01*
X005677Y023170D02*
X011665Y023170D01*
X011629Y023091D02*
X005677Y023091D01*
X005658Y023013D02*
X011550Y023013D01*
X011472Y022934D02*
X006977Y022934D01*
X007052Y022856D02*
X011393Y022856D01*
X011315Y022777D02*
X007052Y022777D01*
X007052Y022699D02*
X011236Y022699D01*
X011158Y022620D02*
X007001Y022620D01*
X006922Y022542D02*
X010142Y022542D01*
X010063Y022463D02*
X001517Y022463D01*
X001517Y022385D02*
X009985Y022385D01*
X009906Y022306D02*
X001517Y022306D01*
X001517Y022228D02*
X009828Y022228D01*
X009749Y022149D02*
X001517Y022149D01*
X001517Y022071D02*
X009671Y022071D01*
X009592Y021992D02*
X001517Y021992D01*
X001517Y021914D02*
X009514Y021914D01*
X009703Y021678D02*
X011403Y021678D01*
X011482Y021757D02*
X009781Y021757D01*
X009860Y021835D02*
X011560Y021835D01*
X011639Y021914D02*
X009938Y021914D01*
X010017Y021992D02*
X011717Y021992D01*
X011796Y022071D02*
X010095Y022071D01*
X010174Y022149D02*
X011874Y022149D01*
X011953Y022228D02*
X010252Y022228D01*
X011268Y022306D02*
X012031Y022306D01*
X012110Y022385D02*
X011347Y022385D01*
X011425Y022463D02*
X012115Y022463D01*
X012142Y022542D02*
X011504Y022542D01*
X011582Y022620D02*
X012220Y022620D01*
X012299Y022699D02*
X011661Y022699D01*
X011739Y022777D02*
X012310Y022777D01*
X012290Y022856D02*
X011818Y022856D01*
X012002Y022934D02*
X012290Y022934D01*
X012319Y023013D02*
X012081Y023013D01*
X012115Y023091D02*
X012289Y023091D01*
X012211Y023170D02*
X012115Y023170D01*
X012100Y023248D02*
X012132Y023248D01*
X012054Y023327D02*
X012022Y023327D01*
X012164Y023641D02*
X012165Y023641D01*
X012165Y023719D02*
X012086Y023719D01*
X012007Y023798D02*
X012167Y023798D01*
X012245Y023876D02*
X011929Y023876D01*
X011898Y023955D02*
X012363Y023955D01*
X011892Y024426D02*
X007263Y024426D01*
X007341Y024504D02*
X011814Y024504D01*
X013240Y021364D02*
X021022Y021364D01*
X021022Y021286D02*
X013229Y021286D01*
X013150Y021207D02*
X021022Y021207D01*
X021022Y021129D02*
X012028Y021129D01*
X012107Y021207D02*
X012880Y021207D01*
X011950Y021050D02*
X021022Y021050D01*
X021022Y020972D02*
X011871Y020972D01*
X011793Y020893D02*
X021022Y020893D01*
X021022Y020815D02*
X011714Y020815D01*
X012733Y018990D02*
X012847Y018990D01*
X012922Y018915D01*
X013108Y018915D01*
X013240Y019047D01*
X013240Y019165D01*
X013358Y019165D01*
X013490Y019297D01*
X013490Y019415D01*
X013608Y019415D01*
X013740Y019547D01*
X013740Y019665D01*
X013858Y019665D01*
X013990Y019797D01*
X013990Y019915D01*
X014108Y019915D01*
X014240Y020047D01*
X014240Y020165D01*
X014358Y020165D01*
X014490Y020297D01*
X014490Y020483D01*
X014358Y020615D01*
X014172Y020615D01*
X014097Y020540D01*
X009683Y020540D01*
X009608Y020615D01*
X009422Y020615D01*
X009290Y020483D01*
X009290Y020297D01*
X009422Y020165D01*
X009478Y020165D01*
X009478Y020047D01*
X009609Y019915D01*
X009665Y019915D01*
X009665Y019797D01*
X009797Y019665D01*
X009853Y019665D01*
X009853Y019547D01*
X009984Y019415D01*
X010103Y019415D01*
X010103Y019297D01*
X010234Y019165D01*
X010353Y019165D01*
X010353Y019047D01*
X010484Y018915D01*
X010603Y018915D01*
X010603Y018797D01*
X010734Y018665D01*
X010853Y018665D01*
X010853Y018615D01*
X010734Y018615D01*
X010603Y018483D01*
X010603Y018365D01*
X010484Y018365D01*
X010353Y018233D01*
X010353Y018115D01*
X010172Y018115D01*
X010040Y017983D01*
X010040Y017797D01*
X010172Y017665D01*
X010358Y017665D01*
X010433Y017740D01*
X012390Y017740D01*
X012477Y017828D01*
X012752Y018103D01*
X012858Y018103D01*
X012990Y018234D01*
X012990Y018421D01*
X012858Y018552D01*
X012672Y018552D01*
X012540Y018421D01*
X012540Y018315D01*
X012265Y018040D01*
X012046Y018040D01*
X012052Y018047D01*
X012052Y018165D01*
X012171Y018165D01*
X012302Y018297D01*
X012302Y018483D01*
X012171Y018615D01*
X012052Y018615D01*
X012052Y018733D01*
X012046Y018740D01*
X012347Y018740D01*
X012422Y018665D01*
X012608Y018665D01*
X012740Y018797D01*
X012740Y018983D01*
X012733Y018990D01*
X012740Y018931D02*
X012906Y018931D01*
X012740Y018852D02*
X021022Y018852D01*
X021022Y018774D02*
X012717Y018774D01*
X012638Y018695D02*
X021022Y018695D01*
X021022Y018617D02*
X012052Y018617D01*
X012052Y018695D02*
X012392Y018695D01*
X012248Y018538D02*
X012657Y018538D01*
X012579Y018460D02*
X012302Y018460D01*
X012302Y018381D02*
X012540Y018381D01*
X012528Y018303D02*
X012302Y018303D01*
X012230Y018224D02*
X012449Y018224D01*
X012371Y018146D02*
X012052Y018146D01*
X012052Y018067D02*
X012292Y018067D01*
X012481Y017832D02*
X021022Y017832D01*
X021022Y017910D02*
X012560Y017910D01*
X012638Y017989D02*
X021022Y017989D01*
X021022Y018067D02*
X012717Y018067D01*
X012901Y018146D02*
X021022Y018146D01*
X021022Y018224D02*
X012980Y018224D01*
X012990Y018303D02*
X021022Y018303D01*
X021022Y018381D02*
X012990Y018381D01*
X012951Y018460D02*
X021022Y018460D01*
X021022Y018538D02*
X012873Y018538D01*
X013124Y018931D02*
X021022Y018931D01*
X021022Y019009D02*
X013202Y019009D01*
X013240Y019088D02*
X021022Y019088D01*
X021022Y019166D02*
X013359Y019166D01*
X013438Y019245D02*
X021022Y019245D01*
X021022Y019323D02*
X013490Y019323D01*
X013490Y019402D02*
X021022Y019402D01*
X021022Y019480D02*
X013673Y019480D01*
X013740Y019559D02*
X021022Y019559D01*
X021022Y019637D02*
X013740Y019637D01*
X013909Y019716D02*
X021022Y019716D01*
X021022Y019794D02*
X013987Y019794D01*
X013990Y019873D02*
X021022Y019873D01*
X021022Y019951D02*
X014144Y019951D01*
X014223Y020030D02*
X021022Y020030D01*
X021022Y020108D02*
X014240Y020108D01*
X014380Y020187D02*
X021022Y020187D01*
X021022Y020265D02*
X014458Y020265D01*
X014490Y020344D02*
X021022Y020344D01*
X021022Y020422D02*
X014490Y020422D01*
X014473Y020501D02*
X021022Y020501D01*
X021022Y020579D02*
X014394Y020579D01*
X014136Y020579D02*
X009644Y020579D01*
X009386Y020579D02*
X007915Y020579D01*
X007915Y020501D02*
X009307Y020501D01*
X009290Y020422D02*
X007915Y020422D01*
X007915Y020344D02*
X009290Y020344D01*
X009322Y020265D02*
X007915Y020265D01*
X007915Y020187D02*
X009400Y020187D01*
X009478Y020108D02*
X007915Y020108D01*
X007915Y020030D02*
X009495Y020030D01*
X009573Y019951D02*
X007915Y019951D01*
X007915Y019873D02*
X009665Y019873D01*
X009668Y019794D02*
X007915Y019794D01*
X007915Y019716D02*
X009746Y019716D01*
X009853Y019637D02*
X007912Y019637D01*
X007833Y019559D02*
X009853Y019559D01*
X009919Y019480D02*
X007755Y019480D01*
X007676Y019402D02*
X010103Y019402D01*
X010103Y019323D02*
X007598Y019323D01*
X007519Y019245D02*
X010155Y019245D01*
X010233Y019166D02*
X007441Y019166D01*
X006960Y019716D02*
X001517Y019716D01*
X001517Y019794D02*
X007040Y019794D01*
X007040Y019873D02*
X001517Y019873D01*
X001517Y019951D02*
X007070Y019951D01*
X007149Y020030D02*
X001517Y020030D01*
X001517Y020108D02*
X007240Y020108D01*
X007240Y020187D02*
X007192Y020187D01*
X006963Y020187D02*
X006817Y020187D01*
X006588Y020187D02*
X001517Y020187D01*
X001517Y020265D02*
X006509Y020265D01*
X006478Y020344D02*
X001517Y020344D01*
X001517Y020422D02*
X006478Y020422D01*
X006495Y020501D02*
X001517Y020501D01*
X001517Y020579D02*
X006553Y020579D01*
X006553Y020658D02*
X001517Y020658D01*
X001517Y020736D02*
X006553Y020736D01*
X006602Y020815D02*
X001517Y020815D01*
X001517Y020893D02*
X006681Y020893D01*
X006759Y020972D02*
X001517Y020972D01*
X001517Y021050D02*
X006838Y021050D01*
X006916Y021129D02*
X001517Y021129D01*
X001517Y021207D02*
X006995Y021207D01*
X007073Y021286D02*
X001517Y021286D01*
X001517Y021364D02*
X007152Y021364D01*
X007230Y021443D02*
X001517Y021443D01*
X001517Y021521D02*
X007309Y021521D01*
X007387Y021600D02*
X001517Y021600D01*
X001517Y021678D02*
X007466Y021678D01*
X007544Y021757D02*
X001517Y021757D01*
X001517Y021835D02*
X007623Y021835D01*
X007948Y020736D02*
X021022Y020736D01*
X021022Y020658D02*
X007915Y020658D01*
X006881Y019637D02*
X001517Y019637D01*
X001517Y019559D02*
X006853Y019559D01*
X006853Y019480D02*
X006743Y019480D01*
X006537Y019480D02*
X001517Y019480D01*
X001517Y019402D02*
X006458Y019402D01*
X006415Y019323D02*
X001517Y019323D01*
X001517Y019245D02*
X006415Y019245D01*
X006421Y019166D02*
X001517Y019166D01*
X001517Y019088D02*
X006499Y019088D01*
X006781Y019088D02*
X010353Y019088D01*
X010390Y019009D02*
X001517Y019009D01*
X001517Y018931D02*
X010469Y018931D01*
X010603Y018852D02*
X001517Y018852D01*
X001517Y018774D02*
X010626Y018774D01*
X010704Y018695D02*
X001517Y018695D01*
X001517Y018617D02*
X010853Y018617D01*
X010657Y018538D02*
X001517Y018538D01*
X001517Y018460D02*
X010603Y018460D01*
X010603Y018381D02*
X001517Y018381D01*
X001517Y018303D02*
X010422Y018303D01*
X010353Y018224D02*
X001517Y018224D01*
X001517Y018146D02*
X010353Y018146D01*
X010124Y018067D02*
X001517Y018067D01*
X001517Y017989D02*
X010045Y017989D01*
X010040Y017910D02*
X001517Y017910D01*
X001517Y017832D02*
X010040Y017832D01*
X010084Y017753D02*
X001517Y017753D01*
X001517Y017675D02*
X010162Y017675D01*
X010368Y017675D02*
X021022Y017675D01*
X021022Y017753D02*
X012403Y017753D01*
X012477Y017828D02*
X012477Y017828D01*
X006733Y022542D02*
X001517Y022542D01*
X001517Y022620D02*
X004058Y022620D01*
X003979Y022699D02*
X001517Y022699D01*
X001517Y022777D02*
X003901Y022777D01*
X003822Y022856D02*
X001517Y022856D01*
X001517Y022934D02*
X003744Y022934D01*
X003740Y023013D02*
X001517Y023013D01*
X001517Y023091D02*
X003740Y023091D01*
X003740Y023170D02*
X001517Y023170D01*
X001517Y023248D02*
X003740Y023248D01*
X003740Y023327D02*
X001517Y023327D01*
X001517Y023405D02*
X003724Y023405D01*
X003665Y023484D02*
X001517Y023484D01*
X001517Y023562D02*
X003665Y023562D01*
X003665Y023641D02*
X001517Y023641D01*
X001517Y023719D02*
X003733Y023719D01*
X004047Y023719D02*
X004397Y023719D01*
X004318Y023641D02*
X004115Y023641D01*
X004115Y023562D02*
X004240Y023562D01*
X004161Y023484D02*
X004115Y023484D01*
X004083Y023405D02*
X004056Y023405D01*
X004053Y023327D02*
X004040Y023327D01*
X004475Y023798D02*
X001517Y023798D01*
X001517Y023876D02*
X004554Y023876D01*
X004632Y023955D02*
X001517Y023955D01*
X001517Y024033D02*
X004711Y024033D01*
X004789Y024112D02*
X001517Y024112D01*
X001517Y024190D02*
X004793Y024190D01*
X004793Y024269D02*
X001517Y024269D01*
X001517Y024347D02*
X004844Y024347D01*
X004922Y024426D02*
X001517Y024426D01*
X001517Y024504D02*
X005292Y024504D01*
X005240Y024426D02*
X005113Y024426D01*
X005191Y024347D02*
X005240Y024347D01*
X005370Y024583D02*
X001517Y024583D01*
X001517Y024661D02*
X005449Y024661D01*
X005527Y024740D02*
X001517Y024740D01*
X001517Y024818D02*
X005606Y024818D01*
X005684Y024897D02*
X001517Y024897D01*
X001517Y024975D02*
X005763Y024975D01*
X005841Y025054D02*
X001517Y025054D01*
X001517Y025132D02*
X005920Y025132D01*
X005998Y025211D02*
X001517Y025211D01*
X001517Y025289D02*
X006077Y025289D01*
X006155Y025368D02*
X001517Y025368D01*
X001517Y025446D02*
X006234Y025446D01*
X006312Y025525D02*
X001517Y025525D01*
X001337Y025525D02*
X000778Y025525D01*
X000778Y025603D02*
X001337Y025603D01*
X001337Y025682D02*
X000778Y025682D01*
X000778Y025760D02*
X001337Y025760D01*
X001337Y025839D02*
X000778Y025839D01*
X000778Y025917D02*
X001337Y025917D01*
X001337Y025996D02*
X000778Y025996D01*
X000778Y026074D02*
X001337Y026074D01*
X001337Y026153D02*
X000778Y026153D01*
X000778Y026231D02*
X001337Y026231D01*
X001337Y026310D02*
X000778Y026310D01*
X000778Y026388D02*
X001337Y026388D01*
X001337Y026467D02*
X000778Y026467D01*
X000778Y026545D02*
X001337Y026545D01*
X001337Y026624D02*
X000778Y026624D01*
X000778Y026702D02*
X001337Y026702D01*
X001337Y026781D02*
X000778Y026781D01*
X000778Y026859D02*
X001337Y026859D01*
X001337Y026938D02*
X000778Y026938D01*
X000778Y027016D02*
X001337Y027016D01*
X001337Y027095D02*
X000778Y027095D01*
X000778Y027173D02*
X001337Y027173D01*
X001337Y027252D02*
X000778Y027252D01*
X000778Y027330D02*
X001337Y027330D01*
X001337Y027409D02*
X000778Y027409D01*
X000778Y027487D02*
X001337Y027487D01*
X001337Y027566D02*
X000778Y027566D01*
X000778Y027644D02*
X001337Y027644D01*
X001337Y027723D02*
X000778Y027723D01*
X000778Y027801D02*
X001337Y027801D01*
X001337Y027880D02*
X000778Y027880D01*
X000778Y027958D02*
X001337Y027958D01*
X001337Y028037D02*
X000778Y028037D01*
X000778Y028115D02*
X001337Y028115D01*
X001337Y028194D02*
X000778Y028194D01*
X000778Y028272D02*
X001337Y028272D01*
X001337Y028351D02*
X000778Y028351D01*
X000778Y028429D02*
X001337Y028429D01*
X001337Y028508D02*
X000778Y028508D01*
X000778Y028586D02*
X001337Y028586D01*
X001337Y028665D02*
X000778Y028665D01*
X000778Y028743D02*
X001337Y028743D01*
X001337Y028822D02*
X000778Y028822D01*
X000778Y028900D02*
X001337Y028900D01*
X001337Y028979D02*
X000778Y028979D01*
X000778Y029057D02*
X001337Y029057D01*
X001337Y029136D02*
X000778Y029136D01*
X000778Y029214D02*
X001337Y029214D01*
X001337Y029293D02*
X000778Y029293D01*
X000778Y029371D02*
X001337Y029371D01*
X001337Y029450D02*
X000778Y029450D01*
X000778Y029528D02*
X001337Y029528D01*
X001337Y029607D02*
X000778Y029607D01*
X000778Y029685D02*
X001337Y029685D01*
X001337Y029764D02*
X000778Y029764D01*
X000778Y029842D02*
X001337Y029842D01*
X001337Y029921D02*
X000778Y029921D01*
X000778Y029999D02*
X001337Y029999D01*
X001337Y030078D02*
X000778Y030078D01*
X000778Y030156D02*
X001337Y030156D01*
X001337Y030235D02*
X000778Y030235D01*
X000778Y030313D02*
X001337Y030313D01*
X001337Y030392D02*
X000778Y030392D01*
X000778Y030470D02*
X001337Y030470D01*
X001337Y030549D02*
X000778Y030549D01*
X000778Y030627D02*
X001337Y030627D01*
X001337Y030706D02*
X000778Y030706D01*
X000778Y030784D02*
X001337Y030784D01*
X001337Y030863D02*
X000778Y030863D01*
X000778Y030941D02*
X001337Y030941D01*
X001337Y031020D02*
X000778Y031020D01*
X000778Y031098D02*
X001337Y031098D01*
X001337Y031177D02*
X000778Y031177D01*
X000778Y031255D02*
X001337Y031255D01*
X001337Y031334D02*
X000778Y031334D01*
X000778Y031412D02*
X001337Y031412D01*
X001337Y031491D02*
X000778Y031491D01*
X000778Y031569D02*
X001337Y031569D01*
X001337Y031648D02*
X000778Y031648D01*
X000778Y031726D02*
X001337Y031726D01*
X001362Y031805D02*
X000778Y031805D01*
X000778Y031883D02*
X021754Y031883D01*
X021754Y031962D02*
X000778Y031962D01*
X000778Y032040D02*
X021754Y032040D01*
X021754Y032119D02*
X000778Y032119D01*
X000778Y032197D02*
X021754Y032197D01*
X021754Y032276D02*
X011432Y032276D01*
X011293Y032260D02*
X011813Y032318D01*
X011819Y032315D01*
X011841Y032321D01*
X011864Y032324D01*
X011868Y032329D01*
X014212Y033008D01*
X014231Y033008D01*
X014239Y033015D01*
X014250Y033018D01*
X014259Y033035D01*
X014272Y033049D01*
X014272Y033059D01*
X014278Y033069D01*
X014272Y033087D01*
X014272Y033669D01*
X014231Y033710D01*
X008299Y033710D01*
X008258Y033669D01*
X008258Y033611D01*
X008258Y033087D01*
X008252Y033069D01*
X008258Y033059D01*
X008258Y033049D01*
X008271Y033035D01*
X008280Y033018D01*
X008291Y033015D01*
X008299Y033008D01*
X008318Y033008D01*
X010662Y032329D01*
X010666Y032324D01*
X010689Y032321D01*
X010711Y032315D01*
X010717Y032318D01*
X011237Y032260D01*
X011244Y032255D01*
X011265Y032257D01*
X011286Y032255D01*
X011293Y032260D01*
X011098Y032276D02*
X000778Y032276D01*
X000778Y032354D02*
X010575Y032354D01*
X010304Y032433D02*
X000778Y032433D01*
X000778Y032511D02*
X010032Y032511D01*
X009761Y032590D02*
X000778Y032590D01*
X000778Y032668D02*
X009490Y032668D01*
X009219Y032747D02*
X000778Y032747D01*
X000778Y032825D02*
X008948Y032825D01*
X008676Y032904D02*
X000778Y032904D01*
X000778Y032982D02*
X008405Y032982D01*
X008257Y033061D02*
X000778Y033061D01*
X000778Y033139D02*
X008258Y033139D01*
X008258Y033218D02*
X000778Y033218D01*
X000778Y033296D02*
X008258Y033296D01*
X008258Y033375D02*
X000778Y033375D01*
X000778Y033453D02*
X008258Y033453D01*
X008258Y033532D02*
X000778Y033532D01*
X000784Y033610D02*
X008258Y033610D01*
X008277Y033689D02*
X000808Y033689D01*
X000834Y033767D02*
X021698Y033767D01*
X021723Y033689D02*
X014253Y033689D01*
X014272Y033610D02*
X021747Y033610D01*
X021754Y033532D02*
X014272Y033532D01*
X014272Y033453D02*
X021754Y033453D01*
X021754Y033375D02*
X014272Y033375D01*
X014272Y033296D02*
X021754Y033296D01*
X021754Y033218D02*
X014272Y033218D01*
X014272Y033139D02*
X021754Y033139D01*
X021754Y033061D02*
X014273Y033061D01*
X014125Y032982D02*
X021754Y032982D01*
X021754Y032904D02*
X013854Y032904D01*
X013582Y032825D02*
X021754Y032825D01*
X021754Y032747D02*
X013311Y032747D01*
X013040Y032668D02*
X021754Y032668D01*
X021754Y032590D02*
X012769Y032590D01*
X012498Y032511D02*
X021754Y032511D01*
X021754Y032433D02*
X012226Y032433D01*
X011955Y032354D02*
X021754Y032354D01*
X021649Y033846D02*
X000883Y033846D01*
X000940Y033924D02*
X021592Y033924D01*
X021489Y034003D02*
X001042Y034003D01*
X001225Y034081D02*
X021307Y034081D01*
X021022Y017596D02*
X001517Y017596D01*
X001517Y017518D02*
X021022Y017518D01*
X021022Y017439D02*
X001517Y017439D01*
X001517Y017361D02*
X021022Y017361D01*
X021022Y017282D02*
X001517Y017282D01*
X001517Y017204D02*
X021022Y017204D01*
X021022Y017125D02*
X001517Y017125D01*
X001517Y017047D02*
X021022Y017047D01*
X021022Y016968D02*
X001517Y016968D01*
X001517Y016890D02*
X021022Y016890D01*
X021022Y016811D02*
X001517Y016811D01*
X001517Y016733D02*
X021022Y016733D01*
X021022Y016654D02*
X001517Y016654D01*
X001517Y016576D02*
X021022Y016576D01*
X021022Y016497D02*
X001517Y016497D01*
X001517Y016419D02*
X021022Y016419D01*
X021022Y016340D02*
X001517Y016340D01*
X001517Y016262D02*
X021022Y016262D01*
X021022Y016183D02*
X001517Y016183D01*
X001517Y016105D02*
X021022Y016105D01*
X021022Y016026D02*
X001517Y016026D01*
X001517Y015948D02*
X021022Y015948D01*
X021022Y015869D02*
X001517Y015869D01*
X001517Y015791D02*
X021022Y015791D01*
X021022Y015712D02*
X001517Y015712D01*
X001517Y015634D02*
X021022Y015634D01*
X021022Y015555D02*
X001517Y015555D01*
X001517Y015477D02*
X021022Y015477D01*
X021022Y015398D02*
X001517Y015398D01*
X001517Y015320D02*
X021022Y015320D01*
X021022Y015241D02*
X001517Y015241D01*
X001517Y015163D02*
X021022Y015163D01*
X021022Y015084D02*
X001517Y015084D01*
X001517Y015006D02*
X021022Y015006D01*
X006678Y022934D02*
X005580Y022934D01*
X001337Y022934D02*
X000778Y022934D01*
X000778Y022856D02*
X001337Y022856D01*
X001337Y022777D02*
X000778Y022777D01*
X000778Y022699D02*
X001337Y022699D01*
X001337Y022620D02*
X000778Y022620D01*
X000778Y022542D02*
X001337Y022542D01*
X001337Y022463D02*
X000778Y022463D01*
X000778Y022385D02*
X001337Y022385D01*
X001337Y022306D02*
X000778Y022306D01*
X000778Y022228D02*
X001337Y022228D01*
X001337Y022149D02*
X000778Y022149D01*
X000778Y022071D02*
X001337Y022071D01*
X001337Y021992D02*
X000778Y021992D01*
X000778Y021914D02*
X001337Y021914D01*
X001337Y021835D02*
X000778Y021835D01*
X000778Y021757D02*
X001337Y021757D01*
X001337Y021678D02*
X000778Y021678D01*
X000778Y021600D02*
X001337Y021600D01*
X001337Y021521D02*
X000778Y021521D01*
X000778Y021443D02*
X001337Y021443D01*
X001337Y021364D02*
X000778Y021364D01*
X000778Y021286D02*
X001337Y021286D01*
X001337Y021207D02*
X000778Y021207D01*
X000778Y021129D02*
X001337Y021129D01*
X001337Y021050D02*
X000778Y021050D01*
X000778Y020972D02*
X001337Y020972D01*
X001337Y020893D02*
X000778Y020893D01*
X000778Y020815D02*
X001337Y020815D01*
X001337Y020736D02*
X000778Y020736D01*
X000778Y020658D02*
X001337Y020658D01*
X001337Y020579D02*
X000778Y020579D01*
X000778Y020501D02*
X001337Y020501D01*
X001337Y020422D02*
X000778Y020422D01*
X000778Y020344D02*
X001337Y020344D01*
X001337Y020265D02*
X000778Y020265D01*
X000778Y020187D02*
X001337Y020187D01*
X001337Y020108D02*
X000778Y020108D01*
X000778Y020030D02*
X001337Y020030D01*
X001337Y019951D02*
X000778Y019951D01*
X000778Y019873D02*
X001337Y019873D01*
X001337Y019794D02*
X000778Y019794D01*
X000778Y019716D02*
X001337Y019716D01*
X001337Y019637D02*
X000778Y019637D01*
X000778Y019559D02*
X001337Y019559D01*
X001337Y019480D02*
X000778Y019480D01*
X000778Y019402D02*
X001337Y019402D01*
X001337Y019323D02*
X000778Y019323D01*
X000778Y019245D02*
X001337Y019245D01*
X001337Y019166D02*
X000778Y019166D01*
X000778Y019088D02*
X001337Y019088D01*
X001337Y019009D02*
X000778Y019009D01*
X000778Y018931D02*
X001337Y018931D01*
X001337Y018852D02*
X000778Y018852D01*
X000778Y018774D02*
X001337Y018774D01*
X001337Y018695D02*
X000778Y018695D01*
X000778Y018617D02*
X001337Y018617D01*
X001337Y018538D02*
X000778Y018538D01*
X000778Y018460D02*
X001337Y018460D01*
X001337Y018381D02*
X000778Y018381D01*
X000778Y018303D02*
X001337Y018303D01*
X001337Y018224D02*
X000778Y018224D01*
X000778Y018146D02*
X001337Y018146D01*
X001337Y018067D02*
X000778Y018067D01*
X000778Y017989D02*
X001337Y017989D01*
X001337Y017910D02*
X000778Y017910D01*
X000778Y017832D02*
X001337Y017832D01*
X001337Y017753D02*
X000778Y017753D01*
X000778Y017675D02*
X001337Y017675D01*
X001337Y017596D02*
X000778Y017596D01*
X000778Y017518D02*
X001337Y017518D01*
X001337Y017439D02*
X000778Y017439D01*
X000778Y017361D02*
X001337Y017361D01*
X001337Y017282D02*
X000778Y017282D01*
X000778Y017204D02*
X001337Y017204D01*
X001337Y017125D02*
X000778Y017125D01*
X000778Y017047D02*
X001337Y017047D01*
X001337Y016968D02*
X000778Y016968D01*
X000778Y016890D02*
X001337Y016890D01*
X001337Y016811D02*
X000778Y016811D01*
X000778Y016733D02*
X001337Y016733D01*
X001337Y016654D02*
X000778Y016654D01*
X000778Y016576D02*
X001337Y016576D01*
X001337Y016497D02*
X000778Y016497D01*
X000778Y016419D02*
X001337Y016419D01*
X001337Y016340D02*
X000778Y016340D01*
X000778Y016262D02*
X001337Y016262D01*
X001337Y016183D02*
X000778Y016183D01*
X000778Y016105D02*
X001337Y016105D01*
X001337Y016026D02*
X000778Y016026D01*
X000778Y015948D02*
X001337Y015948D01*
X001337Y015869D02*
X000778Y015869D01*
X000778Y015791D02*
X001337Y015791D01*
X001337Y015712D02*
X000778Y015712D01*
X000778Y015634D02*
X001337Y015634D01*
X001337Y015555D02*
X000778Y015555D01*
X000778Y015477D02*
X001337Y015477D01*
X001337Y015398D02*
X000778Y015398D01*
X000778Y015320D02*
X001337Y015320D01*
X001337Y015241D02*
X000778Y015241D01*
X000778Y015163D02*
X001337Y015163D01*
X001337Y015084D02*
X000778Y015084D01*
X000778Y015006D02*
X001337Y015006D01*
X001337Y014927D02*
X000778Y014927D01*
X000778Y014849D02*
X001337Y014849D01*
X001337Y023013D02*
X000778Y023013D01*
X000778Y023091D02*
X001337Y023091D01*
X001337Y023170D02*
X000778Y023170D01*
X000778Y023248D02*
X001337Y023248D01*
X001337Y023327D02*
X000778Y023327D01*
X000778Y023405D02*
X001337Y023405D01*
X001337Y023484D02*
X000778Y023484D01*
X000778Y023562D02*
X001337Y023562D01*
X001337Y023641D02*
X000778Y023641D01*
X000778Y023719D02*
X001337Y023719D01*
X001337Y023798D02*
X000778Y023798D01*
X000778Y023876D02*
X001337Y023876D01*
X001337Y023955D02*
X000778Y023955D01*
X000778Y024033D02*
X001337Y024033D01*
X001337Y024112D02*
X000778Y024112D01*
X000778Y024190D02*
X001337Y024190D01*
X001337Y024269D02*
X000778Y024269D01*
X000778Y024347D02*
X001337Y024347D01*
X001337Y024426D02*
X000778Y024426D01*
X000778Y024504D02*
X001337Y024504D01*
X001337Y024583D02*
X000778Y024583D01*
X000778Y024661D02*
X001337Y024661D01*
X001337Y024740D02*
X000778Y024740D01*
X000778Y024818D02*
X001337Y024818D01*
X001337Y024897D02*
X000778Y024897D01*
X000778Y024975D02*
X001337Y024975D01*
X001337Y025054D02*
X000778Y025054D01*
X000778Y025132D02*
X001337Y025132D01*
X001337Y025211D02*
X000778Y025211D01*
X000778Y025289D02*
X001337Y025289D01*
X001337Y025368D02*
X000778Y025368D01*
X000778Y025446D02*
X001337Y025446D01*
D15*
X019515Y002391D02*
X019515Y002190D01*
X019516Y002190D01*
M02*
