G75*
G70*
%OFA0B0*%
%FSLAX24Y24*%
%IPPOS*%
%LPD*%
%AMOC8*
5,1,8,0,0,1.08239X$1,22.5*
%
%ADD10C,0.0050*%
D10*
X000613Y001440D02*
X000613Y033527D01*
X000615Y033580D01*
X000621Y033632D01*
X000630Y033684D01*
X000643Y033735D01*
X000660Y033785D01*
X000680Y033834D01*
X000703Y033881D01*
X000730Y033926D01*
X000760Y033969D01*
X000793Y034010D01*
X000829Y034049D01*
X000868Y034085D01*
X000909Y034118D01*
X000952Y034148D01*
X000997Y034175D01*
X001044Y034198D01*
X001093Y034218D01*
X001143Y034235D01*
X001194Y034248D01*
X001246Y034257D01*
X001298Y034263D01*
X001351Y034265D01*
X021181Y034265D01*
X021234Y034263D01*
X021286Y034257D01*
X021338Y034248D01*
X021389Y034235D01*
X021439Y034218D01*
X021488Y034198D01*
X021535Y034175D01*
X021580Y034148D01*
X021623Y034118D01*
X021664Y034085D01*
X021703Y034049D01*
X021739Y034010D01*
X021772Y033969D01*
X021802Y033926D01*
X021829Y033881D01*
X021852Y033834D01*
X021872Y033785D01*
X021889Y033735D01*
X021902Y033684D01*
X021911Y033632D01*
X021917Y033580D01*
X021919Y033527D01*
X021919Y001524D01*
X021920Y001524D02*
X021919Y001467D01*
X021916Y001411D01*
X021908Y001355D01*
X021897Y001300D01*
X021882Y001246D01*
X021864Y001193D01*
X021842Y001141D01*
X021817Y001090D01*
X021788Y001042D01*
X021757Y000995D01*
X021723Y000951D01*
X021685Y000909D01*
X021645Y000869D01*
X021603Y000832D01*
X021558Y000798D01*
X021511Y000767D01*
X021462Y000739D01*
X021412Y000714D01*
X021360Y000693D01*
X021306Y000675D01*
X021252Y000661D01*
X021197Y000650D01*
X021141Y000643D01*
X021085Y000639D01*
X021084Y000640D02*
X001413Y000640D01*
X001358Y000642D01*
X001304Y000647D01*
X001250Y000657D01*
X001197Y000670D01*
X001145Y000686D01*
X001094Y000706D01*
X001045Y000730D01*
X000997Y000756D01*
X000952Y000786D01*
X000908Y000819D01*
X000867Y000855D01*
X000828Y000894D01*
X000792Y000935D01*
X000759Y000979D01*
X000729Y001024D01*
X000703Y001072D01*
X000679Y001121D01*
X000659Y001172D01*
X000643Y001224D01*
X000630Y001277D01*
X000620Y001331D01*
X000615Y001385D01*
X000613Y001440D01*
M02*
