G75*
G70*
%OFA0B0*%
%FSLAX24Y24*%
%IPPOS*%
%LPD*%
%AMOC8*
5,1,8,0,0,1.08239X$1,22.5*
%
%ADD10C,0.0100*%
%ADD11C,0.0050*%
%ADD12C,0.0030*%
%ADD13R,0.0150X0.0050*%
%ADD14R,0.0350X0.0050*%
%ADD15R,0.0450X0.0050*%
%ADD16R,0.0600X0.0050*%
%ADD17R,0.0750X0.0050*%
%ADD18R,0.0900X0.0050*%
%ADD19R,0.1000X0.0050*%
%ADD20R,0.0250X0.0050*%
%ADD21R,0.1150X0.0050*%
%ADD22R,0.1300X0.0050*%
%ADD23R,0.0700X0.0050*%
%ADD24R,0.0300X0.0050*%
%ADD25R,0.0950X0.0050*%
%ADD26R,0.0850X0.0050*%
%ADD27R,0.1050X0.0050*%
%ADD28R,0.0650X0.0050*%
%ADD29R,0.0550X0.0050*%
%ADD30R,0.0500X0.0050*%
%ADD31R,0.0100X0.0050*%
%ADD32R,0.0400X0.0050*%
%ADD33R,0.1100X0.0050*%
%ADD34R,0.0800X0.0050*%
%ADD35R,0.0050X0.0050*%
%ADD36R,0.1200X0.0050*%
%ADD37R,0.1650X0.0050*%
%ADD38R,0.1600X0.0050*%
%ADD39R,0.0200X0.0050*%
%ADD40R,0.1400X0.0050*%
%ADD41R,0.1250X0.0050*%
%ADD42R,0.1350X0.0050*%
%ADD43R,0.2450X0.0050*%
%ADD44R,0.1500X0.0050*%
%ADD45R,0.1450X0.0050*%
%ADD46R,0.1550X0.0050*%
%ADD47R,0.1700X0.0050*%
%ADD48R,0.2050X0.0050*%
%ADD49R,0.1900X0.0050*%
%ADD50R,0.1800X0.0050*%
%ADD51R,0.1750X0.0050*%
%ADD52R,0.1850X0.0050*%
%ADD53R,0.1950X0.0050*%
%ADD54R,0.2100X0.0050*%
%ADD55R,0.2150X0.0050*%
%ADD56R,0.2200X0.0050*%
%ADD57R,0.2250X0.0050*%
%ADD58R,0.2300X0.0050*%
%ADD59R,0.2400X0.0050*%
%ADD60R,0.2000X0.0050*%
D10*
X006828Y020828D02*
X007828Y020828D01*
X008722Y020792D02*
X015808Y020792D01*
X015808Y023863D01*
X008722Y023863D01*
X008722Y020792D01*
X009809Y020792D02*
X014730Y020792D01*
X014730Y023863D01*
X009809Y023863D01*
X009809Y020792D01*
X006828Y020828D02*
X006828Y024703D01*
X013453Y024703D01*
X013010Y024454D02*
X013012Y024475D01*
X013018Y024495D01*
X013027Y024515D01*
X013039Y024532D01*
X013054Y024546D01*
X013072Y024558D01*
X013092Y024566D01*
X013112Y024571D01*
X013133Y024572D01*
X013154Y024569D01*
X013174Y024563D01*
X013193Y024552D01*
X013210Y024539D01*
X013223Y024523D01*
X013234Y024505D01*
X013242Y024485D01*
X013246Y024465D01*
X013246Y024443D01*
X013242Y024423D01*
X013234Y024403D01*
X013223Y024385D01*
X013210Y024369D01*
X013193Y024356D01*
X013174Y024345D01*
X013154Y024339D01*
X013133Y024336D01*
X013112Y024337D01*
X013092Y024342D01*
X013072Y024350D01*
X013054Y024362D01*
X013039Y024376D01*
X013027Y024393D01*
X013018Y024413D01*
X013012Y024433D01*
X013010Y024454D01*
X014065Y023312D02*
X014067Y023337D01*
X014073Y023361D01*
X014082Y023383D01*
X014095Y023404D01*
X014111Y023423D01*
X014130Y023439D01*
X014151Y023452D01*
X014173Y023461D01*
X014197Y023467D01*
X014222Y023469D01*
X014247Y023467D01*
X014271Y023461D01*
X014293Y023452D01*
X014314Y023439D01*
X014333Y023423D01*
X014349Y023404D01*
X014362Y023383D01*
X014371Y023361D01*
X014377Y023337D01*
X014379Y023312D01*
X014377Y023287D01*
X014371Y023263D01*
X014362Y023241D01*
X014349Y023220D01*
X014333Y023201D01*
X014314Y023185D01*
X014293Y023172D01*
X014271Y023163D01*
X014247Y023157D01*
X014222Y023155D01*
X014197Y023157D01*
X014173Y023163D01*
X014151Y023172D01*
X014130Y023185D01*
X014111Y023201D01*
X014095Y023220D01*
X014082Y023241D01*
X014073Y023263D01*
X014067Y023287D01*
X014065Y023312D01*
X015340Y023509D02*
X015342Y023534D01*
X015348Y023558D01*
X015357Y023580D01*
X015370Y023601D01*
X015386Y023620D01*
X015405Y023636D01*
X015426Y023649D01*
X015448Y023658D01*
X015472Y023664D01*
X015497Y023666D01*
X015522Y023664D01*
X015546Y023658D01*
X015568Y023649D01*
X015589Y023636D01*
X015608Y023620D01*
X015624Y023601D01*
X015637Y023580D01*
X015646Y023558D01*
X015652Y023534D01*
X015654Y023509D01*
X015652Y023484D01*
X015646Y023460D01*
X015637Y023438D01*
X015624Y023417D01*
X015608Y023398D01*
X015589Y023382D01*
X015568Y023369D01*
X015546Y023360D01*
X015522Y023354D01*
X015497Y023352D01*
X015472Y023354D01*
X015448Y023360D01*
X015426Y023369D01*
X015405Y023382D01*
X015386Y023398D01*
X015370Y023417D01*
X015357Y023438D01*
X015348Y023460D01*
X015342Y023484D01*
X015340Y023509D01*
D11*
X000613Y033527D02*
X000613Y001440D01*
X000615Y001385D01*
X000620Y001331D01*
X000630Y001277D01*
X000643Y001224D01*
X000659Y001172D01*
X000679Y001121D01*
X000703Y001072D01*
X000729Y001024D01*
X000759Y000979D01*
X000792Y000935D01*
X000828Y000894D01*
X000867Y000855D01*
X000908Y000819D01*
X000952Y000786D01*
X000997Y000756D01*
X001045Y000730D01*
X001094Y000706D01*
X001145Y000686D01*
X001197Y000670D01*
X001250Y000657D01*
X001304Y000647D01*
X001358Y000642D01*
X001413Y000640D01*
X021084Y000640D01*
X021085Y000639D02*
X021141Y000643D01*
X021197Y000650D01*
X021252Y000661D01*
X021306Y000675D01*
X021360Y000693D01*
X021412Y000714D01*
X021462Y000739D01*
X021511Y000767D01*
X021558Y000798D01*
X021603Y000832D01*
X021645Y000869D01*
X021685Y000909D01*
X021723Y000951D01*
X021757Y000995D01*
X021788Y001042D01*
X021817Y001090D01*
X021842Y001141D01*
X021864Y001193D01*
X021882Y001246D01*
X021897Y001300D01*
X021908Y001355D01*
X021916Y001411D01*
X021919Y001467D01*
X021920Y001524D01*
X021919Y001524D02*
X021919Y033527D01*
X021917Y033580D01*
X021911Y033632D01*
X021902Y033684D01*
X021889Y033735D01*
X021872Y033785D01*
X021852Y033834D01*
X021829Y033881D01*
X021802Y033926D01*
X021772Y033969D01*
X021739Y034010D01*
X021703Y034049D01*
X021664Y034085D01*
X021623Y034118D01*
X021580Y034148D01*
X021535Y034175D01*
X021488Y034198D01*
X021439Y034218D01*
X021389Y034235D01*
X021338Y034248D01*
X021286Y034257D01*
X021234Y034263D01*
X021181Y034265D01*
X001351Y034265D01*
X001298Y034263D01*
X001246Y034257D01*
X001194Y034248D01*
X001143Y034235D01*
X001093Y034218D01*
X001044Y034198D01*
X000997Y034175D01*
X000952Y034148D01*
X000909Y034118D01*
X000868Y034085D01*
X000829Y034049D01*
X000793Y034010D01*
X000760Y033969D01*
X000730Y033926D01*
X000703Y033881D01*
X000680Y033834D01*
X000660Y033785D01*
X000643Y033735D01*
X000630Y033684D01*
X000621Y033632D01*
X000615Y033580D01*
X000613Y033527D01*
X010268Y025561D02*
X010268Y025194D01*
X010360Y025103D01*
X010543Y025103D01*
X010635Y025194D01*
X010268Y025561D01*
X010360Y025653D01*
X010543Y025653D01*
X010635Y025561D01*
X010635Y025194D01*
X010821Y025194D02*
X010912Y025103D01*
X011096Y025103D01*
X011188Y025194D01*
X011188Y025286D01*
X011096Y025378D01*
X010912Y025378D01*
X010821Y025286D01*
X010821Y025194D01*
X010912Y025378D02*
X010821Y025469D01*
X010821Y025561D01*
X010912Y025653D01*
X011096Y025653D01*
X011188Y025561D01*
X011188Y025469D01*
X011096Y025378D01*
X011373Y025561D02*
X011373Y025194D01*
X011465Y025103D01*
X011648Y025103D01*
X011740Y025194D01*
X011373Y025561D01*
X011465Y025653D01*
X011648Y025653D01*
X011740Y025561D01*
X011740Y025194D01*
X011925Y025653D02*
X012292Y025653D01*
X012292Y025103D01*
X012478Y025194D02*
X012478Y025561D01*
X012570Y025653D01*
X012753Y025653D01*
X012845Y025561D01*
X012845Y025469D01*
X012753Y025378D01*
X012478Y025378D01*
X012478Y025194D02*
X012570Y025103D01*
X012753Y025103D01*
X012845Y025194D01*
X013030Y025103D02*
X013397Y025103D01*
X013030Y025469D01*
X013030Y025561D01*
X013122Y025653D01*
X013306Y025653D01*
X013397Y025561D01*
X012292Y025378D02*
X012109Y025378D01*
X012136Y020403D02*
X012411Y020128D01*
X012044Y020128D01*
X011859Y020311D02*
X011767Y020403D01*
X011584Y020403D01*
X011492Y020311D01*
X011859Y019944D01*
X011767Y019853D01*
X011584Y019853D01*
X011492Y019944D01*
X011492Y020311D01*
X011859Y020311D02*
X011859Y019944D01*
X012136Y019853D02*
X012136Y020403D01*
X012597Y020311D02*
X012597Y019944D01*
X012689Y019853D01*
X012872Y019853D01*
X012964Y019944D01*
X012597Y020311D01*
X012689Y020403D01*
X012872Y020403D01*
X012964Y020311D01*
X012964Y019944D01*
X013333Y020128D02*
X013516Y020128D01*
X013702Y020036D02*
X013702Y019944D01*
X013793Y019853D01*
X013977Y019853D01*
X014069Y019944D01*
X014254Y019944D02*
X014254Y020311D01*
X014346Y020403D01*
X014529Y020403D01*
X014621Y020311D01*
X014621Y020219D01*
X014529Y020128D01*
X014254Y020128D01*
X014254Y019944D02*
X014346Y019853D01*
X014529Y019853D01*
X014621Y019944D01*
X014807Y019944D02*
X014898Y019853D01*
X015082Y019853D01*
X015174Y019944D01*
X014990Y020128D02*
X014898Y020128D01*
X014807Y020036D01*
X014807Y019944D01*
X014898Y020128D02*
X014807Y020219D01*
X014807Y020311D01*
X014898Y020403D01*
X015082Y020403D01*
X015174Y020311D01*
X015292Y019403D02*
X014925Y019403D01*
X014740Y019311D02*
X014648Y019403D01*
X014465Y019403D01*
X014373Y019311D01*
X014740Y018944D01*
X014648Y018853D01*
X014465Y018853D01*
X014373Y018944D01*
X014373Y019311D01*
X014188Y019128D02*
X013821Y019128D01*
X013635Y019311D02*
X013543Y019403D01*
X013360Y019403D01*
X013268Y019311D01*
X013635Y018944D01*
X013543Y018853D01*
X013360Y018853D01*
X013268Y018944D01*
X013268Y019311D01*
X013635Y019311D02*
X013635Y018944D01*
X013912Y018853D02*
X013912Y019403D01*
X014188Y019128D01*
X014740Y018944D02*
X014740Y019311D01*
X015109Y019128D02*
X015292Y019128D01*
X015478Y019128D02*
X015753Y019128D01*
X015845Y019219D01*
X015845Y019311D01*
X015753Y019403D01*
X015570Y019403D01*
X015478Y019311D01*
X015478Y018944D01*
X015570Y018853D01*
X015753Y018853D01*
X015845Y018944D01*
X016030Y018853D02*
X016397Y018853D01*
X016030Y019219D01*
X016030Y019311D01*
X016122Y019403D01*
X016306Y019403D01*
X016397Y019311D01*
X015292Y019403D02*
X015292Y018853D01*
X013977Y020128D02*
X014069Y020219D01*
X014069Y020311D01*
X013977Y020403D01*
X013793Y020403D01*
X013702Y020311D01*
X013793Y020128D02*
X013702Y020036D01*
X013793Y020128D02*
X013977Y020128D01*
X013516Y019853D02*
X013516Y020403D01*
X013149Y020403D01*
X014105Y002653D02*
X014014Y002561D01*
X014014Y002194D01*
X014105Y002103D01*
X014381Y002103D01*
X014381Y002653D01*
X014105Y002653D01*
X014566Y002561D02*
X014566Y002378D01*
X014658Y002286D01*
X014933Y002286D01*
X014750Y002286D02*
X014566Y002103D01*
X014549Y001811D02*
X014549Y001444D01*
X014457Y001353D01*
X014272Y001353D02*
X014089Y001353D01*
X014180Y001353D02*
X014180Y001719D01*
X014272Y001719D01*
X014457Y001719D02*
X014640Y001719D01*
X014917Y001903D02*
X014917Y001353D01*
X015009Y001353D02*
X014825Y001353D01*
X015194Y001353D02*
X015194Y001719D01*
X015009Y001903D02*
X014917Y001903D01*
X014933Y002103D02*
X014933Y002653D01*
X014658Y002653D01*
X014566Y002561D01*
X015119Y002469D02*
X015119Y002103D01*
X015119Y002378D02*
X015486Y002378D01*
X015486Y002469D02*
X015486Y002103D01*
X015671Y002194D02*
X015763Y002103D01*
X015946Y002103D01*
X016038Y002194D01*
X016038Y002561D01*
X015946Y002653D01*
X015763Y002653D01*
X015671Y002561D01*
X015486Y002469D02*
X015302Y002653D01*
X015119Y002469D01*
X015561Y001719D02*
X015561Y001444D01*
X015470Y001353D01*
X015194Y001353D01*
X015746Y001353D02*
X015838Y001353D01*
X015838Y001444D01*
X015746Y001444D01*
X015746Y001353D01*
X016023Y001444D02*
X016023Y001719D01*
X016023Y001444D02*
X016115Y001353D01*
X016206Y001444D01*
X016298Y001353D01*
X016390Y001444D01*
X016390Y001719D01*
X016575Y001719D02*
X016575Y001444D01*
X016667Y001353D01*
X016759Y001444D01*
X016851Y001353D01*
X016942Y001444D01*
X016942Y001719D01*
X017128Y001719D02*
X017128Y001444D01*
X017220Y001353D01*
X017311Y001444D01*
X017403Y001353D01*
X017495Y001444D01*
X017495Y001719D01*
X017143Y002103D02*
X017143Y002653D01*
X017143Y002378D02*
X016776Y002378D01*
X016591Y002469D02*
X016591Y002194D01*
X016499Y002103D01*
X016224Y002103D01*
X016224Y002469D01*
X016776Y002653D02*
X016776Y002103D01*
X014180Y001995D02*
X014180Y001903D01*
X013904Y001719D02*
X013812Y001719D01*
X013720Y001628D01*
X013629Y001719D01*
X013537Y001628D01*
X013537Y001353D01*
X013720Y001353D02*
X013720Y001628D01*
X013904Y001719D02*
X013904Y001353D01*
X013351Y001444D02*
X013260Y001353D01*
X012984Y001353D01*
X012984Y001628D01*
X013076Y001719D01*
X013260Y001719D01*
X013260Y001536D02*
X012984Y001536D01*
X012799Y001719D02*
X012615Y001719D01*
X012707Y001811D02*
X012707Y001444D01*
X012615Y001353D01*
X012431Y001444D02*
X012431Y001628D01*
X012339Y001719D01*
X012155Y001719D01*
X012064Y001628D01*
X012064Y001536D01*
X012431Y001536D01*
X012431Y001444D02*
X012339Y001353D01*
X012155Y001353D01*
X011878Y001628D02*
X011511Y001628D01*
X011326Y001628D02*
X011326Y001444D01*
X011234Y001353D01*
X010959Y001353D01*
X010773Y001444D02*
X010681Y001353D01*
X010498Y001353D01*
X010406Y001444D01*
X010406Y001628D01*
X010498Y001719D01*
X010681Y001719D01*
X010773Y001628D01*
X010773Y001444D01*
X010959Y001719D02*
X011234Y001719D01*
X011326Y001628D01*
X011250Y002103D02*
X011250Y002653D01*
X011436Y002561D02*
X011527Y002653D01*
X011711Y002653D01*
X011803Y002561D01*
X011803Y002194D01*
X011711Y002103D01*
X011527Y002103D01*
X011436Y002194D01*
X011250Y002378D02*
X010883Y002378D01*
X010883Y002653D02*
X010883Y002103D01*
X010698Y002103D02*
X010514Y002103D01*
X010606Y002103D02*
X010606Y002653D01*
X010698Y002653D02*
X010514Y002653D01*
X010329Y002561D02*
X010329Y002194D01*
X010238Y002103D01*
X010054Y002103D01*
X009962Y002194D01*
X009962Y002378D01*
X010146Y002378D01*
X010329Y002561D02*
X010238Y002653D01*
X010054Y002653D01*
X009962Y002561D01*
X009777Y002561D02*
X009777Y002194D01*
X009685Y002103D01*
X009502Y002103D01*
X009410Y002194D01*
X009410Y002561D01*
X009502Y002653D01*
X009685Y002653D01*
X009777Y002561D01*
X009945Y001719D02*
X009854Y001628D01*
X009854Y001353D01*
X009668Y001353D02*
X009393Y001353D01*
X009301Y001444D01*
X009393Y001536D01*
X009576Y001536D01*
X009668Y001628D01*
X009576Y001719D01*
X009301Y001719D01*
X009116Y001628D02*
X009116Y001444D01*
X009024Y001353D01*
X008841Y001353D01*
X008749Y001444D01*
X008749Y001628D01*
X008841Y001719D01*
X009024Y001719D01*
X009116Y001628D01*
X008563Y001903D02*
X008472Y001903D01*
X008472Y001353D01*
X008563Y001353D02*
X008380Y001353D01*
X008195Y001444D02*
X008195Y001628D01*
X008103Y001719D01*
X007920Y001719D01*
X007828Y001628D01*
X007828Y001536D01*
X008195Y001536D01*
X008195Y001444D02*
X008103Y001353D01*
X007920Y001353D01*
X007643Y001353D02*
X007367Y001353D01*
X007276Y001444D01*
X007367Y001536D01*
X007551Y001536D01*
X007643Y001628D01*
X007551Y001719D01*
X007276Y001719D01*
X007090Y001444D02*
X007090Y001353D01*
X006998Y001353D01*
X006998Y001444D01*
X007090Y001444D01*
X006814Y001628D02*
X006630Y001628D01*
X006722Y001811D02*
X006630Y001903D01*
X006722Y001811D02*
X006722Y001353D01*
X006445Y001353D02*
X006445Y001719D01*
X006262Y001719D02*
X006170Y001719D01*
X006262Y001719D02*
X006445Y001536D01*
X006739Y002103D02*
X006647Y002194D01*
X006647Y002378D01*
X006739Y002469D01*
X006831Y002469D01*
X007014Y002378D01*
X007014Y002653D01*
X006647Y002653D01*
X006739Y002103D02*
X006923Y002103D01*
X007014Y002194D01*
X007200Y002103D02*
X007567Y002103D01*
X007383Y002103D02*
X007383Y002653D01*
X007567Y002469D01*
X007752Y002561D02*
X007752Y002194D01*
X007844Y002103D01*
X008028Y002103D01*
X008119Y002194D01*
X007752Y002561D01*
X007844Y002653D01*
X008028Y002653D01*
X008119Y002561D01*
X008119Y002194D01*
X008305Y002103D02*
X008672Y002103D01*
X008305Y002469D01*
X008305Y002561D01*
X008397Y002653D01*
X008580Y002653D01*
X008672Y002561D01*
X009945Y001719D02*
X010221Y001719D01*
X010221Y001353D01*
X011987Y002103D02*
X012171Y002103D01*
X012079Y002103D02*
X012079Y002653D01*
X012171Y002653D02*
X011987Y002653D01*
X012909Y002378D02*
X013276Y002378D01*
X013260Y001536D02*
X013351Y001444D01*
D12*
X006897Y024010D02*
X006897Y024203D01*
X006800Y024304D02*
X006994Y024304D01*
X007042Y024353D01*
X007042Y024449D01*
X006994Y024498D01*
X006800Y024304D01*
X006752Y024353D01*
X006752Y024449D01*
X006800Y024498D01*
X006994Y024498D01*
X007042Y024155D02*
X006897Y024010D01*
X006752Y024155D02*
X007042Y024155D01*
D13*
X008056Y013537D03*
X008106Y013487D03*
X009106Y011387D03*
X009056Y011337D03*
X009706Y012687D03*
X010356Y012937D03*
X010506Y012637D03*
X010856Y010887D03*
X011406Y010737D03*
X011456Y010687D03*
X012906Y009687D03*
X013056Y007937D03*
X011956Y006987D03*
X015106Y012287D03*
X018306Y010187D03*
X018356Y010087D03*
X018406Y009987D03*
X018456Y009887D03*
X018456Y009837D03*
X018506Y009587D03*
X018456Y009337D03*
X016406Y006737D03*
X005956Y012187D03*
X003506Y012037D03*
X003456Y011787D03*
X003456Y011737D03*
X003456Y011687D03*
X003506Y011437D03*
D14*
X004206Y012787D03*
X004306Y012837D03*
X005256Y012587D03*
X005256Y012537D03*
X005256Y012487D03*
X005256Y012437D03*
X005256Y012387D03*
X005256Y012337D03*
X005256Y012287D03*
X005256Y012237D03*
X005256Y012187D03*
X005256Y012137D03*
X005256Y012087D03*
X005256Y012037D03*
X005306Y011937D03*
X005306Y011887D03*
X005256Y011437D03*
X005256Y011087D03*
X005256Y011037D03*
X004706Y010087D03*
X004556Y010187D03*
X004856Y009987D03*
X004956Y009937D03*
X005006Y009887D03*
X005106Y009837D03*
X005606Y013037D03*
X007706Y012287D03*
X008106Y011387D03*
X008106Y010987D03*
X008106Y010937D03*
X008106Y010887D03*
X008106Y010837D03*
X008106Y010787D03*
X008106Y010737D03*
X008106Y010687D03*
X008106Y010637D03*
X008106Y010587D03*
X008106Y010537D03*
X008106Y010487D03*
X008106Y010437D03*
X008106Y010387D03*
X008106Y010337D03*
X008106Y010287D03*
X008106Y010237D03*
X008106Y010187D03*
X008106Y009787D03*
X008606Y009887D03*
X008606Y009937D03*
X008606Y009987D03*
X008606Y010037D03*
X008606Y010087D03*
X008606Y010137D03*
X008606Y010187D03*
X008606Y010237D03*
X008606Y010287D03*
X008606Y010337D03*
X008606Y010387D03*
X008606Y010437D03*
X008606Y010487D03*
X008606Y010537D03*
X008606Y010587D03*
X008606Y010637D03*
X008606Y010687D03*
X008606Y010737D03*
X008606Y010787D03*
X008606Y010837D03*
X008606Y010887D03*
X008606Y010937D03*
X009356Y010937D03*
X009356Y010887D03*
X009356Y010837D03*
X009356Y010787D03*
X009356Y010737D03*
X009356Y010687D03*
X009356Y010637D03*
X009356Y010587D03*
X009356Y010537D03*
X009356Y010487D03*
X009356Y010437D03*
X009356Y010387D03*
X009356Y010337D03*
X009356Y010287D03*
X009356Y010237D03*
X009356Y010187D03*
X009356Y010137D03*
X009356Y010087D03*
X009356Y010037D03*
X009356Y009987D03*
X009356Y009937D03*
X009356Y009887D03*
X009356Y009837D03*
X009356Y009787D03*
X009356Y009737D03*
X010106Y009737D03*
X010106Y009687D03*
X010106Y009637D03*
X010106Y009587D03*
X010106Y009537D03*
X010106Y009487D03*
X010106Y009787D03*
X010106Y009837D03*
X010106Y009887D03*
X010106Y009937D03*
X010106Y009987D03*
X010106Y010037D03*
X010106Y010087D03*
X010106Y010137D03*
X010106Y010187D03*
X010106Y010237D03*
X010106Y010287D03*
X010106Y010337D03*
X010106Y010387D03*
X010106Y010437D03*
X010106Y010487D03*
X010106Y010537D03*
X010106Y010587D03*
X010106Y010637D03*
X010106Y010687D03*
X010106Y010737D03*
X010106Y010787D03*
X010106Y010837D03*
X010106Y010887D03*
X010106Y010937D03*
X010106Y010987D03*
X010106Y011037D03*
X009706Y011537D03*
X009306Y011587D03*
X009356Y011287D03*
X009356Y011237D03*
X009356Y011187D03*
X009356Y011137D03*
X009356Y011087D03*
X009356Y011037D03*
X009356Y010987D03*
X010206Y012737D03*
X009806Y012887D03*
X010506Y012387D03*
X010956Y011087D03*
X011006Y011037D03*
X010856Y010387D03*
X011456Y009887D03*
X011456Y009837D03*
X011456Y009787D03*
X011456Y009387D03*
X012206Y009387D03*
X012206Y009337D03*
X012206Y009287D03*
X012206Y009237D03*
X012206Y009187D03*
X012206Y009137D03*
X012206Y009087D03*
X012206Y009037D03*
X012206Y008987D03*
X012206Y008937D03*
X012206Y009437D03*
X012206Y009487D03*
X012206Y009537D03*
X012206Y009587D03*
X012206Y009637D03*
X012206Y009687D03*
X012206Y009737D03*
X012206Y009787D03*
X012206Y009837D03*
X012206Y009887D03*
X012206Y009937D03*
X012206Y009987D03*
X012206Y010037D03*
X012206Y010087D03*
X011706Y010787D03*
X011656Y010837D03*
X012956Y009237D03*
X012956Y009187D03*
X012956Y009137D03*
X012956Y009087D03*
X012956Y009037D03*
X012956Y008987D03*
X012956Y008937D03*
X012956Y008887D03*
X012956Y008837D03*
X012956Y008787D03*
X012956Y008737D03*
X012956Y008687D03*
X012956Y008637D03*
X012956Y008587D03*
X012956Y008537D03*
X012956Y008487D03*
X012956Y008437D03*
X013506Y008087D03*
X014256Y007937D03*
X014306Y008187D03*
X014306Y008587D03*
X014806Y008987D03*
X014806Y009037D03*
X014806Y009087D03*
X014806Y009137D03*
X014806Y009187D03*
X014806Y009237D03*
X014806Y009287D03*
X014806Y009337D03*
X014806Y009737D03*
X014256Y009687D03*
X013556Y009137D03*
X013556Y009087D03*
X011856Y007837D03*
X011856Y007787D03*
X011856Y007737D03*
X011856Y007687D03*
X011856Y007637D03*
X011856Y007587D03*
X011856Y007537D03*
X011856Y007487D03*
X011856Y007437D03*
X010306Y008187D03*
X010256Y008287D03*
X010206Y008387D03*
X010206Y008437D03*
X010156Y008487D03*
X010156Y008537D03*
X010156Y008587D03*
X010106Y008687D03*
X010106Y008737D03*
X010106Y008787D03*
X010106Y008837D03*
X010106Y008887D03*
X010106Y008937D03*
X010106Y008987D03*
X010106Y009037D03*
X008506Y013187D03*
X015606Y009737D03*
X015606Y009687D03*
X015606Y009637D03*
X016356Y010287D03*
X017006Y011337D03*
X017106Y011287D03*
X017156Y011237D03*
X017256Y011187D03*
X017306Y011137D03*
X016756Y011487D03*
X017756Y008537D03*
X017656Y008487D03*
X017356Y008337D03*
X016356Y007187D03*
X016356Y006787D03*
X015606Y008287D03*
X015606Y008387D03*
X015606Y008437D03*
D15*
X015556Y008487D03*
X014356Y008537D03*
X013506Y009237D03*
X013006Y009587D03*
X012256Y010187D03*
X012006Y010487D03*
X011956Y010537D03*
X010806Y011187D03*
X010106Y012637D03*
X010806Y013187D03*
X010356Y013787D03*
X009406Y011687D03*
X008856Y011687D03*
X008606Y013087D03*
X008556Y013137D03*
X007356Y011887D03*
X007156Y012237D03*
X007056Y012287D03*
X006506Y011887D03*
X006106Y012087D03*
X006506Y011187D03*
X007306Y010637D03*
X006356Y009237D03*
X006106Y009337D03*
X006006Y009387D03*
X005306Y011837D03*
X005306Y012687D03*
X004656Y012987D03*
X010056Y009087D03*
X010406Y008037D03*
X010456Y007987D03*
X010506Y007887D03*
X010556Y007837D03*
X010606Y007787D03*
X011006Y008487D03*
X011806Y007087D03*
X012156Y008787D03*
X015356Y012137D03*
X015606Y012037D03*
X015706Y011987D03*
X015856Y011937D03*
X015956Y011887D03*
X016056Y011837D03*
X016156Y011787D03*
X016256Y011737D03*
X016306Y010337D03*
X017056Y008237D03*
X016306Y006837D03*
D16*
X016231Y006887D03*
X015481Y008537D03*
X014931Y009637D03*
X014431Y008487D03*
X013081Y009537D03*
X011731Y007137D03*
X009981Y009137D03*
X010231Y011137D03*
X010581Y011387D03*
X008931Y012837D03*
X008881Y012887D03*
X007731Y012237D03*
X006431Y011237D03*
X005381Y011687D03*
X005631Y012987D03*
X007981Y009887D03*
X007781Y008737D03*
X007931Y008687D03*
X010281Y013837D03*
D17*
X010256Y014737D03*
X009206Y012637D03*
X009256Y012587D03*
X008756Y011787D03*
X008306Y011237D03*
X007906Y009937D03*
X008906Y008437D03*
X009906Y009187D03*
X011206Y007437D03*
X011656Y008037D03*
X010256Y011637D03*
X012906Y013787D03*
X014506Y008437D03*
X016156Y006937D03*
X006256Y011337D03*
X006106Y011387D03*
X005356Y013187D03*
D18*
X006431Y012637D03*
X007831Y009987D03*
X008531Y011887D03*
X008431Y011937D03*
X008681Y011837D03*
X009731Y012137D03*
X011131Y010187D03*
X011181Y009587D03*
X012681Y008237D03*
X013231Y009387D03*
X013231Y010187D03*
X014281Y010437D03*
X014281Y010487D03*
X014281Y010537D03*
X014281Y010587D03*
X014281Y010637D03*
X014281Y010687D03*
X014281Y012037D03*
X014281Y012087D03*
X014281Y012137D03*
X014281Y012187D03*
X014281Y012237D03*
X014281Y012287D03*
X014281Y012337D03*
X014281Y012387D03*
X014281Y012437D03*
X014281Y012487D03*
X014281Y012537D03*
X014281Y012587D03*
X014281Y012637D03*
X014281Y012687D03*
X012781Y012337D03*
X012781Y012287D03*
X012781Y012237D03*
X011681Y012337D03*
X011681Y012387D03*
X011681Y012437D03*
X011681Y012487D03*
X011681Y012537D03*
X011681Y012587D03*
X011681Y012637D03*
X011681Y012687D03*
X011681Y012737D03*
X011681Y012787D03*
X011681Y012837D03*
X011681Y012887D03*
X011681Y012937D03*
X011681Y012987D03*
X011681Y013037D03*
X011681Y013087D03*
X011681Y013137D03*
X011681Y013187D03*
X011681Y013237D03*
X011681Y013287D03*
X011681Y013337D03*
X011681Y013387D03*
X011681Y013437D03*
X011681Y013487D03*
X011681Y013537D03*
X011681Y013587D03*
X011631Y013637D03*
X011631Y013687D03*
X015131Y008737D03*
X014631Y007537D03*
X014481Y007587D03*
X014081Y007737D03*
X014881Y007437D03*
X015031Y007387D03*
X015181Y007337D03*
X015581Y007187D03*
X016081Y006987D03*
D19*
X016031Y007037D03*
X014631Y008337D03*
X015481Y010737D03*
X014231Y012787D03*
X012881Y012137D03*
X011631Y012237D03*
X011481Y011387D03*
X009731Y011337D03*
X009681Y012237D03*
X009081Y009537D03*
X009781Y009287D03*
X012131Y008437D03*
X007181Y010237D03*
X007031Y010287D03*
X006231Y010587D03*
X006081Y010637D03*
X005931Y010687D03*
X005781Y010737D03*
X005681Y010787D03*
X005581Y011537D03*
D20*
X004306Y010387D03*
X003956Y010687D03*
X003956Y010737D03*
X003906Y010787D03*
X003856Y010837D03*
X003806Y010887D03*
X003756Y010937D03*
X003706Y011037D03*
X003656Y011087D03*
X003606Y011187D03*
X003706Y012387D03*
X003756Y012437D03*
X003806Y012487D03*
X003856Y012537D03*
X004056Y012687D03*
X008056Y011437D03*
X008906Y011637D03*
X009156Y011437D03*
X009206Y011487D03*
X009756Y012737D03*
X010456Y012487D03*
X010556Y011037D03*
X010806Y010437D03*
X011206Y010887D03*
X011506Y009337D03*
X010806Y009037D03*
X011906Y007037D03*
X013006Y007987D03*
X015656Y007837D03*
X015656Y009187D03*
X016856Y008137D03*
X018056Y008737D03*
X018106Y008787D03*
X018156Y008837D03*
X018206Y008887D03*
X018256Y008937D03*
X018356Y009087D03*
X018056Y010537D03*
X018006Y010587D03*
X017956Y010637D03*
X017906Y010687D03*
X017856Y010737D03*
X015156Y012237D03*
X010206Y014837D03*
X008306Y013337D03*
X008256Y013387D03*
D21*
X010356Y014637D03*
X011456Y013787D03*
X011456Y011487D03*
X012956Y012087D03*
X014156Y012837D03*
X014206Y011187D03*
X015206Y009587D03*
X015206Y009537D03*
X015206Y009487D03*
X015206Y009437D03*
X015206Y009387D03*
X014706Y008287D03*
X015956Y007087D03*
X012556Y008387D03*
X011456Y007387D03*
X009706Y009337D03*
X007706Y010137D03*
X006956Y010337D03*
X005656Y011487D03*
X005856Y013287D03*
X013006Y013687D03*
D22*
X014081Y012887D03*
X014481Y010237D03*
X012631Y010337D03*
X012531Y010387D03*
X011431Y011587D03*
X009831Y011787D03*
X009631Y009387D03*
X007681Y012137D03*
X007281Y013487D03*
X015881Y007137D03*
D23*
X015431Y008587D03*
X014081Y009837D03*
X013131Y009487D03*
X013681Y007937D03*
X011681Y007187D03*
X011081Y007487D03*
X011381Y008187D03*
X011031Y008887D03*
X010281Y011087D03*
X010381Y011537D03*
X010331Y011587D03*
X010631Y012287D03*
X009731Y011437D03*
X009131Y012687D03*
X006781Y012487D03*
X005981Y011437D03*
X005431Y011637D03*
X008331Y008587D03*
X008531Y008537D03*
X008681Y008487D03*
X009481Y008287D03*
X016181Y010437D03*
D24*
X016381Y010237D03*
X016381Y010187D03*
X016381Y010137D03*
X016381Y010087D03*
X016381Y010037D03*
X016381Y009987D03*
X016381Y009937D03*
X016381Y009887D03*
X016381Y009837D03*
X016381Y009787D03*
X016381Y009737D03*
X016381Y009687D03*
X016381Y009637D03*
X016381Y009587D03*
X016381Y009537D03*
X016381Y009487D03*
X016381Y009437D03*
X016381Y009387D03*
X016381Y009337D03*
X016381Y009287D03*
X016381Y009237D03*
X016381Y009187D03*
X016381Y009137D03*
X016381Y009087D03*
X016381Y009037D03*
X016381Y008987D03*
X016381Y008937D03*
X016381Y008887D03*
X016381Y008837D03*
X016381Y008787D03*
X016381Y008737D03*
X016381Y008687D03*
X016381Y008637D03*
X016381Y008587D03*
X016381Y008537D03*
X016381Y008487D03*
X016381Y008437D03*
X016381Y008387D03*
X016381Y008337D03*
X016381Y008287D03*
X016381Y008237D03*
X016381Y008187D03*
X016381Y008137D03*
X016381Y008087D03*
X016381Y008037D03*
X016381Y007987D03*
X016381Y007937D03*
X016381Y007887D03*
X016381Y007837D03*
X016381Y007787D03*
X016381Y007737D03*
X016381Y007687D03*
X016381Y007637D03*
X016381Y007587D03*
X016381Y007537D03*
X016381Y007487D03*
X016381Y007437D03*
X016381Y007387D03*
X016381Y007337D03*
X016381Y007287D03*
X016381Y007237D03*
X015631Y008337D03*
X014281Y008137D03*
X014281Y008087D03*
X014281Y008037D03*
X014281Y007987D03*
X014281Y008637D03*
X014281Y008687D03*
X014281Y008737D03*
X014281Y008787D03*
X014281Y008837D03*
X014281Y008887D03*
X014281Y008937D03*
X014281Y008987D03*
X014281Y009037D03*
X014281Y009087D03*
X014281Y009137D03*
X014281Y009187D03*
X014281Y009237D03*
X014281Y009287D03*
X014281Y009337D03*
X014281Y009387D03*
X014281Y009437D03*
X014281Y009487D03*
X014281Y009537D03*
X014281Y009587D03*
X014281Y009637D03*
X012931Y009637D03*
X011581Y010887D03*
X011131Y010937D03*
X011081Y010987D03*
X010481Y012437D03*
X010231Y012787D03*
X009781Y012787D03*
X010431Y013737D03*
X009231Y011537D03*
X008431Y013237D03*
X008381Y013287D03*
X006581Y011837D03*
X006031Y012137D03*
X006581Y011137D03*
X005231Y011137D03*
X005231Y011187D03*
X005231Y011237D03*
X005231Y011287D03*
X005231Y011337D03*
X005231Y011387D03*
X005281Y011987D03*
X004131Y012737D03*
X003981Y012637D03*
X003931Y012587D03*
X004031Y010637D03*
X004081Y010587D03*
X004131Y010537D03*
X004181Y010487D03*
X004231Y010437D03*
X004381Y010337D03*
X004431Y010287D03*
X004481Y010237D03*
X004631Y010137D03*
X004781Y010037D03*
X009731Y008187D03*
X010131Y008637D03*
X017381Y011087D03*
X017481Y011037D03*
X017531Y010987D03*
X017581Y010937D03*
X017681Y010887D03*
X017731Y010837D03*
X017781Y010787D03*
X017981Y008687D03*
X017931Y008637D03*
X017831Y008587D03*
D25*
X016006Y010537D03*
X015306Y009987D03*
X015206Y010037D03*
X015056Y010087D03*
X014306Y010387D03*
X014306Y010737D03*
X013956Y009937D03*
X013256Y009337D03*
X013256Y009287D03*
X013956Y007787D03*
X014756Y007487D03*
X015306Y007287D03*
X015456Y007237D03*
X015306Y008087D03*
X015256Y008687D03*
X012806Y012187D03*
X012756Y012387D03*
X012756Y012437D03*
X012756Y012487D03*
X012756Y012537D03*
X012756Y012587D03*
X012756Y012637D03*
X012756Y012687D03*
X012756Y012737D03*
X012756Y012787D03*
X012756Y012837D03*
X012756Y012887D03*
X012956Y013737D03*
X014256Y012737D03*
X011656Y012287D03*
X010556Y013237D03*
X009706Y012187D03*
X009756Y012087D03*
X009806Y012037D03*
X011156Y010137D03*
X011156Y010087D03*
X011156Y010037D03*
X011156Y009737D03*
X011156Y009687D03*
X011156Y009637D03*
X011206Y008787D03*
X011556Y007287D03*
X009206Y009487D03*
X006306Y012687D03*
X005606Y013237D03*
X010306Y014687D03*
D26*
X010656Y012237D03*
X009856Y009237D03*
X009306Y008337D03*
X008356Y011037D03*
X008356Y011087D03*
X008356Y011137D03*
X008356Y011187D03*
X006556Y012587D03*
X005656Y012937D03*
X005506Y011587D03*
X005556Y010837D03*
X011506Y008137D03*
X011606Y008087D03*
X011606Y007237D03*
X013206Y009437D03*
X014006Y009887D03*
X014556Y008387D03*
X014206Y007687D03*
X014356Y007637D03*
X015356Y008637D03*
X016106Y010487D03*
D27*
X015906Y010587D03*
X015756Y010637D03*
X015606Y010687D03*
X014356Y010337D03*
X013906Y007837D03*
X012606Y008287D03*
X011956Y008487D03*
X011856Y008537D03*
X011506Y007337D03*
X009006Y009587D03*
X007756Y010037D03*
X009656Y012287D03*
X009806Y011987D03*
X011556Y013737D03*
X005706Y012887D03*
D28*
X005106Y013137D03*
X005406Y010937D03*
X006356Y011287D03*
X006856Y012437D03*
X007456Y010187D03*
X008256Y011287D03*
X009056Y012737D03*
X009006Y012787D03*
X010456Y011487D03*
X010506Y011437D03*
X011006Y010287D03*
X011306Y009487D03*
X011306Y008237D03*
X011706Y007987D03*
X011006Y007537D03*
X010906Y007587D03*
X012806Y008137D03*
X014956Y008837D03*
X015456Y009337D03*
X015456Y009887D03*
X015456Y007987D03*
X008756Y009737D03*
X008106Y008637D03*
X007606Y008787D03*
D29*
X007456Y008837D03*
X007306Y008887D03*
X007156Y008937D03*
X007006Y008987D03*
X006856Y009037D03*
X005356Y011737D03*
X006156Y012037D03*
X006306Y011987D03*
X006956Y012387D03*
X008806Y012937D03*
X008806Y011737D03*
X010006Y011287D03*
X010106Y011237D03*
X010656Y011337D03*
X010706Y011287D03*
X011556Y011287D03*
X010556Y012337D03*
X012606Y010487D03*
X014156Y009787D03*
X014906Y008887D03*
X013606Y007987D03*
X011756Y007937D03*
X011206Y008287D03*
X010956Y008937D03*
X010806Y007637D03*
X016256Y010387D03*
X004956Y013087D03*
X004806Y013037D03*
D30*
X005331Y011787D03*
X005331Y010987D03*
X006431Y011937D03*
X007031Y012337D03*
X007381Y011937D03*
X008181Y011337D03*
X007281Y010587D03*
X008031Y009837D03*
X008681Y009787D03*
X009631Y008237D03*
X010681Y007737D03*
X010731Y007687D03*
X011131Y008337D03*
X011381Y009437D03*
X011381Y009987D03*
X010931Y009787D03*
X010931Y010337D03*
X010781Y011237D03*
X010181Y011187D03*
X009731Y011487D03*
X010031Y012587D03*
X008731Y012987D03*
X008681Y013037D03*
X010231Y014787D03*
X012881Y013837D03*
X015481Y012087D03*
X015531Y009837D03*
X015531Y009287D03*
X014881Y009687D03*
X015531Y007937D03*
X012881Y008087D03*
X006731Y009087D03*
X006581Y009137D03*
X006481Y009187D03*
X006231Y009287D03*
D31*
X006631Y011087D03*
X007981Y013587D03*
X007931Y013637D03*
X008981Y011587D03*
X010431Y012987D03*
X010481Y013687D03*
X011581Y011237D03*
X011381Y010987D03*
X011531Y010637D03*
X010981Y010837D03*
X015731Y009137D03*
X015731Y007787D03*
D32*
X015581Y007887D03*
X014831Y008937D03*
X015581Y009237D03*
X015581Y009787D03*
X016481Y011637D03*
X016381Y011687D03*
X016581Y011587D03*
X016681Y011537D03*
X016831Y011437D03*
X016931Y011387D03*
X015231Y012187D03*
X014231Y009737D03*
X013531Y009187D03*
X013531Y009037D03*
X013531Y008987D03*
X013531Y008937D03*
X013531Y008887D03*
X013531Y008837D03*
X013531Y008787D03*
X013531Y008737D03*
X013531Y008687D03*
X013531Y008637D03*
X013531Y008587D03*
X013531Y008537D03*
X013531Y008487D03*
X013531Y008437D03*
X013531Y008387D03*
X013531Y008337D03*
X013531Y008287D03*
X013531Y008237D03*
X013531Y008187D03*
X013531Y008137D03*
X013531Y008037D03*
X012931Y008037D03*
X012181Y008837D03*
X012181Y008887D03*
X011831Y007887D03*
X011081Y008387D03*
X011031Y008437D03*
X010981Y008537D03*
X010881Y008987D03*
X010281Y008237D03*
X010331Y008137D03*
X010381Y008087D03*
X010481Y007937D03*
X010231Y008337D03*
X010881Y009837D03*
X010881Y009887D03*
X010881Y009937D03*
X010881Y009987D03*
X011431Y009937D03*
X011931Y010587D03*
X011881Y010637D03*
X011831Y010687D03*
X011781Y010737D03*
X012231Y010137D03*
X010881Y011137D03*
X010131Y012687D03*
X009831Y012837D03*
X009331Y011637D03*
X008581Y010987D03*
X008631Y009837D03*
X007331Y010687D03*
X007331Y010737D03*
X007331Y010787D03*
X007331Y010837D03*
X007331Y010887D03*
X007331Y010937D03*
X007331Y010987D03*
X007331Y011037D03*
X007331Y011087D03*
X007331Y011137D03*
X007331Y011187D03*
X007331Y011237D03*
X007331Y011287D03*
X007331Y011337D03*
X007331Y011387D03*
X007331Y011437D03*
X007331Y011487D03*
X007331Y011537D03*
X007331Y011587D03*
X007331Y011637D03*
X007331Y011687D03*
X007331Y011737D03*
X007331Y011787D03*
X007331Y011837D03*
X005881Y009437D03*
X005781Y009487D03*
X005681Y009537D03*
X005581Y009587D03*
X005481Y009637D03*
X005381Y009687D03*
X005281Y009737D03*
X005181Y009787D03*
X005281Y012637D03*
X004531Y012937D03*
X004431Y012887D03*
X016931Y008187D03*
X017231Y008287D03*
X017481Y008387D03*
X017581Y008437D03*
D33*
X015231Y008137D03*
X013881Y007887D03*
X012581Y008337D03*
X013881Y009987D03*
X011481Y011437D03*
X009831Y011937D03*
X009631Y012337D03*
X008981Y009687D03*
X008981Y009637D03*
X007731Y010087D03*
D34*
X009131Y008387D03*
X009731Y011387D03*
X010181Y011687D03*
X011081Y010237D03*
X011231Y009537D03*
X011131Y008837D03*
X011531Y011337D03*
X012731Y008187D03*
X015031Y008787D03*
X015381Y008037D03*
X015381Y009937D03*
X008731Y013487D03*
X006681Y012537D03*
X005481Y010887D03*
D35*
X006656Y011737D03*
X009006Y011287D03*
X009706Y012987D03*
X009806Y013437D03*
X010456Y012687D03*
X011056Y010787D03*
X010756Y010487D03*
X011556Y010587D03*
X010756Y009087D03*
X009856Y008137D03*
X016756Y008087D03*
D36*
X015181Y008187D03*
X014431Y010287D03*
X014331Y011137D03*
X012431Y010437D03*
X009831Y011887D03*
X009631Y012387D03*
D37*
X009356Y013387D03*
X010506Y014487D03*
X011306Y011937D03*
X013156Y013537D03*
X014656Y010937D03*
X014956Y008237D03*
X011556Y008637D03*
X011556Y008687D03*
X011556Y008737D03*
D38*
X011581Y008587D03*
X011331Y011887D03*
X013931Y011387D03*
X007931Y011987D03*
X006331Y013337D03*
D39*
X006631Y011787D03*
X008181Y013437D03*
X009731Y012937D03*
X010281Y012837D03*
X010331Y012887D03*
X010481Y012587D03*
X010481Y012537D03*
X009681Y011587D03*
X010681Y010987D03*
X010781Y010937D03*
X011281Y010837D03*
X011331Y010787D03*
X011481Y010937D03*
X012581Y010537D03*
X014731Y009787D03*
X018081Y010487D03*
X018131Y010437D03*
X018181Y010387D03*
X018181Y010337D03*
X018231Y010287D03*
X018281Y010237D03*
X018331Y010137D03*
X018381Y010037D03*
X018431Y009937D03*
X018481Y009787D03*
X018481Y009737D03*
X018481Y009687D03*
X018481Y009637D03*
X018481Y009537D03*
X018481Y009487D03*
X018481Y009437D03*
X018481Y009387D03*
X018431Y009287D03*
X018431Y009237D03*
X018381Y009187D03*
X018381Y009137D03*
X018331Y009037D03*
X018281Y008987D03*
X008181Y009737D03*
X003731Y010987D03*
X003631Y011137D03*
X003581Y011237D03*
X003581Y011287D03*
X003531Y011337D03*
X003531Y011387D03*
X003481Y011487D03*
X003481Y011537D03*
X003481Y011587D03*
X003481Y011637D03*
X003481Y011837D03*
X003481Y011887D03*
X003481Y011937D03*
X003481Y011987D03*
X003531Y012087D03*
X003531Y012137D03*
X003581Y012187D03*
X003581Y012237D03*
X003631Y012287D03*
X003681Y012337D03*
D40*
X005831Y012787D03*
X006831Y010437D03*
X007731Y012087D03*
X009581Y009437D03*
X011431Y011637D03*
D41*
X011456Y011537D03*
X011406Y013837D03*
X013006Y012037D03*
X014106Y011237D03*
X014456Y011087D03*
X013806Y010037D03*
X009856Y011837D03*
X009606Y012437D03*
X009056Y013437D03*
X007556Y012187D03*
X006906Y010387D03*
X005756Y012837D03*
D42*
X009606Y012537D03*
X009606Y012487D03*
X009856Y011737D03*
X010406Y014587D03*
X013056Y013637D03*
X014056Y011287D03*
X014506Y011037D03*
X013756Y010087D03*
D43*
X014156Y010137D03*
X013506Y012937D03*
X013506Y012987D03*
X013506Y013037D03*
X013506Y013087D03*
X013506Y013137D03*
X013506Y013187D03*
X013506Y013237D03*
D44*
X013081Y013587D03*
X013981Y011337D03*
X014581Y010987D03*
X014531Y010187D03*
X012781Y010237D03*
X011381Y011737D03*
X011381Y011787D03*
X010481Y014537D03*
X007831Y012037D03*
D45*
X010256Y013287D03*
X011406Y011687D03*
X012706Y010287D03*
D46*
X011356Y011837D03*
X006756Y010487D03*
X005856Y012737D03*
D47*
X006681Y010537D03*
X011281Y011987D03*
D48*
X010656Y014287D03*
X013706Y011637D03*
X014856Y010787D03*
D49*
X014781Y010837D03*
X013781Y011537D03*
X011181Y012187D03*
X010581Y014387D03*
D50*
X011231Y012087D03*
X013231Y013487D03*
X014731Y010887D03*
X007081Y013437D03*
D51*
X010556Y014437D03*
X011256Y012037D03*
X013856Y011437D03*
D52*
X013806Y011487D03*
X011206Y012137D03*
D53*
X013256Y013437D03*
X013756Y011587D03*
D54*
X013681Y011687D03*
X013331Y013387D03*
X010681Y014237D03*
D55*
X010706Y014187D03*
X013656Y011787D03*
X013656Y011737D03*
X006956Y013387D03*
D56*
X010731Y014137D03*
X010931Y013887D03*
X013631Y011837D03*
D57*
X013606Y011887D03*
X013606Y011937D03*
X013406Y013337D03*
X010856Y013937D03*
X010756Y014087D03*
D58*
X010781Y014037D03*
X010781Y013987D03*
X013581Y011987D03*
D59*
X013481Y013287D03*
D60*
X010631Y014337D03*
X009631Y013337D03*
M02*
